<?xml version="1.0"?>
<svg xmlns="http://www.w3.org/2000/svg" id="icons" enable-background="new 0 0 64 64" height="512px" viewBox="0 0 64 64" width="512px"><g><path d="m47.006 34.512v-21.978c0-.031-.015-.057-.018-.087v-.912c0-1.654-1.346-3-3-3h-23.99c-1.654 0-3 1.346-3 3v2c0 .031.015.057.018.087v20.89c0 .553.447 1 1 1h27.99c.553 0 1-.448 1-1zm-27.008-23.977h23.99c.552 0 .999.447 1 .999h-25.99c.001-.552.448-.999 1-.999zm-.982 22.977v-19.978h25.973v.001c0 .031.015.057.018.087v19.89z" data-original="#000000" class="active-path" data-old_color="#000000" fill="#FED706"/><path d="m41.996 15.512h-19.998c-.553 0-1 .447-1 1v8.001c0 .553.447 1 1 1h19.998c.553 0 1-.447 1-1v-8.001c0-.553-.447-1-1-1zm-1 8.001h-17.998v-6.001h17.998z" data-original="#000000" class="active-path" data-old_color="#000000" fill="#FED706"/><path d="m41.996 26.513h-19.998c-.553 0-1 .447-1 1s.447 1 1 1h19.998c.553 0 1-.447 1-1s-.447-1-1-1z" data-original="#000000" class="active-path" data-old_color="#000000" fill="#FED706"/><path d="m41.996 29.513h-19.998c-.553 0-1 .447-1 1s.447 1 1 1h19.998c.553 0 1-.447 1-1s-.447-1-1-1z" data-original="#000000" class="active-path" data-old_color="#000000" fill="#FED706"/><path d="m25.998 21.512h11.998c.553 0 1-.447 1-1s-.447-1-1-1h-11.998c-.553 0-1 .447-1 1s.447 1 1 1z" data-original="#000000" class="active-path" data-old_color="#000000" fill="#FED706"/><path d="m32.011 36.502c-.553 0-1 .447-1.001.999l-.006 5.59-.294-.296c-.39-.392-1.022-.395-1.414-.002-.391.39-.393 1.022-.002 1.414l1.992 2c.195.196.451.294.708.294.001 0 .002-.001.004-.001.001 0 .002.001.003.001h.001c.067 0 .126-.025.189-.038.061-.013.123-.013.182-.037.135-.054.253-.137.352-.241l1.983-1.976c.391-.39.393-1.022.002-1.414-.39-.392-1.022-.395-1.414-.002l-.292.29.006-5.58c.001-.553-.447-1-.999-1.001z" data-original="#000000" class="active-path" data-old_color="#000000" fill="#FED706"/><path d="m36 7.501c.553 0 1-.447 1-1v-3.999c0-.347-.18-.669-.475-.851-.295-.184-.665-.198-.973-.044l-1.354.678-1.488-1.49c-.188-.188-.442-.294-.708-.294-.003 0-.005 0-.008 0-.269.002-.524.112-.711.305l-1.433 1.481-1.411-.685c-.31-.15-.676-.133-.967.052-.292.183-.47.503-.47.848v3.999c0 .553.447 1 1 1zm-6.998-3.402.626.304c.388.187.853.106 1.155-.204l1.229-1.271 1.279 1.281c.305.305.771.381 1.155.188l.554-.276v1.38h-5.998z" data-original="#000000" class="active-path" data-old_color="#000000" fill="#FED706"/><path d="m16.721 36.793c-.391-.391-1.023-.391-1.414 0l-4.303 4.303v-.596c0-.553-.447-1-1-1s-1 .447-1 1v3.01c0 .13.026.26.077.382.102.245.296.439.541.541.122.051.252.077.382.077h3.006c.553 0 1-.447 1-1s-.447-1-1-1h-.592l4.303-4.303c.39-.391.39-1.023 0-1.414z" data-original="#000000" class="active-path" data-old_color="#000000" fill="#FED706"/><path d="m51.004 43.51c0 .553.447 1 1 1h3.004c.13 0 .26-.026.382-.077.245-.102.439-.296.541-.541.051-.122.077-.252.077-.382v-3.01c0-.553-.447-1-1-1s-1 .447-1 1v.596l-4.303-4.303c-.391-.391-1.023-.391-1.414 0s-.391 1.023 0 1.414l4.303 4.303h-.59c-.553 0-1 .447-1 1z" data-original="#000000" class="active-path" data-old_color="#000000" fill="#FED706"/><path d="m.016 61.498c0 .553.447 1 1 1h17.982c.553 0 1-.447 1-1v-10.967c0-.031-.015-.057-.018-.087v-.912c0-1.654-1.346-3-3-3h-13.982c-1.654 0-3 1.346-3 3v2c0 .031.015.057.018.087v9.879zm2.982-12.966h13.982c.552 0 .999.448 1 .999h-15.982c.001-.551.448-.999 1-.999zm-.982 11.966v-8.967h15.964v.001c0 .031.015.057.018.087v8.879z" data-original="#000000" class="active-path" data-old_color="#000000" fill="#FED706"/><path d="m42.002 62.499v-10.967c0-.031-.015-.057-.018-.087v-.912c0-1.654-1.346-3-3-3h-13.98c-1.654 0-3 1.346-3 3v2c0 .031.015.057.018.087v9.879c0 .553.447 1 1 1h17.98c.553 0 1-.447 1-1zm-16.998-12.966h13.98c.552 0 .999.447 1 .999h-15.98c.001-.552.448-.999 1-.999zm-.983 11.966v-8.967h15.963v.001c0 .031.015.057.018.087v8.879z" data-original="#000000" class="active-path" data-old_color="#000000" fill="#FED706"/><path d="m63.984 49.532c0-1.654-1.346-3-3-3h-13.982c-1.654 0-3 1.346-3 3v2c0 .031.015.057.018.087v9.879c0 .553.447 1 1 1h17.982c.553 0 1-.447 1-1v-10.967c0-.031-.015-.057-.018-.087zm-16.982-1h13.982c.552 0 .999.448 1 .999h-15.982c.001-.551.448-.999 1-.999zm-.982 11.966v-8.967h15.965v.001c0 .031.015.057.018.087v8.879z" data-original="#000000" class="active-path" data-old_color="#000000" fill="#FED706"/><path d="m15.002 53.5h-10c-.553 0-1 .447-1 1s.447 1 1 1h10c.553 0 1-.447 1-1s-.447-1-1-1z" data-original="#000000" class="active-path" data-old_color="#000000" fill="#FED706"/><path d="m15.002 56.499h-10c-.553 0-1 .447-1 1s.447 1 1 1h10c.553 0 1-.447 1-1s-.447-1-1-1z" data-original="#000000" class="active-path" data-old_color="#000000" fill="#FED706"/><path d="m59 53.5h-10c-.553 0-1 .447-1 1s.447 1 1 1h10c.553 0 1-.447 1-1s-.447-1-1-1z" data-original="#000000" class="active-path" data-old_color="#000000" fill="#FED706"/><path d="m59 56.499h-10c-.553 0-1 .447-1 1s.447 1 1 1h10c.553 0 1-.447 1-1s-.447-1-1-1z" data-original="#000000" class="active-path" data-old_color="#000000" fill="#FED706"/><path d="m36.994 54.516h-10c-.553 0-1 .447-1 1s.447 1 1 1h10c.553 0 1-.447 1-1s-.447-1-1-1z" data-original="#000000" class="active-path" data-old_color="#000000" fill="#FED706"/><path d="m36.994 57.515h-10c-.553 0-1 .447-1 1s.447 1 1 1h10c.553 0 1-.447 1-1s-.447-1-1-1z" data-original="#000000" class="active-path" data-old_color="#000000" fill="#FED706"/></g> </svg>
