<?xml version="1.0"?>
<svg xmlns="http://www.w3.org/2000/svg" id="icons" enable-background="new 0 0 64 64" height="512px" viewBox="0 0 64 64" width="512px" class=""><g><path d="m63 44h-1v-37c0-1.654-1.346-3-3-3h-22v-2c0-.552-.447-1-1-1h-8c-.553 0-1 .448-1 1v2h-22c-1.654 0-3 1.346-3 3v37h-1c-.553 0-1 .447-1 1v3c0 .553.447 1 1 1h18.581l-4.522 12.664c-.02.055-.015.109-.023.164-.012.058-.036.111-.036.172 0 .01.005.018.006.027.002.076.024.146.043.217.015.056.02.113.042.164.025.056.067.101.103.151.038.056.069.114.118.16.037.036.086.058.13.087.064.045.125.092.199.121.009.003.015.011.023.014.11.04.225.059.336.059h5c.122 0 .238-.028.35-.07.036-.014.068-.032.102-.05.072-.037.138-.081.198-.134.031-.027.061-.053.087-.082.055-.061.098-.129.137-.203.018-.033.04-.063.054-.099.004-.01.011-.017.015-.026l1.547-4.336h17.02l1.549 4.336c.004.01.011.017.015.026.014.036.036.065.054.099.039.074.082.143.137.202.026.03.056.056.087.083.061.053.126.097.198.134.034.018.065.036.102.05.11.042.226.07.348.07h5c.111 0 .226-.019.336-.059.009-.003.015-.011.022-.014.075-.029.136-.076.2-.12.044-.03.093-.052.13-.088.049-.046.08-.105.118-.16.035-.051.077-.096.103-.151.022-.051.027-.108.042-.164.019-.072.041-.142.043-.217.001-.009.006-.017.006-.027 0-.061-.024-.114-.035-.172-.009-.055-.004-.109-.023-.164l-4.523-12.664h18.581c.553 0 1-.447 1-1v-3c0-.553-.447-1-1-1zm-34-41h6v1h-6zm-25 4c0-.551.448-1 1-1h23 8 23c.552 0 1 .449 1 1v37h-56zm20.581 42-4.285 12h-2.877l4.285-12zm12.715 0 1.429 4h-13.45l1.429-4zm-13.092 7 .357-1h14.877l.357 1zm22.377 5h-2.877l-4.285-12h2.877zm15.419-14h-60v-1h60z" data-original="#000000" class="active-path" data-old_color="#000000" fill="#FED706"/><path d="m54 23.008h-6v-3.01c0-.552-.447-1-1-1h-7.734l-6.266-3.579v-1.419h5c1.654 0 3-1.346 3-3s-1.346-3-3-3h-12c-1.654 0-3 1.346-3 3s1.346 3 3 3h5v1.419l-6.266 3.579h-7.729c-.553 0-1 .448-1 1v3.009h-6.001c-.553 0-1 .448-1 1v5.001c0 .552.447 1 1 1h5.913v2.992c0 .553.447 1 1 1h14.083v1.997h-5c-1.654 0-3 1.346-3 3s1.346 3 3 3h12c1.654 0 3-1.346 3-3s-1.346-3-3-3h-5v-1.997h14c.553 0 1-.447 1-1v-2.991h6c.553 0 1-.448 1-1v-5.001c0-.552-.447-1-1-1zm-28-13.008h12c.552 0 1 .449 1 1s-.448 1-1 1h-12c-.552 0-1-.449-1-1s.448-1 1-1zm12 29.997h-12c-.552 0-1-.448-1-1s.448-1 1-1h12c.552 0 1 .448 1 1s-.448 1-1 1zm-6-22.846 4.984 2.847-4.984 2.848-4.984-2.848zm-20.996 7.856h5.996c.002 0 .003.001.005.001s.003-.001.005-.001h5.992v3.001h-11.998zm34.996 6.993h-28.083v-1.992h6.085c.553 0 1-.448 1-1v-5.001c0-.552-.447-1-1-1h-5.997v-2.009h6.729l6.77 3.868c.153.088.325.132.496.132s.343-.044.496-.132l6.77-3.868h6.734v2.01h-5.998c-.553 0-1 .448-1 1v5.001c0 .552.447 1 1 1h5.998zm7-3.991h-5.956c-.016-.001-.028-.009-.044-.009s-.028.008-.044.009h-5.954v-3.001h11.998z" data-original="#000000" class="active-path" data-old_color="#000000" fill="#FED706"/></g> </svg>
