<?xml version="1.0"?>
<svg xmlns="http://www.w3.org/2000/svg" height="512px" viewBox="0 0 384 384" width="512px" class=""><g><path d="m195.839844 176.480469c-1.199219-.320313-2.480469-.480469-3.839844-.480469-8.800781 0-16 7.199219-16 16s7.199219 16 16 16 16-7.199219 16-16c0-7.441406-5.199219-13.761719-12.160156-15.519531zm172.160156 15.519531c0 97.199219-78.800781 176-176 176s-176-78.800781-176-176 78.800781-176 176-176 176 78.800781 176 176zm0 0" fill="#4dd0e1" data-original="#4DD0E1" class="active-path" style="fill:#FED706" data-old_color="#4dd0e1"/><g fill="#012e52"><path d="m192 0c-105.871094 0-192 86.136719-192 192s86.128906 192 192 192 192-86.136719 192-192-86.128906-192-192-192zm16 351.191406v-15.191406c0-8.832031-7.167969-16-16-16s-16 7.167969-16 16v15.191406c-75.472656-7.527344-135.65625-67.71875-143.191406-143.191406h15.191406c8.832031 0 16-7.167969 16-16s-7.167969-16-16-16h-15.191406c7.535156-75.472656 67.71875-135.664062 143.191406-143.191406v15.191406c0 8.832031 7.167969 16 16 16s16-7.167969 16-16v-15.191406c75.472656 7.527344 135.65625 67.71875 143.191406 143.191406h-15.191406c-8.832031 0-16 7.167969-16 16s7.167969 16 16 16h15.191406c-7.535156 75.472656-67.71875 135.664062-143.191406 143.191406zm0 0" data-original="#012E52" class="" data-old_color="#012E52" style="fill:#100E0E"/><path d="m223.519531 131.886719c2.152344-8.566407-3.054687-17.253907-11.625-19.40625-8.566406-2.152344-17.261719 3.054687-19.414062 11.625l-9.320313 37.285156c-13.328125 3.875-23.160156 16.050781-23.160156 30.609375 0 11.792969 6.480469 22 16 27.550781v60.449219c0 8.832031 7.167969 16 16 16s16-7.167969 16-16v-60.449219c9.519531-5.550781 16-15.757812 16-27.550781 0-8.910156-3.71875-17.089844-9.769531-22.960938zm0 0" data-original="#012E52" class="" data-old_color="#012E52" style="fill:#100E0E"/><path d="m131.199219 70.390625c-26.207031 13.015625-47.808594 34.617187-60.816407 60.816406-3.925781 7.914063-.695312 17.511719 7.21875 21.449219 2.285157 1.144531 4.710938 1.671875 7.101563 1.671875 5.882813 0 11.542969-3.257813 14.34375-8.878906 9.921875-19.984375 26.394531-36.464844 46.386719-46.394531 7.910156-3.925782 11.140625-13.527344 7.207031-21.445313-3.921875-7.921875-13.535156-11.160156-21.441406-7.21875zm0 0" data-original="#012E52" class="" data-old_color="#012E52" style="fill:#100E0E"/></g></g> </svg>
