<?xml version="1.0"?>
<svg xmlns="http://www.w3.org/2000/svg" id="icons" enable-background="new 0 0 64 64" height="512px" viewBox="0 0 64 64" width="512px" class=""><g><path d="m54 37 1.5 2.25-1.5 2.25h-3z" fill="#d7e9ff" data-original="#D7E9FF" class="active-path" style="fill:#FED706" data-old_color="#d7e9ff"/><path d="m63 29.5v2h-16v-2c0-1.1.9-2 2-2h2 3.99 6.01c1.1 0 2 .9 2 2z" fill="#94c1ff" data-original="#94C1FF" class="" style="fill:#FFEC67" data-old_color="#94c1ff"/><path d="m63 31.5v10h-1l-4-6-2.5 3.75-1.5-2.25-3 4.5h-4v-1.99-4.01-4z" fill="#94c1ff" data-original="#94C1FF" class="" style="fill:#FFEC67" data-old_color="#94c1ff"/><path d="m63 53.5v2c0 1.1-.9 2-2 2h-12c-1.1 0-2-.9-2-2v-2z" fill="#94c1ff" data-original="#94C1FF" class="" style="fill:#FFEC67" data-old_color="#94c1ff"/><path d="m63 41.5v12h-16v-6-4-2h4 3 8z" fill="#fff" data-original="#FFF" class="" data-old_color="#fff" style="fill:#FDF19E"/><path d="m58 35.5 4 6h-8l1.5-2.25z" fill="#fff" data-original="#FFF" class="" data-old_color="#fff" style="fill:#FDF19E"/><path d="m20 54.5h16 2c1.1 0 2 .89 2 2v1h-24v-1c0-1.11.89-2 2-2z" fill="#94c1ff" data-original="#94C1FF" class="" style="fill:#FFEC67" data-old_color="#94c1ff"/><path d="m34 47.5 2 7h-16l2-7z" fill="#5c9eff" data-original="#5C9EFF" class="" style="fill:#B59408" data-old_color="#5c9eff"/><path d="m1.05 43.5h45.95v4h-.01-12.99-12-19c-1.1 0-2-.9-2-2v-2z" fill="#94c1ff" data-original="#94C1FF" class="" style="fill:#FFEC67" data-old_color="#94c1ff"/><path d="m35.99 16.5 9 11h-18l3.51-4.29z" fill="#fff" data-original="#FFF" class="" data-old_color="#fff" style="fill:#FDF19E"/><path d="m27.49 19.5 3.01 3.71-3.51 4.29h-6z" fill="#d7e9ff" data-original="#D7E9FF" class="active-path" style="fill:#FED706" data-old_color="#d7e9ff"/><path d="m15 14.5c1.11 0 2 .9 2 2 0 1.11-.89 2-2 2-1.1 0-2-.89-2-2 0-1.1.9-2 2-2z" fill="#fff" data-original="#FFF" class="" data-old_color="#fff" style="fill:#FDF19E"/><path d="m51 10.5v17h-2-4.01l-9-11-5.49 6.71-3.01-3.71-6.5 8h-15.99v-17zm-34 6c0-1.1-.89-2-2-2-1.1 0-2 .9-2 2 0 1.11.9 2 2 2 1.11 0 2-.89 2-2z" fill="#94c1ff" data-original="#94C1FF" class="" style="fill:#FFEC67" data-old_color="#94c1ff"/><path d="m47 43.5h-45.95-.05v-35c0-1.1.9-2 2-2h49.99c1.1 0 2 .9 2 2v18.98.02h-3.99v-17h-46v17h15.99 6 18 4.01c-1.1 0-2 .9-2 2v2 4 4.01 1.99z" fill="#fff" data-original="#FFF" class="" data-old_color="#fff" style="fill:#FDF19E"/><g fill="#116fff"><path d="m28.026 46.498c-.553 0-1.005-.447-1.005-1s.442-1 .994-1h.011c.552 0 1 .447 1 1s-.448 1-1 1z" data-original="#116FFF" class="" data-old_color="#116FFF" style="fill:#100E0E"/><path d="m47.002 44.498h-45.955c-.553 0-1-.447-1-1s.447-1 1-1h45.955c.553 0 1 .447 1 1s-.447 1-1 1z" data-original="#116FFF" class="" data-old_color="#116FFF" style="fill:#100E0E"/><path d="m46.986 48.498h-43.986c-1.654 0-3-1.346-3-3v-36.996c0-1.654 1.346-3 3-3h49.992c1.654 0 3 1.346 3 3v18.978c0 .553-.447 1-1 1s-1-.447-1-1v-18.978c0-.552-.448-1-1-1h-49.992c-.552 0-1 .448-1 1v36.996c0 .552.448 1 1 1h43.986c.553 0 1 .447 1 1s-.447 1-1 1z" data-original="#116FFF" class="" data-old_color="#116FFF" style="fill:#100E0E"/><path d="m19.999 55.496c-.092 0-.184-.013-.275-.038-.531-.152-.839-.706-.688-1.236l2-6.998c.152-.532.711-.832 1.236-.688.531.152.839.706.688 1.236l-2 6.998c-.126.44-.526.726-.961.726z" data-original="#116FFF" class="" data-old_color="#116FFF" style="fill:#100E0E"/><path d="m35.995 55.496c-.435 0-.835-.286-.961-.726l-2-6.998c-.151-.53.156-1.084.688-1.236.527-.145 1.084.155 1.236.688l2 6.998c.151.53-.156 1.084-.688 1.236-.091.025-.183.038-.275.038z" data-original="#116FFF" class="" data-old_color="#116FFF" style="fill:#100E0E"/><path d="m15.998 57.496c-.553 0-1-.447-1-1 0-1.654 1.346-3 3-3 .553 0 1 .447 1 1s-.447 1-1 1c-.552 0-1 .448-1 1 0 .553-.447 1-1 1z" data-original="#116FFF" class="" data-old_color="#116FFF" style="fill:#100E0E"/><path d="m39.996 57.496c-.553 0-1-.447-1-1 0-.552-.448-1-1-1-.553 0-1-.447-1-1s.447-1 1-1c1.654 0 3 1.346 3 3 0 .553-.447 1-1 1z" data-original="#116FFF" class="" data-old_color="#116FFF" style="fill:#100E0E"/><path d="m37.996 55.496h-19.998c-.553 0-1-.447-1-1s.447-1 1-1h19.998c.553 0 1 .447 1 1s-.447 1-1 1z" data-original="#116FFF" class="" data-old_color="#116FFF" style="fill:#100E0E"/><path d="m15.998 58.496c-.553 0-1-.447-1-1v-1c0-.553.447-1 1-1s1 .447 1 1v1c0 .553-.447 1-1 1z" data-original="#116FFF" class="" data-old_color="#116FFF" style="fill:#100E0E"/><path d="m39.996 58.496h-23.998c-.553 0-1-.447-1-1s.447-1 1-1h23.998c.553 0 1 .447 1 1s-.447 1-1 1z" data-original="#116FFF" class="" data-old_color="#116FFF" style="fill:#100E0E"/><path d="m39.996 58.496c-.553 0-1-.447-1-1v-1c0-.553.447-1 1-1s1 .447 1 1v1c0 .553-.447 1-1 1z" data-original="#116FFF" class="" data-old_color="#116FFF" style="fill:#100E0E"/><path d="m47 32.498h-42c-.553 0-1-.447-1-1s.447-1 1-1h42c.553 0 1 .447 1 1s-.447 1-1 1z" data-original="#116FFF" class="" data-old_color="#116FFF" style="fill:#100E0E"/><path d="m47 36.502h-42c-.553 0-1-.447-1-1s.447-1 1-1h42c.553 0 1 .447 1 1s-.447 1-1 1z" data-original="#116FFF" class="" data-old_color="#116FFF" style="fill:#100E0E"/><path d="m47 40.506h-42c-.553 0-1-.447-1-1s.447-1 1-1h42c.553 0 1 .447 1 1s-.447 1-1 1z" data-original="#116FFF" class="" data-old_color="#116FFF" style="fill:#100E0E"/><path d="m61 58.498h-11.998c-1.654 0-3-1.346-3-3v-26.002c0-1.654 1.346-3 3-3h11.998c1.654 0 3 1.346 3 3v26.002c0 1.654-1.346 3-3 3zm-11.998-30.002c-.552 0-1 .448-1 1v26.002c0 .552.448 1 1 1h11.998c.552 0 1-.448 1-1v-26.002c0-.552-.448-1-1-1z" data-original="#116FFF" class="" data-old_color="#116FFF" style="fill:#100E0E"/><path d="m63 54.498h-15.998c-.553 0-1-.447-1-1s.447-1 1-1h15.998c.553 0 1 .447 1 1s-.447 1-1 1z" data-original="#116FFF" class="" data-old_color="#116FFF" style="fill:#100E0E"/><path d="m50.998 28.496h-45.998c-.553 0-1-.447-1-1v-16.998c0-.553.447-1 1-1h45.998c.553 0 1 .447 1 1v16.998c0 .553-.447 1-1 1zm-44.998-2h43.998v-14.998h-43.998z" data-original="#116FFF" class="" data-old_color="#116FFF" style="fill:#100E0E"/><path d="m44.993 28.496c-.29 0-.577-.125-.774-.367l-8.998-10.996c-.351-.427-.287-1.057.141-1.406.427-.352 1.058-.287 1.406.141l8.998 10.996c.351.427.287 1.057-.141 1.406-.186.152-.409.226-.632.226z" data-original="#116FFF" class="" data-old_color="#116FFF" style="fill:#100E0E"/><path d="m26.993 28.496c-.223 0-.446-.074-.632-.227-.428-.35-.491-.979-.141-1.406l8.998-10.996c.349-.428.979-.491 1.406-.141.428.35.491.979.141 1.406l-8.998 10.996c-.197.243-.484.368-.774.368z" data-original="#116FFF" class="" data-old_color="#116FFF" style="fill:#100E0E"/><path d="m30.505 24.207c-.291 0-.579-.126-.777-.369l-3.012-3.707c-.348-.429-.283-1.059.146-1.407.43-.349 1.058-.282 1.407.146l3.012 3.707c.348.429.283 1.059-.146 1.407-.186.15-.409.223-.63.223z" data-original="#116FFF" class="" data-old_color="#116FFF" style="fill:#100E0E"/><path d="m20.991 28.5c-.222 0-.444-.073-.63-.224-.429-.349-.493-.979-.146-1.407l6.5-8c.35-.429.979-.493 1.407-.146.429.349.493.979.146 1.407l-6.5 8c-.198.244-.486.37-.777.37z" data-original="#116FFF" class="" data-old_color="#116FFF" style="fill:#100E0E"/><path d="m15.004 19.498c-1.654 0-3-1.346-3-3s1.346-3 3-3 3 1.346 3 3-1.346 3-3 3zm0-4c-.552 0-1 .448-1 1s.448 1 1 1 1-.448 1-1-.448-1-1-1z" data-original="#116FFF" class="" data-old_color="#116FFF" style="fill:#100E0E"/><path d="m63 42.496h-15.998c-.553 0-1-.447-1-1s.447-1 1-1h15.998c.553 0 1 .447 1 1s-.447 1-1 1z" data-original="#116FFF" class="" data-old_color="#116FFF" style="fill:#100E0E"/><path d="m61.999 42.496c-.323 0-.641-.156-.833-.445l-4-6.002c-.307-.46-.182-1.08.277-1.387.46-.306 1.081-.183 1.387.277l4 6.002c.307.46.182 1.08-.277 1.387-.171.113-.364.168-.554.168z" data-original="#116FFF" class="" data-old_color="#116FFF" style="fill:#100E0E"/><path d="m53.997 42.496c-.19 0-.383-.055-.554-.168-.459-.307-.584-.927-.277-1.387l4-6.002c.306-.46.925-.583 1.387-.277.459.307.584.927.277 1.387l-4 6.002c-.192.289-.51.445-.833.445z" data-original="#116FFF" class="" data-old_color="#116FFF" style="fill:#100E0E"/><path d="m55.501 40.246c-.323 0-.641-.156-.833-.445l-1.5-2.25c-.307-.46-.183-1.08.277-1.387s1.08-.183 1.387.277l1.5 2.25c.307.46.183 1.08-.277 1.387-.171.113-.364.168-.554.168z" data-original="#116FFF" class="" data-old_color="#116FFF" style="fill:#100E0E"/><path d="m50.999 42.496c-.19 0-.383-.055-.554-.168-.46-.307-.584-.927-.277-1.387l3-4.5c.305-.46.926-.584 1.387-.277.46.307.584.927.277 1.387l-3 4.5c-.192.289-.51.445-.833.445z" data-original="#116FFF" class="" data-old_color="#116FFF" style="fill:#100E0E"/><path d="m50.03 35.494c-.553 0-1.005-.447-1.005-1s.442-1 .994-1h.011c.552 0 1 .447 1 1s-.448 1-1 1z" data-original="#116FFF" class="" data-old_color="#116FFF" style="fill:#100E0E"/><path d="m55.028 56.498c-.553 0-1.005-.447-1.005-1s.442-1 .994-1h.011c.552 0 1 .447 1 1s-.448 1-1 1z" data-original="#116FFF" class="" data-old_color="#116FFF" style="fill:#100E0E"/><path d="m59.998 48.498h-10c-.553 0-1-.447-1-1s.447-1 1-1h10c.553 0 1 .447 1 1s-.447 1-1 1z" data-original="#116FFF" class="" data-old_color="#116FFF" style="fill:#100E0E"/><path d="m59.998 45.498h-10c-.553 0-1-.447-1-1s.447-1 1-1h10c.553 0 1 .447 1 1s-.447 1-1 1z" data-original="#116FFF" class="" data-old_color="#116FFF" style="fill:#100E0E"/><path d="m59.998 51.498h-10c-.553 0-1-.447-1-1s.447-1 1-1h10c.553 0 1 .447 1 1s-.447 1-1 1z" data-original="#116FFF" class="" data-old_color="#116FFF" style="fill:#100E0E"/><path d="m63 32.498h-16c-.553 0-1-.447-1-1s.447-1 1-1h16c.553 0 1 .447 1 1s-.447 1-1 1z" data-original="#116FFF" class="" data-old_color="#116FFF" style="fill:#100E0E"/></g></g> </svg>
