<?xml version="1.0"?>
<svg xmlns="http://www.w3.org/2000/svg" id="icons" enable-background="new 0 0 64 64" height="512px" viewBox="0 0 64 64" width="512px" class=""><g><path d="m53.99 11.5h-52.99v-2c0-1.11.89-2 2-2h48.99c1.109 0 2 .89 2 2z" fill="#d7e9ff" data-original="#D7E9FF" class="" style="fill:#FED706" data-old_color="#d7e9ff"/><circle cx="54" cy="47.5" fill="#94c1ff" r="1.5" data-original="#94C1FF" class="active-path" style="fill:#B59408" data-old_color="#94c1ff"/><path d="m53.99 38.5c1.529 0 3.08.39 4.5 1.2 0 .01.01.01.01.01 1.41.811 2.52 1.96 3.28 3.28.8 1.359 1.22 2.92 1.22 4.5 0 1.53-.39 3.09-1.21 4.51-2.48 4.3-7.99 5.78-12.29 3.29-2.88-1.66-4.49-4.68-4.5-7.78 0-.01 0-.01 0-.02 0-1.53.38-3.061 1.2-4.48v-.01c.819-1.41 1.97-2.53 3.29-3.29 1.37-.79 2.92-1.21 4.5-1.21zm.01 7.5c-.83 0-1.5.67-1.5 1.5s.67 1.5 1.5 1.5 1.5-.67 1.5-1.5-.67-1.5-1.5-1.5z" fill="#d7e9ff" data-original="#D7E9FF" class="" style="fill:#FED706" data-old_color="#d7e9ff"/><path d="m31 37.5h8.99v3h-8.99z" fill="#94c1ff" data-original="#94C1FF" class="active-path" style="fill:#B59408" data-old_color="#94c1ff"/><path d="m53.99 11.5v27c-1.58 0-3.13.42-4.5 1.21-1.32.76-2.471 1.88-3.29 3.29v.01c-.82 1.42-1.2 2.95-1.2 4.48h-44v-35.99zm-14 29v-3h-8.99v3zm-12.99 3.01v-28.01h-22v28.01h1 5z" fill="#fff" data-original="#FFF" class="" data-old_color="#fff" style="fill:#FFEC67"/><path d="m12 36.5 2.38 2.78-3.38 4.23h-5v-.01z" fill="#d7e9ff" data-original="#D7E9FF" class="" style="fill:#FED706" data-old_color="#d7e9ff"/><path d="m19 33.5 8 10.01h-16l3.38-4.23z" fill="#fff" data-original="#FFF" class="" data-old_color="#fff" style="fill:#FFEC67"/><path d="m10.5 20.5c.83 0 1.5.67 1.5 1.5s-.67 1.5-1.5 1.5c-.82 0-1.5-.68-1.5-1.5 0-.83.68-1.5 1.5-1.5z" fill="#fff" data-original="#FFF" class="" data-old_color="#fff" style="fill:#FFEC67"/><path d="m6 43.5v.01h-1v-28.01h22v28.01l-8-10.01-4.62 5.78-2.38-2.78zm6-21.5c0-.83-.67-1.5-1.5-1.5-.82 0-1.5.67-1.5 1.5 0 .82.68 1.5 1.5 1.5.83 0 1.5-.67 1.5-1.5z" fill="#94c1ff" data-original="#94C1FF" class="active-path" style="fill:#B59408" data-old_color="#94c1ff"/><g fill="#116fff"><path d="m1 10.5c-.553 0-1-.448-1-1 0-1.654 1.346-3 3-3 .553 0 1 .448 1 1s-.447 1-1 1c-.552 0-1 .449-1 1 0 .552-.447 1-1 1z" data-original="#116FFF" class="" data-old_color="#116FFF" style="fill:#100E0E"/><path d="m53.99 10.5c-.553 0-1-.448-1-1 0-.551-.448-1-1-1-.553 0-1-.448-1-1s.447-1 1-1c1.654 0 3 1.346 3 3 0 .552-.447 1-1 1z" data-original="#116FFF" class="" data-old_color="#116FFF" style="fill:#100E0E"/><path d="m51.99 8.5h-48.99c-.553 0-1-.448-1-1s.447-1 1-1h48.99c.553 0 1 .448 1 1s-.447 1-1 1z" data-original="#116FFF" class="" data-old_color="#116FFF" style="fill:#100E0E"/><path d="m4.03 10.5c-.553 0-1.005-.448-1.005-1s.442-1 .994-1h.011c.552 0 1 .448 1 1s-.448 1-1 1z" data-original="#116FFF" class="" data-old_color="#116FFF" style="fill:#100E0E"/><path d="m7.028 10.5c-.553 0-1.005-.448-1.005-1s.442-1 .994-1h.011c.552 0 1 .448 1 1s-.448 1-1 1z" data-original="#116FFF" class="" data-old_color="#116FFF" style="fill:#100E0E"/><path d="m10.032 10.5c-.553 0-1.005-.448-1.005-1s.442-1 .994-1h.011c.552 0 1 .448 1 1s-.448 1-1 1z" data-original="#116FFF" class="" data-old_color="#116FFF" style="fill:#100E0E"/><path d="m1 48.489c-.553 0-1-.447-1-1v-37.989c0-.552.447-1 1-1s1 .448 1 1v37.99c0 .552-.447.999-1 .999z" data-original="#116FFF" class="" data-old_color="#116FFF" style="fill:#100E0E"/><path d="m53.99 39.498c-.553 0-1-.447-1-1v-28.998c0-.552.447-1 1-1s1 .448 1 1v28.999c0 .552-.447.999-1 .999z" data-original="#116FFF" class="" data-old_color="#116FFF" style="fill:#100E0E"/><path d="m53.99 12.5h-52.99c-.553 0-1-.448-1-1s.447-1 1-1h52.99c.553 0 1 .448 1 1s-.447 1-1 1z" data-original="#116FFF" class="" data-old_color="#116FFF" style="fill:#100E0E"/><path d="m45 48.489h-44c-.553 0-1-.447-1-1s.447-1 1-1h44c.553 0 1 .447 1 1s-.447 1-1 1z" data-original="#116FFF" class="" data-old_color="#116FFF" style="fill:#100E0E"/><path d="m26.996 44.505h-21.994c-.553 0-1-.447-1-1v-28.004c0-.552.447-1 1-1h21.994c.553 0 1 .448 1 1v28.003c0 .554-.447 1.001-1 1.001zm-20.994-2h19.994v-26.004h-19.994z" data-original="#116FFF" class="" data-old_color="#116FFF" style="fill:#100E0E"/><path d="m26.997 44.505c-.294 0-.585-.129-.782-.376l-7.996-10.006c-.345-.432-.274-1.061.157-1.405.43-.346 1.062-.274 1.405.157l7.996 10.006c.345.432.274 1.061-.157 1.405-.183.148-.404.219-.623.219z" data-original="#116FFF" class="" data-old_color="#116FFF" style="fill:#100E0E"/><path d="m11.003 44.505c-.219 0-.438-.071-.623-.219-.432-.345-.502-.974-.157-1.405l7.994-10.006c.344-.431.974-.503 1.405-.157.432.345.502.974.157 1.405l-7.994 10.006c-.197.247-.488.376-.782.376z" data-original="#116FFF" class="" data-old_color="#116FFF" style="fill:#100E0E"/><path d="m14.385 40.279c-.281 0-.562-.118-.76-.35l-2.383-2.781c-.359-.419-.311-1.051.109-1.41.419-.357 1.051-.312 1.41.109l2.383 2.781c.359.419.311 1.051-.109 1.41-.188.162-.42.241-.65.241z" data-original="#116FFF" class="" data-old_color="#116FFF" style="fill:#100E0E"/><path d="m6 44.498c-.23 0-.462-.079-.65-.241-.42-.359-.469-.99-.108-1.409l6-7c.359-.421.991-.468 1.409-.108.42.359.469.99.108 1.409l-6 7c-.197.231-.478.349-.759.349z" data-original="#116FFF" class="" data-old_color="#116FFF" style="fill:#100E0E"/><path d="m10.504 24.496c-1.379 0-2.5-1.122-2.5-2.5s1.121-2.5 2.5-2.5 2.5 1.122 2.5 2.5-1.121 2.5-2.5 2.5zm0-3c-.275 0-.5.224-.5.5s.225.5.5.5.5-.224.5-.5-.225-.5-.5-.5z" data-original="#116FFF" class="" data-old_color="#116FFF" style="fill:#100E0E"/><path d="m50.02 19.498h-18.995c-.553 0-1-.448-1-1s.447-1 1-1h18.995c.553 0 1 .448 1 1s-.448 1-1 1z" data-original="#116FFF" class="" data-old_color="#116FFF" style="fill:#100E0E"/><path d="m50.02 22.498h-18.995c-.553 0-1-.448-1-1s.447-1 1-1h18.995c.553 0 1 .448 1 1s-.448 1-1 1z" data-original="#116FFF" class="" data-old_color="#116FFF" style="fill:#100E0E"/><path d="m50.02 25.498h-18.995c-.553 0-1-.448-1-1s.447-1 1-1h18.995c.553 0 1 .448 1 1s-.448 1-1 1z" data-original="#116FFF" class="" data-old_color="#116FFF" style="fill:#100E0E"/><path d="m50.02 28.501h-18.995c-.553 0-1-.448-1-1s.447-1 1-1h18.995c.553 0 1 .448 1 1s-.448 1-1 1z" data-original="#116FFF" class="" data-old_color="#116FFF" style="fill:#100E0E"/><path d="m50.02 31.507h-18.995c-.553 0-1-.448-1-1s.447-1 1-1h18.995c.553 0 1 .448 1 1s-.448 1-1 1z" data-original="#116FFF" class="" data-old_color="#116FFF" style="fill:#100E0E"/><path d="m40.01 34.499h-8.984c-.553 0-1-.447-1-1 0-.552.447-1 1-1h8.984c.553 0 1 .448 1 1 0 .553-.447 1-1 1z" data-original="#116FFF" class="" data-old_color="#116FFF" style="fill:#100E0E"/><path d="m39.994 41.496h-8.998c-.553 0-1-.447-1-1v-3c0-.553.447-1 1-1h8.998c.553 0 1 .447 1 1v3c0 .553-.447 1-1 1zm-7.998-2h6.998v-1h-6.998z" data-original="#116FFF" class="" data-old_color="#116FFF" style="fill:#100E0E"/><path d="m53.998 49.998c-1.379 0-2.5-1.121-2.5-2.5s1.121-2.5 2.5-2.5 2.5 1.121 2.5 2.5-1.121 2.5-2.5 2.5zm0-3c-.275 0-.5.225-.5.5s.225.5.5.5.5-.225.5-.5-.225-.5-.5-.5z" data-original="#116FFF" class="" data-old_color="#116FFF" style="fill:#100E0E"/><path d="m54 46.998c-.553 0-1-.447-1-1v-3.497c0-.553.447-1 1-1s1 .447 1 1v3.497c0 .553-.447 1-1 1z" data-original="#116FFF" class="" data-old_color="#116FFF" style="fill:#100E0E"/><path d="m53.99 40.501c-.553 0-1-.447-1-1v-1.003c0-.553.447-1 1-1s1 .447 1 1v1.003c0 .553-.447 1-1 1z" data-original="#116FFF" class="" data-old_color="#116FFF" style="fill:#100E0E"/><path d="m49.993 41.576c-.346 0-.683-.18-.867-.501l-.5-.868c-.276-.479-.111-1.09.367-1.365.479-.277 1.091-.111 1.365.367l.5.868c.276.479.111 1.09-.367 1.365-.157.091-.329.134-.498.134z" data-original="#116FFF" class="" data-old_color="#116FFF" style="fill:#100E0E"/><path d="m47.067 44.507c-.17 0-.342-.043-.499-.134l-.869-.502c-.479-.276-.643-.888-.366-1.366.276-.479.888-.643 1.366-.366l.869.502c.479.276.643.888.366 1.366-.185.321-.521.5-.867.5z" data-original="#116FFF" class="" data-old_color="#116FFF" style="fill:#100E0E"/><path d="m46.002 48.507h-1.004c-.553 0-1-.447-1-1s.447-1 1-1h1.004c.553 0 1 .447 1 1s-.447 1-1 1z" data-original="#116FFF" class="" data-old_color="#116FFF" style="fill:#100E0E"/><path d="m63 48.491h-1.004c-.553 0-1-.447-1-1s.447-1 1-1h1.004c.553 0 1 .447 1 1s-.447 1-1 1z" data-original="#116FFF" class="" data-old_color="#116FFF" style="fill:#100E0E"/><path d="m60.923 44.493c-.346 0-.682-.179-.867-.5-.276-.479-.112-1.09.366-1.366l.869-.502c.477-.275 1.089-.113 1.366.366.276.479.112 1.09-.366 1.366l-.869.502c-.157.091-.329.134-.499.134z" data-original="#116FFF" class="" data-old_color="#116FFF" style="fill:#100E0E"/><path d="m53.99 57.5c-1.746 0-3.473-.464-4.992-1.341-4.774-2.757-6.417-8.885-3.661-13.66 1.782-3.085 5.104-5.002 8.671-5.002 1.745 0 3.472.464 4.992 1.341 4.773 2.759 6.415 8.887 3.659 13.661-1.782 3.085-5.103 5.001-8.669 5.001zm.018-18.003c-2.854 0-5.513 1.534-6.938 4.002-2.205 3.82-.891 8.723 2.929 10.928 1.216.702 2.597 1.073 3.992 1.073 2.854 0 5.511-1.533 6.937-4.001 2.204-3.819.89-8.723-2.928-10.929-1.217-.702-2.597-1.073-3.992-1.073z" data-original="#116FFF" class="" data-old_color="#116FFF" style="fill:#100E0E"/><path d="m57.989 41.568c-.17 0-.343-.043-.5-.135-.479-.276-.642-.889-.364-1.366l.504-.87c.277-.479.89-.644 1.366-.364.479.276.642.889.364 1.366l-.504.87c-.185.321-.521.499-.866.499z" data-original="#116FFF" class="" data-old_color="#116FFF" style="fill:#100E0E"/></g></g> </svg>
