<?xml version="1.0"?>
<svg xmlns="http://www.w3.org/2000/svg" id="icons" enable-background="new 0 0 64 64" height="512px" viewBox="0 0 64 64" width="512px" class=""><g><path d="m63 25.995v16.01h-12.01-18.98v-16.01h18.96z" fill="#fff" data-original="#FFF" class="active-path" data-old_color="#fff" style="fill:#FED706"/><path d="m50.97 12.005v2h-49.95-.02v-2c0-1.11.9-2 2-2h45.97c1.11 0 2 .89 2 2z" fill="#d7e9ff" data-original="#D7E9FF" class="" style="fill:#FFEC67" data-old_color="#d7e9ff"/><path d="m50.99 42.015v11.98h-49.97v-39.99h49.95v11.99h-18.96v16.01h18.98z" fill="#94c1ff" data-original="#94C1FF" class="" style="fill:#FDF19E" data-old_color="#94c1ff"/><path d="m1.01 14.005h3v39.99h-3z" fill="#5c9eff" data-original="#5C9EFF" class="" style="fill:#B59408" data-old_color="#5c9eff"/><path d="m12.004 25.999h20.006v16.006h-20.006z" fill="#5c9eff" data-original="#5C9EFF" class="" style="fill:#B59408" data-old_color="#5c9eff"/><g fill="#116fff"><path d="m4 55c-.553 0-1-.447-1-1v-39.994c0-.553.447-1 1-1s1 .447 1 1v39.994c0 .553-.447 1-1 1z" data-original="#116FFF" class="" data-old_color="#116FFF" style="fill:#100E0E"/><path d="m4.03 13.003c-.553 0-1.005-.447-1.005-1s.442-1 .994-1h.011c.552 0 1 .447 1 1s-.448 1-1 1z" data-original="#116FFF" class="" data-old_color="#116FFF" style="fill:#100E0E"/><path d="m7.03 13.003c-.553 0-1.005-.447-1.005-1s.442-1 .994-1h.011c.552 0 1 .447 1 1s-.448 1-1 1z" data-original="#116FFF" class="" data-old_color="#116FFF" style="fill:#100E0E"/><path d="m10.03 13.003c-.553 0-1.005-.447-1.005-1s.442-1 .994-1h.011c.552 0 1 .447 1 1s-.448 1-1 1z" data-original="#116FFF" class="" data-old_color="#116FFF" style="fill:#100E0E"/><path d="m50.985 54.997h-49.967c-.553 0-1-.447-1-1v-39.994c0-.553.447-1 1-1h49.968c.553 0 1 .447 1 1s-.447 1-1 1h-48.968v37.994h48.968c.553 0 1 .447 1 1s-.448 1-1.001 1z" data-original="#116FFF" class="" data-old_color="#116FFF" style="fill:#100E0E"/><path d="m1 13.003c-.553 0-1-.447-1-1 0-1.654 1.346-3 3-3 .553 0 1 .447 1 1s-.447 1-1 1c-.552 0-1 .448-1 1 0 .553-.447 1-1 1z" data-original="#116FFF" class="" data-old_color="#116FFF" style="fill:#100E0E"/><path d="m1 15.003c-.553 0-1-.447-1-1v-2c0-.553.447-1 1-1s1 .447 1 1v2c0 .553-.447 1-1 1z" data-original="#116FFF" class="" data-old_color="#116FFF" style="fill:#100E0E"/><path d="m50.968 13.003c-.553 0-1-.447-1-1 0-.552-.448-1-1-1-.553 0-1-.447-1-1s.447-1 1-1c1.654 0 3 1.346 3 3 0 .553-.447 1-1 1z" data-original="#116FFF" class="" data-old_color="#116FFF" style="fill:#100E0E"/><path d="m50.968 26.999c-.553 0-1-.447-1-1v-13.996c0-.553.447-1 1-1s1 .447 1 1v13.996c0 .553-.447 1-1 1z" data-original="#116FFF" class="" data-old_color="#116FFF" style="fill:#100E0E"/><path d="m48.968 11.003h-45.968c-.553 0-1-.447-1-1s.447-1 1-1h45.968c.553 0 1 .447 1 1s-.447 1-1 1z" data-original="#116FFF" class="" data-old_color="#116FFF" style="fill:#100E0E"/><path d="m27.006 18.999h-19.002c-.553 0-1-.447-1-1s.447-1 1-1h19.002c.553 0 1 .447 1 1s-.447 1-1 1z" data-original="#116FFF" class="" data-old_color="#116FFF" style="fill:#100E0E"/><path d="m30.006 22.999h-20.002c-.553 0-1-.447-1-1s.447-1 1-1h20.002c.553 0 1 .447 1 1s-.447 1-1 1z" data-original="#116FFF" class="" data-old_color="#116FFF" style="fill:#100E0E"/><path d="m24.008 47.015h-14.004c-.553 0-1-.447-1-1s.447-1 1-1h14.004c.553 0 1 .447 1 1s-.447 1-1 1z" data-original="#116FFF" class="" data-old_color="#116FFF" style="fill:#100E0E"/><path d="m36.006 22.999h-2c-.553 0-1-.447-1-1s.447-1 1-1h2c.553 0 1 .447 1 1s-.447 1-1 1z" data-original="#116FFF" class="" data-old_color="#116FFF" style="fill:#100E0E"/><path d="m14.004 51.003h-6c-.553 0-1-.447-1-1s.447-1 1-1h6c.553 0 1 .447 1 1s-.447 1-1 1z" data-original="#116FFF" class="" data-old_color="#116FFF" style="fill:#100E0E"/><path d="m59.014 30.999h-23.002c-.553 0-1-.447-1-1s.447-1 1-1h23.002c.553 0 1 .447 1 1s-.448 1-1 1z" data-original="#116FFF" class="" data-old_color="#116FFF" style="fill:#100E0E"/><path d="m51.016 34.999h-13.002c-.553 0-1-.447-1-1s.447-1 1-1h13.002c.553 0 1 .447 1 1s-.448 1-1 1z" data-original="#116FFF" class="" data-old_color="#116FFF" style="fill:#100E0E"/><path d="m53.008 38.999h-9.995c-.553 0-1-.447-1-1s.447-1 1-1h9.995c.553 0 1 .447 1 1s-.447 1-1 1z" data-original="#116FFF" class="" data-old_color="#116FFF" style="fill:#100E0E"/><path d="m39.013 38.999h-3.001c-.553 0-1-.447-1-1s.447-1 1-1h3.001c.553 0 1 .447 1 1s-.448 1-1 1z" data-original="#116FFF" class="" data-old_color="#116FFF" style="fill:#100E0E"/><path d="m63 43.007h-30.992c-.553 0-1-.447-1-1v-16.008c0-.553.447-1 1-1h30.992c.553 0 1 .447 1 1v16.008c0 .553-.447 1-1 1zm-29.992-2h28.992v-14.008h-28.992z" data-original="#116FFF" class="" data-old_color="#116FFF" style="fill:#100E0E"/><path d="m12.034 26.999c-.553 0-1.005-.447-1.005-1s.442-1 .994-1h.011c.552 0 1 .447 1 1s-.448 1-1 1z" data-original="#116FFF" class="" data-old_color="#116FFF" style="fill:#100E0E"/><path d="m12.034 30.997c-.553 0-1.005-.447-1.005-1s.442-1 .994-1h.011c.552 0 1 .447 1 1s-.448 1-1 1z" data-original="#116FFF" class="" data-old_color="#116FFF" style="fill:#100E0E"/><path d="m12.034 34.995c-.553 0-1.005-.447-1.005-1s.442-1 .994-1h.011c.552 0 1 .447 1 1s-.448 1-1 1z" data-original="#116FFF" class="" data-old_color="#116FFF" style="fill:#100E0E"/><path d="m12.034 38.993c-.553 0-1.005-.447-1.005-1s.442-1 .994-1h.011c.552 0 1 .447 1 1s-.448 1-1 1z" data-original="#116FFF" class="" data-old_color="#116FFF" style="fill:#100E0E"/><path d="m16.034 26.999c-.553 0-1.005-.447-1.005-1s.442-1 .994-1h.011c.552 0 1 .447 1 1s-.448 1-1 1z" data-original="#116FFF" class="" data-old_color="#116FFF" style="fill:#100E0E"/><path d="m20.034 26.999c-.553 0-1.005-.447-1.005-1s.442-1 .994-1h.011c.552 0 1 .447 1 1s-.448 1-1 1z" data-original="#116FFF" class="" data-old_color="#116FFF" style="fill:#100E0E"/><path d="m24.034 26.999c-.553 0-1.005-.447-1.005-1s.442-1 .994-1h.011c.552 0 1 .447 1 1s-.448 1-1 1z" data-original="#116FFF" class="" data-old_color="#116FFF" style="fill:#100E0E"/><path d="m28.034 26.999c-.553 0-1.005-.447-1.005-1s.442-1 .994-1h.011c.552 0 1 .447 1 1s-.448 1-1 1z" data-original="#116FFF" class="" data-old_color="#116FFF" style="fill:#100E0E"/><path d="m12.034 43.015c-.553 0-1.005-.447-1.005-1s.442-1 .994-1h.011c.552 0 1 .447 1 1s-.448 1-1 1z" data-original="#116FFF" class="" data-old_color="#116FFF" style="fill:#100E0E"/><path d="m16.034 43.015c-.553 0-1.005-.447-1.005-1s.442-1 .994-1h.011c.552 0 1 .447 1 1s-.448 1-1 1z" data-original="#116FFF" class="" data-old_color="#116FFF" style="fill:#100E0E"/><path d="m20.034 43.015c-.553 0-1.005-.447-1.005-1s.442-1 .994-1h.011c.552 0 1 .447 1 1s-.448 1-1 1z" data-original="#116FFF" class="" data-old_color="#116FFF" style="fill:#100E0E"/><path d="m24.034 43.015c-.553 0-1.005-.447-1.005-1s.442-1 .994-1h.011c.552 0 1 .447 1 1s-.448 1-1 1z" data-original="#116FFF" class="" data-old_color="#116FFF" style="fill:#100E0E"/><path d="m28.034 43.015c-.553 0-1.005-.447-1.005-1s.442-1 .994-1h.011c.552 0 1 .447 1 1s-.448 1-1 1z" data-original="#116FFF" class="" data-old_color="#116FFF" style="fill:#100E0E"/><path d="m24 34.997h-3.998c-.553 0-1-.447-1-1s.447-1 1-1h3.998c.553 0 1 .447 1 1s-.447 1-1 1z" data-original="#116FFF" class="" data-old_color="#116FFF" style="fill:#100E0E"/><path d="m22 36.996c-.553 0-1-.447-1-1v-3.998c0-.553.447-1 1-1s1 .447 1 1v3.998c0 .553-.447 1-1 1z" data-original="#116FFF" class="" data-old_color="#116FFF" style="fill:#100E0E"/><path d="m50.985 54.997c-.553 0-1-.447-1-1v-11.982c0-.553.447-1 1-1s1 .447 1 1v11.982c0 .553-.447 1-1 1z" data-original="#116FFF" class="" data-old_color="#116FFF" style="fill:#100E0E"/></g></g> </svg>
