<?xml version="1.0"?>
<svg xmlns="http://www.w3.org/2000/svg" id="icons" enable-background="new 0 0 64 64" height="512px" viewBox="0 0 64 64" width="512px" class=""><g><path d="m8.004 18.998h19.002c.553 0 1-.447 1-1s-.447-1-1-1h-19.002c-.553 0-1 .447-1 1s.447 1 1 1z" data-original="#000000" class="active-path" data-old_color="#000000" fill="#FED706"/><path d="m30.006 20.998h-20.002c-.553 0-1 .447-1 1s.447 1 1 1h20.002c.553 0 1-.447 1-1s-.447-1-1-1z" data-original="#000000" class="active-path" data-old_color="#000000" fill="#FED706"/><path d="m24.008 45.014h-14.004c-.553 0-1 .447-1 1s.447 1 1 1h14.004c.553 0 1-.447 1-1s-.447-1-1-1z" data-original="#000000" class="active-path" data-old_color="#000000" fill="#FED706"/><path d="m34.006 22.998h2c.553 0 1-.447 1-1s-.447-1-1-1h-2c-.553 0-1 .447-1 1s.447 1 1 1z" data-original="#000000" class="active-path" data-old_color="#000000" fill="#FED706"/><path d="m14.004 49.002h-6c-.553 0-1 .447-1 1s.447 1 1 1h6c.553 0 1-.447 1-1s-.447-1-1-1z" data-original="#000000" class="active-path" data-old_color="#000000" fill="#FED706"/><path d="m35.012 29.998c0 .553.447 1 1 1h23.002c.553 0 1-.447 1-1s-.447-1-1-1h-23.002c-.553 0-1 .447-1 1z" data-original="#000000" class="active-path" data-old_color="#000000" fill="#FED706"/><path d="m51.016 34.998c.553 0 1-.447 1-1s-.447-1-1-1h-13.002c-.553 0-1 .447-1 1s.447 1 1 1z" data-original="#000000" class="active-path" data-old_color="#000000" fill="#FED706"/><path d="m53.008 36.998h-9.995c-.553 0-1 .447-1 1s.447 1 1 1h9.995c.553 0 1-.447 1-1s-.447-1-1-1z" data-original="#000000" class="active-path" data-old_color="#000000" fill="#FED706"/><path d="m39.013 36.998h-3.001c-.553 0-1 .447-1 1s.447 1 1 1h3.001c.553 0 1-.447 1-1s-.448-1-1-1z" data-original="#000000" class="active-path" data-old_color="#000000" fill="#FED706"/><path d="m63 24.998h-11.032v-10.909c.003-.03.018-.056.018-.087s-.015-.057-.018-.087v-1.913c0-1.654-1.346-3-3-3h-45.968c-1.654 0-3 1.346-3 3v2c0 .031.015.057.018.087v39.907c0 .553.447 1 1 1h2.972c.004 0 .006.002.01.002s.006-.002.01-.002h46.976c.553 0 1-.447 1-1v-10.99h11.014c.553 0 1-.447 1-1v-16.008c0-.553-.447-1-1-1zm-60-13.996h1.02c-.552 0-.994.447-.994 1s.452 1 1.005 1c.552 0 1-.447 1-1s-.448-1-1-1h2.989c-.552 0-.994.447-.994 1s.452 1 1.005 1c.552 0 1-.447 1-1s-.448-1-1-1h2.989c-.552 0-.994.447-.994 1s.452 1 1.005 1c.552 0 1-.447 1-1s-.448-1-1-1h38.938c.552 0 1 .448 1 1v1h-39.939-3-3-2.03v-1c0-.552.448-1 1-1zm-.982 4h.982v37.994h-.982zm47.967 37.994h-44.985v-37.994h44.968v9.996h-17.96c-.553 0-1 .447-1 1v16.008c0 .553.447 1 1 1h17.978v9.99zm12.015-11.99h-28.992v-14.008h28.992z" data-original="#000000" class="active-path" data-old_color="#000000" fill="#FED706"/><path d="m12.034 26.998c.552 0 1-.447 1-1s-.448-1-1-1h-.011c-.552 0-.994.447-.994 1s.452 1 1.005 1z" data-original="#000000" class="active-path" data-old_color="#000000" fill="#FED706"/><path d="m12.034 30.996c.552 0 1-.447 1-1s-.448-1-1-1h-.011c-.552 0-.994.447-.994 1s.452 1 1.005 1z" data-original="#000000" class="active-path" data-old_color="#000000" fill="#FED706"/><path d="m12.034 34.994c.552 0 1-.447 1-1s-.448-1-1-1h-.011c-.552 0-.994.447-.994 1s.452 1 1.005 1z" data-original="#000000" class="active-path" data-old_color="#000000" fill="#FED706"/><path d="m12.034 38.992c.552 0 1-.447 1-1s-.448-1-1-1h-.011c-.552 0-.994.447-.994 1s.452 1 1.005 1z" data-original="#000000" class="active-path" data-old_color="#000000" fill="#FED706"/><path d="m16.034 26.998c.552 0 1-.447 1-1s-.448-1-1-1h-.011c-.552 0-.994.447-.994 1s.452 1 1.005 1z" data-original="#000000" class="active-path" data-old_color="#000000" fill="#FED706"/><path d="m20.034 26.998c.552 0 1-.447 1-1s-.448-1-1-1h-.011c-.552 0-.994.447-.994 1s.452 1 1.005 1z" data-original="#000000" class="active-path" data-old_color="#000000" fill="#FED706"/><path d="m24.034 24.998h-.011c-.552 0-.994.447-.994 1s.452 1 1.005 1c.552 0 1-.447 1-1s-.448-1-1-1z" data-original="#000000" class="active-path" data-old_color="#000000" fill="#FED706"/><path d="m28.034 24.998h-.011c-.552 0-.994.447-.994 1s.452 1 1.005 1c.552 0 1-.447 1-1s-.448-1-1-1z" data-original="#000000" class="active-path" data-old_color="#000000" fill="#FED706"/><path d="m12.034 43.014c.552 0 1-.447 1-1s-.448-1-1-1h-.011c-.552 0-.994.447-.994 1s.452 1 1.005 1z" data-original="#000000" class="active-path" data-old_color="#000000" fill="#FED706"/><path d="m16.034 43.014c.552 0 1-.447 1-1s-.448-1-1-1h-.011c-.552 0-.994.447-.994 1s.452 1 1.005 1z" data-original="#000000" class="active-path" data-old_color="#000000" fill="#FED706"/><path d="m20.034 41.014h-.011c-.552 0-.994.447-.994 1s.452 1 1.005 1c.552 0 1-.447 1-1s-.448-1-1-1z" data-original="#000000" class="active-path" data-old_color="#000000" fill="#FED706"/><path d="m24.034 41.014h-.011c-.552 0-.994.447-.994 1s.452 1 1.005 1c.552 0 1-.447 1-1s-.448-1-1-1z" data-original="#000000" class="active-path" data-old_color="#000000" fill="#FED706"/><path d="m28.034 41.014h-.011c-.552 0-.994.447-.994 1s.452 1 1.005 1c.552 0 1-.447 1-1s-.448-1-1-1z" data-original="#000000" class="active-path" data-old_color="#000000" fill="#FED706"/><path d="m20.002 34.996h.998v.998c0 .553.447 1 1 1s1-.447 1-1v-.998h1c.553 0 1-.447 1-1s-.447-1-1-1h-1v-1c0-.553-.447-1-1-1s-1 .447-1 1v1h-.998c-.553 0-1 .447-1 1s.447 1 1 1z" data-original="#000000" class="active-path" data-old_color="#000000" fill="#FED706"/></g> </svg>
