<?xml version="1.0"?>
<svg xmlns="http://www.w3.org/2000/svg" id="Layer_5" enable-background="new 0 0 64 64" height="512px" viewBox="0 0 64 64" width="512px" class=""><g><path d="m12.617 62.591-2.345-9.378-9.403 2.35 8.699-14.196 1.705 1.045-6.142 10.025 6.597-1.65 1.655 6.622 6.774-11.335 1.717 1.026z" data-original="#000000" class="" style="fill:#100E0E" data-old_color="#000000"/><path d="m33.383 62.591-9.257-15.491 1.717-1.026 6.774 11.335 1.655-6.622 6.597 1.65-6.142-10.025 1.705-1.045 8.699 14.196-9.403-2.35z" data-original="#000000" class="" style="fill:#100E0E" data-old_color="#000000"/><path d="m23 41c-8.284 0-15-6.716-15-15s6.716-15 15-15c4.346 0 8.26 1.848 11 4.802v-8.855l-.044-.025c-1.823-1.053-4.033-1.038-5.833-.043-1.061-1.762-2.985-2.879-5.173-2.879-2.105 0-4.015 1.117-5.074 2.879-1.799-.998-4.01-1.009-5.832.043l-.088.051c-1.822 1.052-2.917 2.974-2.954 5.029-2.055.037-3.977 1.132-5.029 2.954l-.051.088c-1.052 1.822-1.038 4.034-.043 5.832-1.762 1.06-2.879 2.969-2.879 5.073v.101c0 2.105 1.117 4.015 2.879 5.074-.996 1.798-1.009 4.009.043 5.832l.051.088c1.053 1.822 2.975 2.917 5.029 2.954.037 2.055 1.132 3.977 2.954 5.029l.088.051c1.822 1.051 4.035 1.038 5.833.043 1.061 1.762 2.985 2.879 5.173 2.879 2.105 0 4.015-1.117 5.074-2.879 1.798.995 4.009 1.008 5.832-.043l.088-.051c1.822-1.053 2.917-2.975 2.954-5.029 2.056-.037 3.978-1.132 5.029-2.954l.051-.088c1.053-1.822 1.039-4.034.043-5.832 1.762-1.061 2.879-2.978 2.879-5.124h-7c0 8.284-6.716 15-15 15z" fill="#f0bc5e" data-original="#F0BC5E" class="active-path" style="fill:#FED706" data-old_color="#f0bc5e"/><path d="m55 9h-14v-7h14z" fill="#f0bc5e" data-original="#F0BC5E" class="active-path" style="fill:#FED706" data-old_color="#f0bc5e"/><path d="m17 26h-2c0-4.411 3.589-8 8-8v2c-3.309 0-6 2.691-6 6z" data-original="#000000" class="" style="fill:#100E0E" data-old_color="#000000"/><path d="m59 23h-10v-5h10z" fill="#f0bc5e" data-original="#F0BC5E" class="active-path" style="fill:#FED706" data-old_color="#f0bc5e"/><path d="m45 5h2v4h-2z" data-original="#000000" class="" style="fill:#100E0E" data-old_color="#000000"/><path d="m49 5h2v4h-2z" data-original="#000000" class="" style="fill:#100E0E" data-old_color="#000000"/><path d="m59 23h-2v-2h2zm-4 0h-2v-2h2zm-4 0h-2v-2h2z" data-original="#000000" class="" style="fill:#100E0E" data-old_color="#000000"/><path d="m49 17h10v2h-10z" data-original="#000000" class="" style="fill:#100E0E" data-old_color="#000000"/><path d="m60 1h-24c-1.654 0-3 1.346-3 3v9.539c-2.822-2.259-6.351-3.539-10-3.539-8.822 0-16 7.178-16 16s7.178 16 16 16c8.485 0 15.429-6.644 15.949-15h21.051c1.654 0 3-1.346 3-3v-20c0-1.654-1.346-3-3-3zm-37 39c-7.72 0-14-6.28-14-14s6.28-14 14-14c3.758 0 7.376 1.542 10 4.223v3.158c-2.151-3.239-5.828-5.381-10-5.381-6.617 0-12 5.383-12 12s5.383 12 12 12c6.346 0 11.543-4.954 11.959-11.197.326.121.674.197 1.041.197h.949c-.516 7.253-6.567 13-13.949 13zm10-14c0 5.514-4.486 10-10 10s-10-4.486-10-10 4.486-10 10-10 10 4.486 10 10zm28-2c0 .552-.448 1-1 1h-24c-.552 0-1-.448-1-1v-20c0-.552.448-1 1-1h24c.552 0 1 .448 1 1z" data-original="#000000" class="" style="fill:#100E0E" data-old_color="#000000"/><path d="m21 33.414-3.707-3.707 1.414-1.414 2.293 2.293 8.293-8.293 1.414 1.414z" data-original="#000000" class="" style="fill:#100E0E" data-old_color="#000000"/></g> </svg>
