<?xml version="1.0"?>
<svg xmlns="http://www.w3.org/2000/svg" id="icons" enable-background="new 0 0 64 64" height="512px" viewBox="0 0 64 64" width="512px" class=""><g><path d="m52.191 46.025-2.96-2.96c.539-.38 1.06-.81 1.539-1.29.48-.479.91-1 1.28-1.55l2.97 2.97z" fill="#d7e9ff" data-original="#D7E9FF" class="active-path" style="fill:#FED706" data-old_color="#d7e9ff"/><path d="m62.121 48.876c1.17 1.18 1.17 3.08 0 4.25s-3.07 1.17-4.24 0l-6.39-6.391.7-.71 2.829-2.83.711-.71z" fill="#94c1ff" data-original="#94C1FF" class="" style="fill:#FFEC67" data-old_color="#94c1ff"/><path d="m48.651 39.655c3.13-3.13 3.13-8.189 0-11.319-3.12-3.12-8.19-3.12-11.311 0-3.12 3.13-3.12 8.189 0 11.319 3.121 3.12 8.191 3.12 11.311 0zm-13.43-13.439c3.45-3.45 8.63-4.13 12.761-2.021 1 .5 1.949 1.181 2.789 2.021 3.82 3.819 4.25 9.729 1.28 14.01-.37.55-.8 1.07-1.28 1.55-.479.48-1 .91-1.539 1.29-.4.271-.811.521-1.23.73-4.13 2.12-9.32 1.439-12.78-2.021-4.301-4.299-4.301-11.259-.001-15.559z" fill="#fff" data-original="#FFF" class="" data-old_color="#fff" style="fill:#FDF19E"/><path d="m45.001 34.996v-1-1c0-1.101-.9-2-2-2-1.11 0-2 .899-2 2v1 1c0 1.109.89 2.01 2 2.01 1.1 0 2-.901 2-2.01zm3.65-6.66c3.13 3.13 3.13 8.189 0 11.319-3.12 3.12-8.19 3.12-11.311 0-3.12-3.13-3.12-8.189 0-11.319 3.121-3.12 8.191-3.12 11.311 0z" fill="#94c1ff" data-original="#94C1FF" class="" style="fill:#FFEC67" data-old_color="#94c1ff"/><path d="m45.001 32.996v1h-4v-1c0-1.101.89-2 2-2 1.1 0 2 .9 2 2z" fill="#d7e9ff" data-original="#D7E9FF" class="active-path" style="fill:#FED706" data-old_color="#d7e9ff"/><path d="m45.001 33.996v1c0 1.109-.9 2.01-2 2.01-1.11 0-2-.9-2-2.01v-1z" fill="#d7e9ff" data-original="#D7E9FF" class="active-path" style="fill:#FED706" data-old_color="#d7e9ff"/><path d="m1.001 13.996h3v36.01h-3z" fill="#5c9eff" data-original="#5C9EFF" class="" style="fill:#B59408" data-old_color="#5c9eff"/><path d="m48.001 13.996h-44-3v-2c0-1.101.89-2 2-2h43c1.11 0 2 .899 2 2z" fill="#d7e9ff" data-original="#D7E9FF" class="active-path" style="fill:#FED706" data-old_color="#d7e9ff"/><path d="m48.001 43.796v6.21h-44v-36.01h44v10.149l-.02.05c-4.131-2.109-9.311-1.43-12.761 2.021-4.3 4.3-4.3 11.26 0 15.56 3.461 3.459 8.651 4.14 12.781 2.02z" fill="#94c1ff" data-original="#94C1FF" class="" style="fill:#FFEC67" data-old_color="#94c1ff"/><g fill="#116fff"><path d="m4.029 12.999c-.553 0-1.005-.448-1.005-1s.442-1 .994-1h.011c.552 0 1 .448 1 1s-.448 1-1 1z" data-original="#116FFF" class="" style="fill:#100E0E" data-old_color="#116FFF"/><path d="m7.029 12.999c-.553 0-1.005-.448-1.005-1s.442-1 .994-1h.011c.552 0 1 .448 1 1s-.448 1-1 1z" data-original="#116FFF" class="" style="fill:#100E0E" data-old_color="#116FFF"/><path d="m10.029 12.999c-.553 0-1.005-.448-1.005-1s.442-1 .994-1h.011c.552 0 1 .448 1 1s-.448 1-1 1z" data-original="#116FFF" class="" style="fill:#100E0E" data-old_color="#116FFF"/><path d="m48 51.003h-47.001c-.553 0-1-.447-1-1v-36.004c0-.552.447-1 1-1h47.003c.553 0 1 .448 1 1v10.144c0 .552-.447 1-1 1s-1-.448-1-1v-9.144h-45.003v34.004h46.001c.553 0 1 .447 1 1s-.447 1-1 1z" data-original="#116FFF" class="" style="fill:#100E0E" data-old_color="#116FFF"/><path d="m.999 12.999c-.553 0-1-.448-1-1 0-1.654 1.346-3 3-3 .553 0 1 .448 1 1s-.447 1-1 1c-.552 0-1 .449-1 1 0 .552-.447 1-1 1z" data-original="#116FFF" class="" style="fill:#100E0E" data-old_color="#116FFF"/><path d="m.999 14.999c-.553 0-1-.448-1-1v-2c0-.552.447-1 1-1s1 .448 1 1v2c0 .552-.447 1-1 1z" data-original="#116FFF" class="" style="fill:#100E0E" data-old_color="#116FFF"/><path d="m48.002 12.999c-.553 0-1-.448-1-1 0-.551-.448-1-1-1-.553 0-1-.448-1-1s.447-1 1-1c1.654 0 3 1.346 3 3 0 .552-.447 1-1 1z" data-original="#116FFF" class="" style="fill:#100E0E" data-old_color="#116FFF"/><path d="m48.002 14.999c-.553 0-1-.448-1-1v-2c0-.552.447-1 1-1s1 .448 1 1v2c0 .552-.447 1-1 1z" data-original="#116FFF" class="" style="fill:#100E0E" data-old_color="#116FFF"/><path d="m46.002 10.999h-43.003c-.553 0-1-.448-1-1s.447-1 1-1h43.003c.553 0 1 .448 1 1s-.447 1-1 1z" data-original="#116FFF" class="" style="fill:#100E0E" data-old_color="#116FFF"/><path d="m3.999 51.003c-.553 0-1-.447-1-1v-36.004c0-.552.447-1 1-1s1 .448 1 1v36.004c0 .553-.447 1-1 1z" data-original="#116FFF" class="" style="fill:#100E0E" data-old_color="#116FFF"/><path d="m24.999 18.999h-17c-.553 0-1-.448-1-1s.447-1 1-1h17c.553 0 1 .448 1 1s-.447 1-1 1z" data-original="#116FFF" class="" style="fill:#100E0E" data-old_color="#116FFF"/><path d="m20.999 22.999h-11c-.553 0-1-.448-1-1s.447-1 1-1h11c.553 0 1 .448 1 1s-.447 1-1 1z" data-original="#116FFF" class="" style="fill:#100E0E" data-old_color="#116FFF"/><path d="m19.999 43.015h-10c-.553 0-1-.447-1-1s.447-1 1-1h10c.553 0 1 .447 1 1s-.447 1-1 1z" data-original="#116FFF" class="" style="fill:#100E0E" data-old_color="#116FFF"/><path d="m26.999 22.999h-2c-.553 0-1-.448-1-1s.447-1 1-1h2c.553 0 1 .448 1 1s-.447 1-1 1z" data-original="#116FFF" class="" style="fill:#100E0E" data-old_color="#116FFF"/><path d="m13.999 47.003h-6c-.553 0-1-.447-1-1s.447-1 1-1h6c.553 0 1 .447 1 1s-.447 1-1 1z" data-original="#116FFF" class="" style="fill:#100E0E" data-old_color="#116FFF"/><path d="m15.999 26.999h-4c-.553 0-1-.448-1-1s.447-1 1-1h4c.553 0 1 .448 1 1s-.447 1-1 1z" data-original="#116FFF" class="" style="fill:#100E0E" data-old_color="#116FFF"/><path d="m29.999 26.999h-10c-.553 0-1-.448-1-1s.447-1 1-1h10c.553 0 1 .448 1 1s-.447 1-1 1z" data-original="#116FFF" class="" style="fill:#100E0E" data-old_color="#116FFF"/><path d="m28.999 30.999h-17c-.553 0-1-.448-1-1s.447-1 1-1h17c.553 0 1 .448 1 1s-.447 1-1 1z" data-original="#116FFF" class="" style="fill:#100E0E" data-old_color="#116FFF"/><path d="m22.999 34.999h-11c-.553 0-1-.447-1-1s.447-1 1-1h11c.553 0 1 .447 1 1s-.447 1-1 1z" data-original="#116FFF" class="" style="fill:#100E0E" data-old_color="#116FFF"/><path d="m27.999 39.001h-10c-.553 0-1-.447-1-1s.447-1 1-1h10c.553 0 1 .447 1 1s-.447 1-1 1z" data-original="#116FFF" class="" style="fill:#100E0E" data-old_color="#116FFF"/><path d="m13.999 39.001h-2c-.553 0-1-.447-1-1s.447-1 1-1h2c.553 0 1 .447 1 1s-.447 1-1 1z" data-original="#116FFF" class="" style="fill:#100E0E" data-old_color="#116FFF"/><path d="m42.999 45.999c-3.205 0-6.219-1.249-8.485-3.516-4.679-4.681-4.679-12.295 0-16.975 2.267-2.266 5.28-3.514 8.485-3.514s6.219 1.248 8.484 3.514c4.679 4.68 4.679 12.294 0 16.975-2.266 2.267-5.279 3.516-8.484 3.516zm0-22.005c-2.671 0-5.183 1.04-7.071 2.928-3.898 3.9-3.898 10.247 0 14.147 1.889 1.889 4.4 2.93 7.071 2.93s5.182-1.041 7.07-2.93c3.898-3.9 3.898-10.247 0-14.147-1.888-1.888-4.399-2.928-7.07-2.928z" data-original="#116FFF" class="" style="fill:#100E0E" data-old_color="#116FFF"/><path d="m42.999 42.998c-2.404 0-4.665-.937-6.364-2.637-3.509-3.51-3.509-9.222 0-12.732 1.7-1.699 3.96-2.635 6.364-2.635s4.664.936 6.363 2.635c3.509 3.51 3.509 9.222 0 12.732-1.699 1.701-3.959 2.637-6.363 2.637zm0-16.004c-1.87 0-3.628.728-4.95 2.049-2.729 2.73-2.729 7.173 0 9.904 1.322 1.322 3.08 2.051 4.95 2.051s3.627-.729 4.949-2.051c2.729-2.73 2.729-7.173 0-9.904-1.321-1.321-3.079-2.049-4.949-2.049z" data-original="#116FFF" class="" style="fill:#100E0E" data-old_color="#116FFF"/><path d="m52.196 47.022c-.256 0-.512-.098-.707-.293l-2.961-2.961c-.391-.391-.391-1.023 0-1.414s1.023-.391 1.414 0l2.961 2.961c.391.391.391 1.023 0 1.414-.195.196-.451.293-.707.293z" data-original="#116FFF" class="" style="fill:#100E0E" data-old_color="#116FFF"/><path d="m55.022 44.195c-.256 0-.512-.098-.707-.293l-2.975-2.975c-.391-.391-.391-1.023 0-1.414s1.023-.391 1.414 0l2.975 2.975c.391.391.391 1.023 0 1.414-.195.196-.451.293-.707.293z" data-original="#116FFF" class="" style="fill:#100E0E" data-old_color="#116FFF"/><path d="m60.001 54.999c-1.024 0-2.049-.39-2.828-1.17-.391-.391-.391-1.023 0-1.414s1.023-.391 1.414 0c.779.779 2.049.779 2.828 0 .78-.78.78-2.049 0-2.829-.391-.391-.391-1.023 0-1.414s1.023-.391 1.414 0c1.56 1.56 1.56 4.098 0 5.657-.779.78-1.804 1.17-2.828 1.17z" data-original="#116FFF" class="" style="fill:#100E0E" data-old_color="#116FFF"/><path d="m57.88 54.122c-.256 0-.512-.098-.707-.293l-6.392-6.392c-.391-.391-.391-1.023 0-1.414s1.023-.391 1.414 0l6.392 6.392c.391.391.391 1.023 0 1.414-.195.195-.451.293-.707.293z" data-original="#116FFF" class="" style="fill:#100E0E" data-old_color="#116FFF"/><path d="m62.122 49.879c-.256 0-.512-.098-.707-.293l-6.392-6.392c-.391-.391-.391-1.023 0-1.414s1.023-.391 1.414 0l6.392 6.392c.391.391.391 1.023 0 1.414-.195.195-.451.293-.707.293z" data-original="#116FFF" class="" style="fill:#100E0E" data-old_color="#116FFF"/><path d="m51.488 47.73c-.256 0-.512-.098-.707-.293-.391-.391-.391-1.023 0-1.414l4.242-4.243c.391-.391 1.023-.391 1.414 0s.391 1.023 0 1.414l-4.242 4.243c-.195.196-.451.293-.707.293z" data-original="#116FFF" class="" style="fill:#100E0E" data-old_color="#116FFF"/><path d="m48 51.003c-.553 0-1-.447-1-1v-6.205c0-.553.447-1 1-1s1 .447 1 1v6.205c0 .553-.447 1-1 1z" data-original="#116FFF" class="" style="fill:#100E0E" data-old_color="#116FFF"/><path d="m44.999 33.998c-.553 0-1-.447-1-1 0-.551-.448-1-1-1s-1 .449-1 1c0 .552-.447 1-1 1s-1-.447-1-1c0-1.654 1.346-3 3-3s3 1.346 3 3c0 .553-.447 1-1 1z" data-original="#116FFF" class="" style="fill:#100E0E" data-old_color="#116FFF"/><path d="m42.999 38c-1.654 0-3-1.347-3-3.001 0-.553.447-1 1-1s1 .447 1 1c0 .552.448 1.001 1 1.001s1-.449 1-1.001c0-.553.447-1 1-1s1 .447 1 1c0 1.654-1.346 3.001-3 3.001z" data-original="#116FFF" class="" style="fill:#100E0E" data-old_color="#116FFF"/><path d="m40.999 35.999c-.553 0-1-.447-1-1v-2c0-.552.447-1 1-1s1 .448 1 1v2c0 .553-.447 1-1 1z" data-original="#116FFF" class="" style="fill:#100E0E" data-old_color="#116FFF"/><path d="m44.999 35.999c-.553 0-1-.447-1-1v-2c0-.552.447-1 1-1s1 .448 1 1v2c0 .553-.447 1-1 1z" data-original="#116FFF" class="" style="fill:#100E0E" data-old_color="#116FFF"/><path d="m46.999 32.999c-.553 0-1-.448-1-1v-1c0-.552.447-1 1-1s1 .448 1 1v1c0 .552-.447 1-1 1z" data-original="#116FFF" class="" style="fill:#100E0E" data-old_color="#116FFF"/><path d="m45.999 33.998c-.553 0-1-.447-1-1s.447-1 1-1c0-.552.447-1 1-1s1 .448 1 1c0 1.104-.897 2-2 2z" data-original="#116FFF" class="" style="fill:#100E0E" data-old_color="#116FFF"/><path d="m45.999 33.998h-1c-.553 0-1-.447-1-1s.447-1 1-1h1c.553 0 1 .448 1 1s-.447 1-1 1z" data-original="#116FFF" class="" style="fill:#100E0E" data-old_color="#116FFF"/><path d="m46.999 38c-.553 0-1-.447-1-1v-1c0-.553.447-1 1-1s1 .447 1 1v1c0 .553-.447 1-1 1z" data-original="#116FFF" class="" style="fill:#100E0E" data-old_color="#116FFF"/><path d="m46.999 37c-.553 0-1-.447-1-1v-.002c-.553 0-1-.447-1-1 0-.552.447-.999 1-.999 1.103 0 2 .897 2 2.001 0 .553-.447 1-1 1z" data-original="#116FFF" class="" style="fill:#100E0E" data-old_color="#116FFF"/><path d="m45.999 35.999h-1c-.553 0-1-.447-1-1s.447-1 1-1h1c.553 0 1 .447 1 1s-.447 1-1 1z" data-original="#116FFF" class="" style="fill:#100E0E" data-old_color="#116FFF"/><path d="m39 32.999c-.553 0-1-.448-1-1v-1c0-.552.447-1 1-1s1 .448 1 1v1c0 .552-.447 1-1 1z" data-original="#116FFF" class="" style="fill:#100E0E" data-old_color="#116FFF"/><path d="m40 33.998c-1.103 0-2-.896-2-2 0-.552.447-1 1-1s1 .448 1 1v.002c.553 0 1 .447 1 1s-.447.998-1 .998z" data-original="#116FFF" class="" style="fill:#100E0E" data-old_color="#116FFF"/><path d="m41 33.998h-1c-.553 0-1-.447-1-1s.447-1 1-1h1c.553 0 1 .448 1 1s-.447 1-1 1z" data-original="#116FFF" class="" style="fill:#100E0E" data-old_color="#116FFF"/><path d="m39 38c-.553 0-1-.447-1-1v-1c0-.553.447-1 1-1s1 .447 1 1v1c0 .553-.447 1-1 1z" data-original="#116FFF" class="" style="fill:#100E0E" data-old_color="#116FFF"/><path d="m39 36.999c-.553 0-1-.446-1-.999 0-1.104.897-2.001 2-2.001.553 0 1 .447 1 1s-.447 1-1 1c0 .553-.447 1-1 1z" data-original="#116FFF" class="" style="fill:#100E0E" data-old_color="#116FFF"/><path d="m41 35.999h-1c-.553 0-1-.447-1-1s.447-1 1-1h1c.553 0 1 .447 1 1s-.447 1-1 1z" data-original="#116FFF" class="" style="fill:#100E0E" data-old_color="#116FFF"/><path d="m44.999 34.999h-3.999c-.553 0-1-.447-1-1s.447-1 1-1h3.999c.553 0 1 .447 1 1s-.447 1-1 1z" data-original="#116FFF" class="" style="fill:#100E0E" data-old_color="#116FFF"/></g></g> </svg>
