<?xml version="1.0" encoding="utf-8"?>
<!-- Generator: Adobe Illustrator 16.0.0, SVG Export Plug-In . SVG Version: 6.00 Build 0)  -->
<!DOCTYPE svg PUBLIC "-//W3C//DTD SVG 1.1//EN" "http://www.w3.org/Graphics/SVG/1.1/DTD/svg11.dtd">
<svg version="1.1" xmlns="http://www.w3.org/2000/svg" xmlns:xlink="http://www.w3.org/1999/xlink" x="0px" y="0px" width="500px"
	 height="500px" viewBox="0 0 500 500" enable-background="new 0 0 500 500" xml:space="preserve">
<g id="BACKGROUND">
</g>
<g id="OBJECTS">
	<g id="XMLID_1342_">
	</g>
	<g id="XMLID_522_">
		<linearGradient id="XMLID_5_" gradientUnits="userSpaceOnUse" x1="47.5703" y1="250.0005" x2="452.4292" y2="250.0005">
			<stop  offset="0" style="stop-color:#C2E1FE"/>
			<stop  offset="1" style="stop-color:#259AFF;stop-opacity:0"/>
		</linearGradient>
		<path id="XMLID_237_" opacity="0.3" fill="url(#XMLID_5_)" d="M64.148,374.244c-8.526-6.682-14.064-16.455-15.489-27.193
			C43.875,311,52.216,230.748,128.09,163.58c92.081-81.516,188.25-75.896,234.822-55.432
			c51.315,22.547,83.884,98.119,89.155,165.412c3.968,50.642-24.941,94.195-73.847,107.926
			C296.184,404.516,125.938,422.667,64.148,374.244z"/>
		
			<linearGradient id="XMLID_83_" gradientUnits="userSpaceOnUse" x1="39.5151" y1="243.8403" x2="460.4839" y2="243.8403" gradientTransform="matrix(-1 0 0 1 499.999 0)">
			<stop  offset="0" style="stop-color:#C2E1FE"/>
			<stop  offset="1" style="stop-color:#259AFF;stop-opacity:0"/>
		</linearGradient>
		<path id="XMLID_521_" opacity="0.3" fill="url(#XMLID_83_)" d="M443.247,373.028c8.864-6.947,14.624-17.11,16.105-28.275
			c4.975-37.484-3.699-120.93-82.592-190.771c-95.745-84.76-195.739-78.917-244.166-57.638
			c-53.356,23.445-87.221,102.023-92.703,171.994c-4.125,52.655,25.934,97.942,76.785,112.219
			C201.978,404.504,378.999,423.378,443.247,373.028z"/>
	</g>
	<g id="XMLID_4_">
		<g id="XMLID_1_">
			<g id="XMLID_41_">
				
					<linearGradient id="XMLID_146_" gradientUnits="userSpaceOnUse" x1="169.4229" y1="231.7939" x2="259.7448" y2="354.9604" gradientTransform="matrix(0.9194 0.3934 -0.3934 0.9194 92.4596 -89.435)">
					<stop  offset="0" style="stop-color:#FDDA42"/>
					<stop  offset="1" style="stop-color:#E5A003"/>
				</linearGradient>
				<path id="XMLID_97_" fill="url(#XMLID_146_)" d="M214.841,306.563c1.415-8.558-1.113-17.748-7.633-23.684
					c-3.881-3.533-10.946-5.352-12.158-11.075c-1.043-4.927,1.817-9.804,2.507-14.612c1.22-8.501-1.94-17.468-8.131-23.396
					c-4.212-4.033-10.275-5.995-13.647-10.915c-3.111-4.54-3.567-10.269-4.628-15.519c-1.528-7.561-6.76-18.415-16.298-16.17
					c-8.073,1.899-10.782,11.794-10.915,18.962c-0.047,2.563,0.174,5.127,0.669,7.642c0.573,2.904,1.821,5.67,2.233,8.595
					c0.438,3.1,0.6,6.71-0.264,9.732c-0.781,2.732-2.11,5.287-2.877,8.032c-2.82,10.093-0.118,20.877,4.833,29.871
					c3.294,5.984,5.685,10.889,4.93,17.908c-0.586,5.453-2.103,10.838-1.691,16.363c0.812,10.888,8.799,19.262,18.404,23.512
					c0.263,0.116,0.548,0.102,0.794-0.003C189.516,337.521,210.831,325.894,214.841,306.563z"/>
				
					<linearGradient id="XMLID_148_" gradientUnits="userSpaceOnUse" x1="169.4229" y1="231.7939" x2="259.7448" y2="354.9604" gradientTransform="matrix(0.9194 0.3934 -0.3934 0.9194 92.4596 -89.435)">
					<stop  offset="0" style="stop-color:#FDDA42"/>
					<stop  offset="1" style="stop-color:#E5A003"/>
				</linearGradient>
				<path id="XMLID_190_" opacity="0.5" fill="url(#XMLID_148_)" d="M214.841,306.563c1.415-8.558-1.113-17.748-7.633-23.684
					c-3.881-3.533-10.946-5.352-12.158-11.075c-1.043-4.927,1.817-9.804,2.507-14.612c1.22-8.501-1.94-17.468-8.131-23.396
					c-4.212-4.033-10.275-5.995-13.647-10.915c-3.111-4.54-3.567-10.269-4.628-15.519c-1.528-7.561-6.76-18.415-16.298-16.17
					c-8.073,1.899-10.782,11.794-10.915,18.962c-0.047,2.563,0.174,5.127,0.669,7.642c0.573,2.904,1.821,5.67,2.233,8.595
					c0.438,3.1,0.6,6.71-0.264,9.732c-0.781,2.732-2.11,5.287-2.877,8.032c-2.82,10.093-0.118,20.877,4.833,29.871
					c3.294,5.984,5.685,10.889,4.93,17.908c-0.586,5.453-2.103,10.838-1.691,16.363c0.812,10.888,8.799,19.262,18.404,23.512
					c0.263,0.116,0.548,0.102,0.794-0.003C189.516,337.521,210.831,325.894,214.841,306.563z"/>
				
					<linearGradient id="XMLID_149_" gradientUnits="userSpaceOnUse" x1="216.9824" y1="354.2397" x2="216.9824" y2="251.1961" gradientTransform="matrix(0.9194 0.3934 -0.3934 0.9194 92.4596 -89.435)">
					<stop  offset="0" style="stop-color:#FDDA42"/>
					<stop  offset="1" style="stop-color:#E5A003"/>
				</linearGradient>
				<path id="XMLID_94_" fill="url(#XMLID_149_)" d="M192.077,344.062c-2.844-10.783-5.672-21.571-8.492-32.361
					c0.007-0.012,0.016-0.02,0.022-0.032c4.823-8.899,8.319-18.346,10.5-28.229c0.285-1.288-1.751-1.562-2.035-0.276
					c-1.971,8.933-5.086,17.478-9.258,25.594c-2.386-9.143-4.757-18.288-7.126-27.436c0.068-0.07,0.131-0.149,0.184-0.246
					c4.932-9.209,8.656-18.92,11.198-29.05c0.321-1.278-1.715-1.549-2.035-0.277c-2.328,9.278-5.726,18.186-10.099,26.677
					c-2.218-8.571-4.422-17.146-6.625-25.723c3.103-6.655,5.656-13.514,7.654-20.582c0.355-1.253-1.528-2.077-1.887-0.807
					c-1.764,6.236-3.958,12.31-6.581,18.225c-2.192-8.542-4.375-17.086-6.551-25.633c0.099-0.086,0.187-0.195,0.256-0.333
					c2.141-4.295,4.082-8.673,5.827-13.144c0.479-1.228-1.406-2.041-1.888-0.807c-1.5,3.844-3.155,7.615-4.947,11.329
					c-1.457-5.726-2.921-11.45-4.371-17.177c-0.32-1.264-2.362-1.026-2.037,0.255c2.002,7.91,4.021,15.815,6.036,23.722
					c-3.005-3.158-6.103-6.222-9.319-9.174c-0.976-0.895-2.249,0.717-1.28,1.605c4.049,3.716,7.923,7.601,11.638,11.648
					c1.777,6.96,3.561,13.918,5.348,20.876c0.01,0.077,0.027,0.15,0.056,0.22c1,3.891,1.999,7.781,3.001,11.672
					c-7.45-5.089-14.275-10.951-20.403-17.596c-0.893-0.968-2.5,0.311-1.604,1.282c6.789,7.361,14.397,13.825,22.777,19.31
					c2.558,9.917,5.128,19.829,7.707,29.74c-5.988-3.897-11.976-7.794-17.963-11.69c-1.099-0.716-2.387,0.885-1.28,1.605
					c6.668,4.339,13.337,8.68,20.006,13.02c3.868,14.857,7.751,29.711,11.667,44.557
					C190.508,346.102,192.41,345.326,192.077,344.062z"/>
			</g>
			<g id="XMLID_109_">
				<linearGradient id="XMLID_198_" gradientUnits="userSpaceOnUse" x1="87.7065" y1="237.2144" x2="201.2647" y2="392.0667">
					<stop  offset="0" style="stop-color:#FDDA42"/>
					<stop  offset="1" style="stop-color:#E5A003"/>
				</linearGradient>
				<path id="XMLID_333_" fill="url(#XMLID_198_)" d="M86.921,275.113c2.098,3.073,4.909,5.653,6.833,8.83
					c2.039,3.367,4.012,7.46,4.508,11.38c0.449,3.545,0.176,7.154,0.647,10.707c1.732,13.062,10.189,24.189,20.36,32.137
					c6.768,5.287,11.956,9.773,14.556,18.261c2.019,6.592,2.929,13.567,6.138,19.75c3.682,7.095,9.763,11.985,16.801,14.878h28.176
					c18.537-7.462,31.201-27.646,27.063-48.078c-2.597-10.592-10.064-19.964-20.537-23.601c-6.233-2.164-15.298-0.771-19.53-6.787
					c-3.643-5.179-2.748-12.23-4.329-18.13c-2.795-10.43-10.882-19.231-20.969-23.021c-6.864-2.578-14.842-1.847-21.172-5.866
					c-5.841-3.708-9.202-10.104-13.024-15.648c-5.506-7.984-16.922-17.941-26.836-10.629c-8.391,6.188-6.629,18.965-3.237,27.316
					C83.58,269.597,85.104,272.452,86.921,275.113z"/>
				<linearGradient id="XMLID_209_" gradientUnits="userSpaceOnUse" x1="144.8154" y1="391.0552" x2="144.8154" y2="261.5029">
					<stop  offset="0" style="stop-color:#FDDA42"/>
					<stop  offset="1" style="stop-color:#E5A003"/>
				</linearGradient>
				<path id="XMLID_252_" fill="url(#XMLID_209_)" d="M109.43,279.092c-5.036-2.163-10.132-4.174-15.309-5.994
					c-1.57-0.553-2.245,1.94-0.686,2.488c6.519,2.293,12.917,4.867,19.212,7.708c5.496,7.166,11,14.326,16.507,21.484
					c0.049,0.085,0.106,0.161,0.174,0.227c3.08,4.003,6.159,8.006,9.241,12.007c-11.127-2.197-21.916-5.598-32.286-10.247
					c-1.51-0.677-2.736,1.596-1.219,2.275c11.488,5.15,23.479,8.859,35.878,11.054c7.86,10.197,15.734,20.384,23.616,30.563
					c-8.849-1.543-17.697-3.085-26.545-4.628c-1.625-0.283-2.322,2.203-0.686,2.488c9.854,1.719,19.709,3.437,29.563,5.154
					c9.662,12.475,19.345,24.932,29.037,37.383h3.237c-6.922-8.889-13.841-17.78-20.747-26.682c0.002-0.017,0.007-0.03,0.009-0.048
					c1.172-12.672,0.541-25.32-1.826-37.821c-0.309-1.63-2.796-0.939-2.489,0.687c2.14,11.3,2.765,22.718,1.958,34.162
					c-7.28-9.387-14.544-18.786-21.806-28.187c0.043-0.115,0.078-0.238,0.09-0.376c1.146-13.083,0.648-26.15-1.425-39.116
					c-0.261-1.635-2.749-0.941-2.489,0.687c1.898,11.876,2.376,23.852,1.521,35.83c-6.803-8.812-13.592-17.632-20.379-26.455
					c0.295-9.228-0.146-18.418-1.332-27.575c-0.21-1.625-2.793-1.646-2.581,0c1.046,8.08,1.514,16.186,1.407,24.32
					c-6.758-8.79-13.507-17.586-20.249-26.388c0.071-0.148,0.119-0.318,0.131-0.512c0.35-6.024,0.428-12.044,0.233-18.075
					c-0.053-1.656-2.634-1.664-2.581,0c0.167,5.186,0.12,10.363-0.115,15.542c-4.516-5.898-9.039-11.79-13.548-17.692
					c-0.995-1.303-3.237-0.019-2.229,1.303C96.947,262.81,103.19,270.95,109.43,279.092z"/>
			</g>
			<g id="XMLID_110_">
				
					<linearGradient id="XMLID_217_" gradientUnits="userSpaceOnUse" x1="356.5601" y1="151.7207" x2="446.8814" y2="274.8863" gradientTransform="matrix(-0.9194 0.3934 0.3934 0.9194 621.6442 -89.435)">
					<stop  offset="0" style="stop-color:#FDDA42"/>
					<stop  offset="1" style="stop-color:#E5A003"/>
				</linearGradient>
				<path id="XMLID_131_" fill="url(#XMLID_217_)" d="M295.708,306.563c-1.415-8.558,1.113-17.748,7.634-23.684
					c3.881-3.533,10.945-5.352,12.158-11.075c1.044-4.927-1.817-9.804-2.508-14.612c-1.219-8.501,1.94-17.468,8.131-23.396
					c4.213-4.033,10.275-5.995,13.647-10.915c3.111-4.54,3.567-10.269,4.628-15.519c1.528-7.561,6.761-18.415,16.299-16.17
					c8.072,1.899,10.782,11.794,10.915,18.962c0.047,2.563-0.174,5.127-0.67,7.642c-0.573,2.904-1.821,5.67-2.233,8.595
					c-0.438,3.1-0.6,6.71,0.264,9.732c0.781,2.732,2.11,5.287,2.877,8.032c2.82,10.093,0.118,20.877-4.833,29.871
					c-3.294,5.984-5.685,10.889-4.93,17.908c0.586,5.453,2.104,10.838,1.691,16.363c-0.812,10.888-8.8,19.262-18.404,23.512
					c-0.264,0.116-0.548,0.102-0.794-0.003C321.033,337.521,299.718,325.894,295.708,306.563z"/>
				
					<linearGradient id="XMLID_267_" gradientUnits="userSpaceOnUse" x1="356.5601" y1="151.7207" x2="446.8814" y2="274.8863" gradientTransform="matrix(-0.9194 0.3934 0.3934 0.9194 621.6442 -89.435)">
					<stop  offset="0" style="stop-color:#FDDA42"/>
					<stop  offset="1" style="stop-color:#E5A003"/>
				</linearGradient>
				<path id="XMLID_121_" opacity="0.5" fill="url(#XMLID_267_)" d="M295.708,306.563c-1.415-8.558,1.113-17.748,7.634-23.684
					c3.881-3.533,10.945-5.352,12.158-11.075c1.044-4.927-1.817-9.804-2.508-14.612c-1.219-8.501,1.94-17.468,8.131-23.396
					c4.213-4.033,10.275-5.995,13.647-10.915c3.111-4.54,3.567-10.269,4.628-15.519c1.528-7.561,6.761-18.415,16.299-16.17
					c8.072,1.899,10.782,11.794,10.915,18.962c0.047,2.563-0.174,5.127-0.67,7.642c-0.573,2.904-1.821,5.67-2.233,8.595
					c-0.438,3.1-0.6,6.71,0.264,9.732c0.781,2.732,2.11,5.287,2.877,8.032c2.82,10.093,0.118,20.877-4.833,29.871
					c-3.294,5.984-5.685,10.889-4.93,17.908c0.586,5.453,2.104,10.838,1.691,16.363c-0.812,10.888-8.8,19.262-18.404,23.512
					c-0.264,0.116-0.548,0.102-0.794-0.003C321.033,337.521,299.718,325.894,295.708,306.563z"/>
				
					<linearGradient id="XMLID_272_" gradientUnits="userSpaceOnUse" x1="404.1196" y1="274.1655" x2="404.1196" y2="171.1223" gradientTransform="matrix(-0.9194 0.3934 0.3934 0.9194 621.6442 -89.435)">
					<stop  offset="0" style="stop-color:#FDDA42"/>
					<stop  offset="1" style="stop-color:#E5A003"/>
				</linearGradient>
				<path id="XMLID_111_" fill="url(#XMLID_272_)" d="M318.471,344.062c2.845-10.783,5.673-21.571,8.492-32.361
					c-0.007-0.012-0.016-0.02-0.022-0.032c-4.822-8.899-8.318-18.346-10.499-28.229c-0.284-1.288,1.751-1.562,2.034-0.276
					c1.972,8.933,5.087,17.478,9.259,25.594c2.387-9.143,4.757-18.288,7.126-27.436c-0.067-0.07-0.132-0.149-0.184-0.246
					c-4.933-9.209-8.656-18.92-11.198-29.05c-0.32-1.278,1.716-1.549,2.035-0.277c2.328,9.278,5.726,18.186,10.099,26.677
					c2.218-8.571,4.423-17.146,6.625-25.723c-3.103-6.655-5.655-13.514-7.654-20.582c-0.354-1.253,1.528-2.077,1.888-0.807
					c1.764,6.236,3.957,12.31,6.58,18.225c2.192-8.542,4.375-17.086,6.551-25.633c-0.099-0.086-0.187-0.195-0.256-0.333
					c-2.141-4.295-4.081-8.673-5.826-13.144c-0.479-1.228,1.406-2.041,1.888-0.807c1.5,3.844,3.154,7.615,4.947,11.329
					c1.456-5.726,2.921-11.45,4.37-17.177c0.32-1.264,2.362-1.026,2.037,0.255c-2.002,7.91-4.021,15.815-6.036,23.722
					c3.006-3.158,6.104-6.222,9.319-9.174c0.976-0.895,2.249,0.717,1.281,1.605c-4.05,3.716-7.923,7.601-11.639,11.648
					c-1.776,6.96-3.561,13.918-5.348,20.876c-0.01,0.077-0.027,0.15-0.057,0.22c-0.999,3.891-1.998,7.781-3.001,11.672
					c7.45-5.089,14.275-10.951,20.403-17.596c0.893-0.968,2.5,0.311,1.604,1.282c-6.789,7.361-14.397,13.825-22.777,19.31
					c-2.557,9.917-5.128,19.829-7.706,29.74c5.987-3.897,11.976-7.794,17.963-11.69c1.1-0.716,2.388,0.885,1.28,1.605
					c-6.668,4.339-13.337,8.68-20.006,13.02c-3.868,14.857-7.751,29.711-11.666,44.557
					C320.041,346.102,318.138,345.326,318.471,344.062z"/>
			</g>
			<g id="XMLID_6_">
				
					<linearGradient id="XMLID_276_" gradientUnits="userSpaceOnUse" x1="291.2632" y1="240.2144" x2="404.8208" y2="395.0658" gradientTransform="matrix(-1 0 0 1 714.1045 0)">
					<stop  offset="0" style="stop-color:#FDDA42"/>
					<stop  offset="1" style="stop-color:#E5A003"/>
				</linearGradient>
				<path id="XMLID_88_" fill="url(#XMLID_276_)" d="M423.627,278.113c-2.098,3.073-4.908,5.653-6.832,8.83
					c-2.038,3.367-4.013,7.46-4.509,11.38c-0.448,3.545-0.176,7.154-0.646,10.707c-1.732,13.062-10.189,24.189-20.36,32.137
					c-6.768,5.287-11.956,9.773-14.556,18.261c-2.02,6.592-2.929,13.567-6.138,19.75c-3.683,7.095-9.763,11.985-16.802,14.878
					h-28.176c-18.536-7.462-31.2-27.646-27.063-48.078c2.597-10.592,10.064-19.964,20.537-23.601
					c6.232-2.164,15.298-0.771,19.53-6.787c3.644-5.179,2.748-12.23,4.329-18.13c2.795-10.43,10.882-19.231,20.969-23.021
					c6.864-2.578,14.843-1.847,21.173-5.866c5.841-3.708,9.201-10.104,13.024-15.647c5.506-7.984,16.922-17.941,26.836-10.63
					c8.392,6.188,6.63,18.965,3.237,27.316C426.968,272.597,425.445,275.452,423.627,278.113z"/>
				
					<linearGradient id="XMLID_322_" gradientUnits="userSpaceOnUse" x1="348.3716" y1="394.0562" x2="348.3716" y2="264.5039" gradientTransform="matrix(-1 0 0 1 714.1045 0)">
					<stop  offset="0" style="stop-color:#FDDA42"/>
					<stop  offset="1" style="stop-color:#E5A003"/>
				</linearGradient>
				<path id="XMLID_8_" fill="url(#XMLID_322_)" d="M401.119,282.092c5.036-2.163,10.132-4.174,15.309-5.994
					c1.57-0.553,2.245,1.94,0.687,2.488c-6.519,2.293-12.917,4.867-19.213,7.708c-5.496,7.166-11,14.326-16.507,21.484
					c-0.049,0.085-0.106,0.161-0.174,0.227c-3.079,4.003-6.158,8.006-9.241,12.007c11.128-2.197,21.916-5.598,32.286-10.247
					c1.51-0.677,2.736,1.596,1.219,2.275c-11.487,5.15-23.479,8.859-35.877,11.054c-7.86,10.197-15.735,20.383-23.616,30.563
					c8.848-1.543,17.696-3.085,26.544-4.628c1.625-0.283,2.322,2.203,0.687,2.488c-9.854,1.719-19.709,3.437-29.563,5.154
					c-9.662,12.475-19.346,24.932-29.037,37.383h-3.237c6.922-8.889,13.841-17.78,20.748-26.682c-0.003-0.017-0.008-0.03-0.01-0.048
					c-1.172-12.672-0.541-25.32,1.825-37.821c0.309-1.63,2.797-0.939,2.489,0.687c-2.14,11.3-2.766,22.718-1.957,34.162
					c7.279-9.387,14.544-18.786,21.806-28.187c-0.044-0.115-0.078-0.238-0.09-0.376c-1.147-13.083-0.648-26.15,1.424-39.116
					c0.262-1.635,2.749-0.941,2.489,0.687c-1.898,11.876-2.376,23.852-1.521,35.83c6.804-8.812,13.593-17.632,20.38-26.455
					c-0.295-9.228,0.146-18.418,1.332-27.575c0.21-1.625,2.794-1.646,2.581,0c-1.046,8.08-1.515,16.186-1.408,24.32
					c6.759-8.79,13.507-17.586,20.249-26.388c-0.071-0.148-0.119-0.318-0.13-0.512c-0.351-6.024-0.429-12.044-0.234-18.075
					c0.054-1.656,2.635-1.664,2.581,0c-0.167,5.186-0.12,10.363,0.115,15.542c4.516-5.898,9.039-11.79,13.548-17.692
					c0.994-1.303,3.237-0.019,2.229,1.303C413.602,265.81,407.359,273.95,401.119,282.092z"/>
			</g>
			<g id="XMLID_378_">
				<polygon id="XMLID_426_" fill="#DBA6A5" points="206.386,229.862 210.435,231.054 215.421,233.571 210.17,231.418 				"/>
				<path id="XMLID_419_" fill="#259AFF" d="M237.412,233.775l4.825-4.743c0,0,23.723-6.771,38.629-10.117
					s16.799-0.522,16.799-0.522l6.729,11.886c0,0-34.204,10.103-37.044,9.846s-18.094,6.575-18.094,6.575L237.412,233.775z"/>
				<polygon id="XMLID_533_" fill="#00307C" points="281.102,393.055 283.37,317.341 285.365,317.341 287.875,393.055 
					307.089,393.055 312.37,290.421 255.867,282.682 255.867,308.569 261.287,393.055 				"/>
				<polygon id="XMLID_534_" fill="#00307C" points="203.833,393.055 223.545,393.055 225.846,316.253 227.841,316.253 
					230.386,393.055 249.411,393.055 253.328,307.969 250.195,286.489 204.515,275.069 198.343,307.481 198.949,316.932 				"/>
				<polygon id="XMLID_354_" fill="#137CBC" points="314.287,304.375 253.411,304.375 256.673,217.941 283.848,213.749 
					313.199,217.941 307.564,238.09 				"/>
				<g id="XMLID_321_">
					<path id="XMLID_325_" fill="#EDB6B3" d="M245.661,193.588c0,0,8.85-4.714,10.101,2.02c1.25,6.734-2.79,13.372-10.005,9.716
						C238.543,201.668,245.661,193.588,245.661,193.588z"/>
					<circle id="XMLID_324_" fill="#003AA5" cx="251.361" cy="204.045" r="0.729"/>
					<path id="XMLID_323_" opacity="0.7" fill="#EDB6B3" d="M248.292,199.066c0.595-2.191,1.304-3.446,2.167-3.837
						c2.223-1.005,3.938,0.607,4.533,1.599c0.118,0.198,0.055,0.453-0.144,0.572c-0.196,0.121-0.453,0.058-0.572-0.141
						c-0.043-0.069-0.828-1.327-2.132-1.49c1.288,1.326,2.659,3.765,0.865,5.99c-0.082,0.103-0.203,0.156-0.324,0.156
						c-0.093,0-0.186-0.03-0.263-0.092c-0.18-0.145-0.207-0.408-0.063-0.587c2.03-2.52-1.13-5.191-1.266-5.303
						c-0.013-0.011-0.019-0.026-0.031-0.039c-0.086,0.03-0.171,0.057-0.26,0.097c-0.278,0.126-1.001,0.699-1.706,3.296
						c-0.051,0.186-0.219,0.308-0.403,0.308c-0.036,0-0.073-0.004-0.109-0.014C248.363,199.519,248.232,199.29,248.292,199.066z"/>
				</g>
				<path id="XMLID_339_" fill="#137CBC" d="M277.333,214.654l-29.119,4.036l-42.43,11.876l8.261,13.217l31.742-5.779
					c0,0,30.345,3.223,32.797,2.807l-2.654-2.348L277.333,214.654z"/>
				<g id="XMLID_317_">
					<path id="XMLID_320_" fill="#EDB6B3" d="M206.389,193.588c0,0-8.85-4.714-10.101,2.02s2.79,13.372,10.004,9.716
						C213.507,201.668,206.389,193.588,206.389,193.588z"/>
					<circle id="XMLID_319_" fill="#003AA5" cx="200.689" cy="204.045" r="0.729"/>
					<path id="XMLID_318_" opacity="0.7" fill="#EDB6B3" d="M203.758,199.066c-0.596-2.191-1.304-3.446-2.167-3.837
						c-2.222-1.005-3.937,0.607-4.533,1.599c-0.118,0.198-0.055,0.453,0.143,0.572c0.196,0.121,0.454,0.058,0.573-0.141
						c0.042-0.069,0.828-1.327,2.132-1.49c-1.289,1.326-2.66,3.765-0.866,5.99c0.083,0.103,0.204,0.156,0.325,0.156
						c0.092,0,0.185-0.03,0.262-0.092c0.18-0.145,0.208-0.408,0.063-0.587c-2.031-2.52,1.13-5.191,1.266-5.303
						c0.013-0.011,0.019-0.026,0.03-0.039c0.086,0.03,0.171,0.057,0.26,0.097c0.278,0.126,1.001,0.699,1.706,3.296
						c0.051,0.186,0.219,0.308,0.403,0.308c0.036,0,0.073-0.004,0.109-0.014C203.687,199.519,203.818,199.29,203.758,199.066z"/>
				</g>
				<g id="XMLID_310_">
					<path id="XMLID_375_" fill="#EDB6B3" d="M226.045,216.363c-3.611,0-6.538,2.685-6.538,5.997v26.489l-0.044,0.022v-0.103
						c0,3.604,2.922,6.525,6.526,6.525l0,0c3.604,0,6.525-2.921,6.525-6.525v-19.887h0.069v-6.521
						C232.583,219.048,229.656,216.363,226.045,216.363z"/>
					<g id="XMLID_311_">
						<defs>
							<path id="XMLID_313_" d="M228.442,243.33h-4.795c-2.287,0-4.14-1.854-4.14-4.141v-21.105c0-0.951,0.771-1.721,1.721-1.721
								h9.633c0.95,0,1.721,0.771,1.721,1.721v21.105C232.583,241.477,230.729,243.33,228.442,243.33z"/>
						</defs>
						<clipPath id="XMLID_328_">
							<use xlink:href="#XMLID_313_"  overflow="visible"/>
						</clipPath>
						<g id="XMLID_314_" clip-path="url(#XMLID_328_)">
							<path id="XMLID_315_" fill="#EDB6B3" d="M256.034,168.619h-29.262h-0.007h-29.262c0,0-2.562,33.968,1.393,42.959
								c2.151,4.889,9.327,9.865,16.124,14.036c7.229,4.435,16.661,4.407,23.85-0.082c6.654-4.155,13.634-9.095,15.771-13.954
								C258.596,202.586,256.034,168.619,256.034,168.619z"/>
						</g>
					</g>
				</g>
				<path id="XMLID_309_" fill="#EDB6B3" d="M249.952,185.229c-0.187-6.348-5.396-11.391-11.747-11.391h-12.177h-0.006h-11.965
					c-6.469,0-11.78,5.139-11.965,11.605c-0.264,9.2,0.916,21.246,2.766,25.833c1.72,4.261,6.345,8.599,11.779,12.234
					c5.778,3.865,13.31,3.841,19.056-0.071c5.321-3.622,9.79-7.927,11.499-12.163C249.057,206.655,250.223,194.456,249.952,185.229z
					"/>
				<path id="XMLID_308_" fill="#3A2719" d="M247.469,165.35"/>
				<g id="XMLID_291_">
					<defs>
						<path id="XMLID_294_" d="M235.012,210.814c-0.358-1.117-1.661-0.82-3.965,0.42c-2.496,1.344-6.898,1.669-10.033,0.262
							c-2.375-1.066-3.554-1.174-3.979-0.213c-0.425,0.961,2.213,6.621,7.213,7.306c0.936,0.128,2.357,0.173,3.869-0.101
							C233.09,217.586,235.407,212.047,235.012,210.814z"/>
					</defs>
					<clipPath id="XMLID_329_">
						<use xlink:href="#XMLID_294_"  overflow="visible"/>
					</clipPath>
					<g id="XMLID_306_" clip-path="url(#XMLID_329_)">
						<path id="XMLID_307_" fill="#7F3322" d="M235.012,210.814c-0.358-1.117-1.661-0.82-3.965,0.42
							c-2.496,1.344-6.898,1.669-10.033,0.262c-2.375-1.066-3.554-1.174-3.979-0.213c-0.425,0.961,2.213,6.621,7.213,7.306
							c0.936,0.128,2.357,0.173,3.869-0.101C233.09,217.586,235.407,212.047,235.012,210.814z"/>
					</g>
					<g id="XMLID_302_" clip-path="url(#XMLID_329_)">
						<g id="XMLID_303_">
							<path id="XMLID_305_" fill="#FFFFFF" d="M219.192,210.054c0,0,0.084,3.938,6.276,4.058c6.191,0.12,8.016-1.804,8.042-4.525
								L219.192,210.054z"/>
						</g>
					</g>
					<g id="XMLID_299_" clip-path="url(#XMLID_329_)">
						<g id="XMLID_300_">
							<path id="XMLID_301_" fill="#EDB6B3" d="M221.478,217.875c0,0,4.26-3.02,10.848-0.189l-5.089,3.886L221.478,217.875z"/>
						</g>
					</g>
					<g id="XMLID_295_" clip-path="url(#XMLID_329_)">
						<g id="XMLID_296_">
							<path id="XMLID_298_" fill="#EDB6B3" d="M221.478,217.875c0,0,4.26-3.02,10.848-0.189l-5.089,3.886L221.478,217.875z"/>
						</g>
					</g>
				</g>
				<g id="XMLID_289_">
					<path id="XMLID_290_" fill="#EDB6B3" d="M221.54,201.156c0,0-0.061,0.264-0.167,0.726c-0.051,0.23-0.109,0.511-0.155,0.833
						c-0.042,0.311-0.083,0.707-0.015,1.019c0.049,0.212,0.498,0.5,0.844,0.735c0.377,0.246,0.801,0.463,1.237,0.68
						c0.871,0.41,1.892,0.762,2.831,0.701c0.285-0.018,0.51-0.054,0.748-0.104c0.246-0.053,0.489-0.125,0.73-0.203
						c0.481-0.156,0.948-0.354,1.385-0.576c0.437-0.221,0.857-0.447,1.222-0.702c0.181-0.126,0.356-0.259,0.484-0.393
						c0.069-0.076,0.111-0.108,0.132-0.184c0.036-0.112,0.036-0.138,0.049-0.249c0.069-0.763-0.01-1.458-0.047-1.923
						c-0.042-0.473-0.066-0.743-0.066-0.743s0.087,0.258,0.209,0.718c0.053,0.232,0.117,0.515,0.191,0.839
						c0.061,0.329,0.14,0.696,0.144,1.133c0.004,0.091-0.016,0.274-0.041,0.363c-0.024,0.132-0.123,0.276-0.193,0.364
						c-0.155,0.2-0.328,0.36-0.511,0.521c-0.369,0.316-0.777,0.619-1.229,0.884c-0.455,0.262-0.94,0.509-1.464,0.702
						c-0.264,0.092-0.534,0.176-0.814,0.243c-0.287,0.067-0.598,0.116-0.852,0.135c-1.24,0.064-2.325-0.376-3.243-0.881
						c-0.464-0.25-0.873-0.552-1.248-0.854c-0.187-0.152-0.362-0.308-0.525-0.473c-0.078-0.078-0.18-0.187-0.238-0.268
						c-0.051-0.05-0.174-0.284-0.167-0.379c-0.057-0.493,0.087-0.843,0.17-1.171c0.099-0.322,0.202-0.593,0.289-0.815
						C221.413,201.397,221.54,201.156,221.54,201.156z"/>
				</g>
				<g id="XMLID_284_">
					<path id="XMLID_288_" fill="#3A2719" d="M207.487,208.073"/>
					<g id="XMLID_285_">
						<path id="XMLID_286_" fill="#3A2719" d="M207.487,208.128c0.072,0,0.072-0.111,0-0.111S207.416,208.128,207.487,208.128
							L207.487,208.128z"/>
					</g>
				</g>
				<g id="XMLID_281_">
					<circle id="XMLID_283_" fill="#153158" cx="214.638" cy="194.535" r="2.427"/>
					<circle id="XMLID_282_" fill="#153158" cx="237.412" cy="194.535" r="2.427"/>
				</g>
				<g id="XMLID_278_">
					
						<path id="XMLID_280_" fill="none" stroke="#153158" stroke-width="2" stroke-linecap="round" stroke-linejoin="round" stroke-miterlimit="10" d="
						M208.308,189.492c1.823-2.287,4.39-4.006,7.284-4.56"/>
					
						<path id="XMLID_279_" fill="none" stroke="#153158" stroke-width="2" stroke-linecap="round" stroke-linejoin="round" stroke-miterlimit="10" d="
						M243.742,189.492c-1.823-2.287-4.39-4.006-7.284-4.56"/>
				</g>
				<g id="XMLID_274_">
					<path id="XMLID_503_" fill="#003AA5" d="M248.211,176.617c-3.336,2.825-7.569,4.331-11.743,5.632
						c-7.824,2.438-16.068,4.379-24.165,3.114c-4.482-0.7-8.866-2.422-12.326-5.357c-3.459-2.934-5.929-7.141-6.332-11.659
						c0.127,1.634,2.291,2.099,3.929,2.044c13.24-0.443,26.427-5.486,39.453-3.073c4.658,0.862,8.49,3.139,10.442,7.455"/>
					<g id="XMLID_417_">
						<path id="XMLID_499_" fill="#003AA5" d="M247.258,175.664c-7.351,6.514-20.663,9.098-30.271,8.777
							c-10.171-0.34-20.439-5.531-21.974-16.472c-0.912,0.251-1.823,0.502-2.734,0.754c0.799,2.25,2.47,2.896,4.783,3.057
							c4.943,0.344,10.428-1.028,15.279-1.854c10.231-1.741,27.958-5.949,34.248,5.36c0.645,1.16,2.326,0.14,1.761-1.029
							c-3.786-7.83-12.254-9.027-20.227-8.843c-4.932,0.113-9.817,0.916-14.679,1.694c-2.643,0.423-17.308,4.022-18.431,0.861
							c-0.625-1.758-2.984-1.027-2.734,0.754c3.671,26.178,41.418,19.288,56.612,9.057
							C250.498,176.699,248.731,174.359,247.258,175.664L247.258,175.664z"/>
					</g>
				</g>
				<path id="XMLID_327_" fill="#003AA5" d="M205.882,181.691c-0.149-0.435-0.629-0.667-1.048-0.427
					c-1.039,0.596-1.669,1.739-2.071,3.086c0.066-1.539,0.225-3.073,0.479-4.587c0.474-1.657-2.242-2.358-2.549-0.703
					c-0.86,4.62-0.649,9.037,0.748,13.505c0.329,1.051,1.672,0.724,1.764-0.214C204.455,185.761,206.411,183.234,205.882,181.691z"
					/>
				<g id="XMLID_326_">
					<path id="XMLID_509_" fill="#003AA5" d="M243.173,178.058c0.661,5.184,6.329,8.826,6.494,14.05
						c0.946-2.761,1.9-5.564,2.073-8.478c0.172-2.914-0.534-6.003-2.533-8.13"/>
					<g id="XMLID_422_">
						<path id="XMLID_507_" fill="#003AA5" d="M241.966,178.058c0.118,2.48,1.584,4.452,2.981,6.429
							c1.825,2.583,3.272,4.686,4.107,7.79c0.188,0.697,1.235,0.546,1.248-0.169c0.033-1.918,1.613-3.876,2.124-5.728
							c0.462-1.672,0.595-3.47,0.459-5.192c-0.188-2.378-0.84-5.447-3.204-6.496c-0.735-0.326-1.579,0.209-1.377,1.059
							c0.509,2.141,1.923,3.805,2.195,6.092c0.31,2.605,0.177,7.842-1.38,9.946c0.395,0.106,0.789,0.213,1.184,0.32
							c0.194-2.328-0.967-4.465-2.124-6.415c-1.594-2.688-2.874-4.958-3.842-7.957C243.936,176.494,241.899,176.64,241.966,178.058
							L241.966,178.058z"/>
					</g>
				</g>
				<path id="XMLID_331_" fill="#003AA5" d="M239.153,159.339c-5.159-1.057-10.648-0.325-15.728,0.816
					c-3.583,0.805-7.072,1.941-10.547,3.113c-5.058,1.706-8.227,0.733-12.149-3.099c-0.808-0.79-1.996-0.54-2.6,0.335
					c-1.734,2.507-2.228,5.542-1.684,8.268c-1.705-1.254-3.422-2.489-5.125-3.746c-0.626-0.462-1.771-0.003-1.895,0.771
					c-0.883,5.563-1.445,11.481,2.313,16.158c3.433,4.271,9.174,6.029,14.391,6.819c14.761,2.237,28.523-4.271,41.658-10.105
					c1.131-0.502,0.149-2.127-0.967-1.653c-0.432,0.184-0.866,0.366-1.299,0.548l2.725-1.913c0,0.006,0.001,0.013,0.001,0.019
					c0.056,0.884,1.32,1.383,1.784,0.483C253.915,168.623,246.041,160.75,239.153,159.339z"/>
				<g id="XMLID_332_">
					<path id="XMLID_316_" fill="#EDEDEB" d="M217.959,234.741c0,0,8.086,5.424,17.026-0.966c0,0,2.006,18.762-5.471,19.306
						C222.038,253.624,217.959,234.741,217.959,234.741z"/>
					<g id="XMLID_277_">
						<path id="XMLID_347_" fill="#259AFF" d="M255.867,233.775l-13.63-4.743l-9.654-1.198c-0.033,2.663-0.652,20.128-6.372,22.89
							c-5.631-2.719-6.703-19.698-6.749-22.764l-18.774,3.096l0.09,9.374l-3.619,18.956l2.617,39.736c0,0,12.988,2.724,24.777,3.826
							c18.679,1.747,26.952-3.826,26.952-3.826l3.583-39.196L255.867,233.775z"/>
					</g>
				</g>
				<g id="XMLID_275_">
					<path id="XMLID_273_" fill="#EDB6B3" d="M176.806,165.876c0,0,1.617-6.447,0.808-6.737c-0.809-0.29-1.478-0.396-1.961,0.724
						c-0.484,1.12-2.301,5.073-2.301,5.073l-1.603-3.531c0,0-1.81-8.513-2.173-9.513c-0.35-0.963-2.083-1.066-2.199,0.26
						c-0.06,0.691,1.027,9.917,1.027,9.917s-3.609-10.36-4.379-10.824s-2.12-0.032-1.853,1.658
						c0.088,0.556,2.692,10.541,2.692,10.541s-3.197-6.175-4.103-6.972c-0.905-0.797-1.787-0.069-1.906,0.736
						c-0.12,0.805,3.855,9.636,3.855,9.636s-2.21-2.424-3.008-2.886c-0.799-0.462-1.617,0.103-1.47,1.071s6.62,10.27,6.62,10.27
						l1.284,6.199l9.358-3.217c-0.363-0.991-0.802-4.801-0.802-4.801C174.894,173.069,176.806,165.876,176.806,165.876z"/>
					<polygon id="XMLID_229_" fill="#003AA5" stroke="#003AA5" stroke-width="0.25" stroke-miterlimit="10" points="175.87,177.153 
						175.384,174.466 162.733,176.552 163.478,180.248 					"/>
					<path id="XMLID_226_" fill="#259AFF" d="M174.94,231.19c-6.561-16.02-12.217-51.589-12.217-51.589l13.712-3.396
						c0,0,9.083,31.181,13.917,41.076c2.327,4.763,8.632,12.808,12.537,15.387c-2.639,10.886,0.904,19.021-5.041,28.18l0.09-0.957
						C197.939,259.89,180.715,245.291,174.94,231.19z"/>
				</g>
				<linearGradient id="XMLID_330_" gradientUnits="userSpaceOnUse" x1="291.2603" y1="215.6182" x2="276.436" y2="215.6182">
					<stop  offset="0" style="stop-color:#FDDA42"/>
					<stop  offset="1" style="stop-color:#E5A003"/>
				</linearGradient>
				<polygon id="XMLID_365_" fill="url(#XMLID_330_)" points="276.436,212.321 291.26,212.321 289.349,218.915 278.584,218.915 				
					"/>
				<g id="XMLID_501_">
					<path id="XMLID_504_" fill="#EDB6B3" d="M303.487,180.537c0,0,8.85-4.714,10.101,2.02s-2.789,13.372-10.004,9.716
						C296.369,188.617,303.487,180.537,303.487,180.537z"/>
					<path id="XMLID_502_" opacity="0.7" fill="#EDB6B3" d="M306.118,186.015c0.596-2.191,1.304-3.446,2.168-3.837
						c2.222-1.005,3.937,0.607,4.532,1.599c0.118,0.198,0.055,0.453-0.143,0.572c-0.196,0.121-0.454,0.058-0.573-0.141
						c-0.042-0.069-0.827-1.327-2.132-1.49c1.289,1.326,2.659,3.765,0.866,5.99c-0.083,0.103-0.203,0.156-0.325,0.156
						c-0.093,0-0.185-0.031-0.262-0.092c-0.18-0.145-0.208-0.408-0.063-0.587c2.03-2.52-1.13-5.191-1.266-5.303
						c-0.013-0.011-0.02-0.026-0.031-0.039c-0.085,0.03-0.171,0.057-0.26,0.097c-0.277,0.126-1,0.699-1.706,3.296
						c-0.05,0.186-0.218,0.308-0.402,0.308c-0.036,0-0.073-0.004-0.109-0.014C306.189,186.468,306.057,186.238,306.118,186.015z"/>
				</g>
				<g id="XMLID_497_">
					<path id="XMLID_500_" fill="#EDB6B3" d="M264.214,180.537c0,0-8.851-4.714-10.101,2.02c-1.251,6.734,2.789,13.372,10.004,9.716
						C271.333,188.617,264.214,180.537,264.214,180.537z"/>
					<path id="XMLID_498_" opacity="0.7" fill="#EDB6B3" d="M261.583,186.015c-0.596-2.191-1.304-3.446-2.168-3.837
						c-2.222-1.005-3.937,0.607-4.532,1.599c-0.118,0.198-0.055,0.453,0.143,0.572c0.196,0.121,0.454,0.058,0.573-0.141
						c0.042-0.069,0.827-1.327,2.132-1.49c-1.289,1.326-2.659,3.765-0.866,5.99c0.083,0.103,0.203,0.156,0.325,0.156
						c0.093,0,0.185-0.031,0.262-0.092c0.18-0.145,0.208-0.408,0.063-0.587c-2.031-2.52,1.13-5.191,1.266-5.303
						c0.013-0.011,0.02-0.026,0.031-0.039c0.085,0.03,0.171,0.057,0.259,0.097c0.278,0.126,1.001,0.699,1.707,3.296
						c0.05,0.186,0.218,0.308,0.402,0.308c0.036,0,0.073-0.004,0.109-0.014C261.512,186.468,261.643,186.238,261.583,186.015z"/>
				</g>
				<g id="XMLID_491_">
					<path id="XMLID_496_" fill="#EDB6B3" d="M283.871,203.312c-3.61,0-6.538,2.685-6.538,5.997v7.567l-0.044,0.022v-0.103
						c0,3.604,2.922,6.526,6.525,6.526l0,0c3.604,0,6.525-2.922,6.525-6.526v-0.966h0.069v-6.521
						C290.409,205.997,287.481,203.312,283.871,203.312z"/>
					<g id="XMLID_492_">
						<defs>
							<path id="XMLID_493_" d="M286.268,230.279h-4.795c-2.287,0-4.141-1.854-4.141-4.141v-21.105c0-0.951,0.771-1.721,1.722-1.721
								h9.633c0.951,0,1.722,0.771,1.722,1.721v21.105C290.409,228.425,288.554,230.279,286.268,230.279z"/>
						</defs>
						<clipPath id="XMLID_334_">
							<use xlink:href="#XMLID_493_"  overflow="visible"/>
						</clipPath>
						<g id="XMLID_494_" clip-path="url(#XMLID_334_)">
							<path id="XMLID_495_" fill="#EDB6B3" d="M313.859,155.567h-29.262h-0.008h-29.262c0,0-2.563,33.968,1.394,42.959
								c2.15,4.889,9.326,9.865,16.123,14.036c7.229,4.435,16.661,4.407,23.85-0.082c6.654-4.156,13.635-9.095,15.772-13.954
								C316.421,189.535,313.859,155.567,313.859,155.567z"/>
						</g>
					</g>
				</g>
				<path id="XMLID_490_" fill="#EDB6B3" d="M307.777,172.178c-0.187-6.348-5.396-11.391-11.746-11.391h-12.178h-0.006h-11.964
					c-6.47,0-11.78,5.139-11.966,11.605c-0.264,9.2,0.915,21.246,2.767,25.833c1.719,4.261,6.344,8.599,11.779,12.234
					c5.778,3.865,13.309,3.841,19.056-0.071c5.32-3.622,9.789-7.927,11.498-12.163C306.882,193.604,308.048,181.405,307.777,172.178
					z"/>
				<path id="XMLID_489_" fill="#3A2719" d="M305.294,165.35"/>
				<g id="XMLID_458_">
					<defs>
						<path id="XMLID_465_" d="M294.52,197.763c-0.425-1.118-1.972-0.82-4.708,0.42c-2.963,1.344-8.188,1.669-11.91,0.262
							c-2.819-1.066-4.22-1.174-4.724-0.213c-0.504,0.961,2.627,6.621,8.563,7.306c1.111,0.128,2.798,0.173,4.593-0.101
							C292.238,204.535,294.989,198.996,294.52,197.763z"/>
					</defs>
					<clipPath id="XMLID_335_">
						<use xlink:href="#XMLID_465_"  overflow="visible"/>
					</clipPath>
					<g id="XMLID_487_" clip-path="url(#XMLID_335_)">
						<path id="XMLID_488_" fill="#7F3322" d="M294.52,197.763c-0.425-1.118-1.972-0.82-4.708,0.42
							c-2.963,1.344-8.188,1.669-11.91,0.262c-2.819-1.066-4.22-1.174-4.724-0.213c-0.504,0.961,2.627,6.621,8.563,7.306
							c1.111,0.128,2.798,0.173,4.593-0.101C292.238,204.535,294.989,198.996,294.52,197.763z"/>
					</g>
					<g id="XMLID_484_" clip-path="url(#XMLID_335_)">
						<g id="XMLID_485_">
							<path id="XMLID_486_" fill="#FFFFFF" d="M275.739,197.003c0,0,0.1,3.938,7.45,4.058c7.351,0.12,9.517-1.804,9.548-4.525
								L275.739,197.003z"/>
						</g>
					</g>
					<g id="XMLID_481_" clip-path="url(#XMLID_335_)">
						<g id="XMLID_482_">
							<path id="XMLID_483_" fill="#EDB6B3" d="M278.454,204.824c0,0,5.057-3.02,12.878-0.189l-6.042,3.886L278.454,204.824z"/>
						</g>
					</g>
					<g id="XMLID_470_" clip-path="url(#XMLID_335_)">
						<g id="XMLID_471_">
							<path id="XMLID_480_" fill="#EDB6B3" d="M278.454,204.824c0,0,5.057-3.02,12.878-0.189l-6.042,3.886L278.454,204.824z"/>
						</g>
					</g>
				</g>
				<g id="XMLID_456_">
					<path id="XMLID_457_" fill="#EDB6B3" d="M279.366,188.105c0,0-0.061,0.264-0.167,0.726c-0.051,0.23-0.109,0.511-0.154,0.833
						c-0.042,0.311-0.084,0.707-0.015,1.019c0.049,0.212,0.498,0.5,0.844,0.735c0.377,0.246,0.802,0.463,1.237,0.68
						c0.871,0.41,1.892,0.762,2.83,0.701c0.285-0.018,0.51-0.054,0.748-0.104c0.246-0.053,0.489-0.125,0.729-0.203
						c0.481-0.156,0.949-0.354,1.385-0.576c0.437-0.221,0.857-0.447,1.222-0.702c0.181-0.126,0.356-0.259,0.484-0.393
						c0.069-0.076,0.11-0.108,0.132-0.184c0.036-0.112,0.036-0.139,0.049-0.249c0.069-0.762-0.01-1.458-0.047-1.922
						c-0.041-0.473-0.065-0.743-0.065-0.743s0.087,0.258,0.21,0.718c0.053,0.232,0.117,0.515,0.19,0.839
						c0.062,0.329,0.141,0.696,0.144,1.133c0.005,0.091-0.016,0.274-0.041,0.363c-0.023,0.132-0.123,0.276-0.192,0.364
						c-0.155,0.2-0.328,0.36-0.512,0.522c-0.369,0.316-0.776,0.619-1.229,0.884c-0.454,0.262-0.939,0.509-1.464,0.702
						c-0.264,0.092-0.534,0.176-0.813,0.243c-0.287,0.067-0.598,0.116-0.853,0.135c-1.24,0.064-2.325-0.376-3.243-0.881
						c-0.463-0.25-0.873-0.552-1.247-0.854c-0.187-0.152-0.362-0.308-0.525-0.473c-0.077-0.078-0.181-0.187-0.238-0.268
						c-0.051-0.05-0.174-0.284-0.166-0.379c-0.058-0.493,0.087-0.843,0.17-1.171c0.099-0.322,0.201-0.593,0.289-0.815
						C279.239,188.346,279.366,188.105,279.366,188.105z"/>
				</g>
				<g id="XMLID_452_">
					<path id="XMLID_455_" fill="#3A2719" d="M265.313,195.021"/>
					<g id="XMLID_453_">
						<path id="XMLID_454_" fill="#3A2719" d="M265.313,195.077c0.071,0,0.071-0.111,0-0.111
							C265.241,194.966,265.241,195.077,265.313,195.077L265.313,195.077z"/>
					</g>
				</g>
				<g id="XMLID_448_">
					<circle id="XMLID_451_" fill="#153158" cx="272.463" cy="181.483" r="2.427"/>
					<circle id="XMLID_450_" fill="#153158" cx="295.238" cy="181.483" r="2.427"/>
				</g>
				<g id="XMLID_438_">
					
						<path id="XMLID_445_" fill="none" stroke="#153158" stroke-width="2" stroke-linecap="round" stroke-linejoin="round" stroke-miterlimit="10" d="
						M266.133,176.44c1.824-2.287,4.39-4.006,7.284-4.56"/>
					
						<path id="XMLID_439_" fill="none" stroke="#153158" stroke-width="2" stroke-linecap="round" stroke-linejoin="round" stroke-miterlimit="10" d="
						M301.567,176.44c-1.823-2.287-4.39-4.006-7.283-4.56"/>
				</g>
				<path id="XMLID_526_" fill="#003AA5" d="M309.954,163.837c-0.463-3.094-1.5-6.141-3.278-8.73
					c0.924-1.247,1.649-2.667,2.149-3.856c1.335-3.17,1.521-6.537,0.935-9.897c-0.218-1.25-1.905-1.5-2.713-0.716
					c-1.973,1.915-4.082,3.062-6.403,4.063c1.15-1.94,1.908-3.981,2.052-5.953c0.096-1.331-1.397-1.819-2.4-1.377
					c-4.479,1.975-9.968,3.105-14.591,5.345c0.112-0.239,0.215-0.485,0.317-0.731c0.374-0.334,2.172-5.217,0.813-5.149
					c-1.459,0.073-2.277,2.583-5.859,3.606c-2.204,0.724-29.058,1.979-22.931,31.748c0.276,2.334,0.773,4.599,1.477,6.71
					c0.021,0.26,0.035,0.521,0.059,0.781c0.133,1.481,2.449,1.51,2.338,0c0.005-0.097,0.007-0.2,0.012-0.297
					c0.003-0.038,0.018-0.066,0.018-0.105c-0.001-0.07-0.004-0.14-0.005-0.21c0.027-0.704,0.043-1.433,0.048-2.188
					c0.24-2.269,0.65-4.853,1.685-7.203c1.188-2.701,3.624-4.747,6.544-5.169c4.051-0.585,8.966,0.805,13.313,1.419
					c5.795,0.819,14.532-4.068,19.323-0.212c2.644,3.375,2.849,9.038,3.581,13.128c0.257,1.432,2.467,1.051,2.481-0.336
					C308.968,173.393,310.734,169.043,309.954,163.837z"/>
				<g id="XMLID_363_">
					<polygon id="XMLID_355_" fill="#FDDA42" points="276.436,212.321 271.924,215.57 276.189,226.891 283.826,223.321 					"/>
					<polygon id="XMLID_364_" fill="#FDDA42" points="291.26,212.321 295.772,215.57 292.339,226.891 283.871,223.321 					"/>
				</g>
				<path id="XMLID_3_" fill="#137CBC" d="M232.583,227.834"/>
				<path id="XMLID_405_" fill="#EDB6B3" d="M300.918,303.632c0,0-4.973,3.708-4.559,4.396c0.413,0.687,0.834,1.158,1.845,0.634
					c1.011-0.525,4.656-2.312,4.656-2.312l-0.924,3.499c0,0-3.713,7.223-4.04,8.16c-0.314,0.903,0.878,2,1.743,1.109
					c0.451-0.465,5.106-7.776,5.106-7.776s-3.501,9.62-3.218,10.409c0.284,0.789,1.515,1.273,2.317-0.106
					c0.265-0.453,4.271-9.21,4.271-9.21s-1.331,6.352-1.146,7.462c0.186,1.109,1.252,1.104,1.813,0.592s2.896-9.241,2.896-9.241
					s0.169,3.057,0.474,3.861s1.229,0.879,1.694,0.092s1.271-11.331,1.271-11.331l2.729-5.24l-8.664-3.193
					c-0.322,0.931-2.252,3.944-2.252,3.944C306.542,299.559,300.918,303.632,300.918,303.632z"/>
				<polygon id="XMLID_423_" opacity="0.3" fill="#137CBC" points="305.548,293.558 310.66,268.615 311.985,280.439 				"/>
				<polygon id="XMLID_421_" fill="#FDDA42" points="307.915,291.926 306.292,297.191 317.819,302.81 320.002,299.275 				"/>
				<path id="XMLID_367_" fill="#137CBC" d="M313.199,218.393c0,0,19.271,29.801,20.511,36.901c1.241,7.101-13.475,46.2-13.475,46.2
					l-14.687-7.936l10.913-33.701l-8.991-22.271L313.199,218.393z"/>
				<path id="XMLID_425_" fill="#EDB6B3" d="M199.757,228.505"/>
			</g>
			<g id="XMLID_245_">
				<polygon id="XMLID_54_" fill="#003AA5" stroke="#003AA5" stroke-width="0.25" stroke-miterlimit="10" points="175.677,363.333 
					148.677,360.615 148.677,360.588 148.545,360.602 148.413,360.588 148.413,360.615 121.413,363.333 118.083,390.359 
					118.94,390.463 148.413,390.463 148.677,390.463 178.15,390.463 179.007,390.359 				"/>
				<path id="XMLID_297_" fill="#259AFF" d="M148.433,377.32c12.935-0.359,30.457-3.588,30.457-3.588l-3.958-69.93
					c0.289-3.066,0.342-4.643-2.863-5.678c-4.414-1.425-22.279-9.581-22.279-9.581c-0.084-0.009-0.168-0.008-0.252-0.014v-0.022
					h-1.103h-0.814h-1.038v0.022c-0.081,0.006-0.163,0.005-0.244,0.014c0,0-17.255,8.156-21.519,9.581
					c-3.096,1.035-2.988,2.611-2.709,5.678l-4.738,69.93c0,0,17.758,3.224,30.248,3.587L148.433,377.32z"/>
				<g id="XMLID_464_">
					<path id="XMLID_67_" fill="#EDB6B3" d="M108.334,323.253c0,0-2.397,15.044-1.458,16.602s16.52,5.707,27.08,3.2
						c10.56-2.508,23.197-8.221,23.197-8.221l-26.141-6.901l-11.252,1.035C119.76,328.968,111.796,326.733,108.334,323.253z"/>
					<g id="XMLID_145_">
						<defs>
							<path id="XMLID_141_" d="M108.334,323.253c0,0-2.397,15.044-1.458,16.602s16.52,5.707,27.08,3.2
								c10.56-2.508,23.197-8.221,23.197-8.221l-26.141-6.901l-11.252,1.035C119.76,328.968,111.796,326.733,108.334,323.253z"/>
						</defs>
						<clipPath id="XMLID_336_">
							<use xlink:href="#XMLID_141_"  overflow="visible"/>
						</clipPath>
						<path id="XMLID_133_" opacity="0.3" clip-path="url(#XMLID_336_)" fill="#EDB6B3" d="M124.137,329.992
							c0,0,11.331,4.459,11.331,5.741c0,1.283,0.855,5.089-29.717,3.935c0,0,23.303,14.452,45.323,7.183
							c22.021-7.269,6.078-10.476,6.078-10.476L124.137,329.992z"/>
					</g>
				</g>
				<g id="XMLID_449_">
					<path id="XMLID_69_" fill="#259AFF" d="M104.31,325.112l13.683,4.076l5.686-1.644l2.764-2.609l17.428-6.729l-0.103-29.698
						c0,0-23.951,5.751-30.954,13.87C108.667,307.184,104.31,325.112,104.31,325.112z"/>
					<path id="XMLID_38_" opacity="0.5" fill="#259AFF" d="M118.037,329.088c0,0,1.883-10.42,4.064-17.513l0.802,18.416
						L118.037,329.088z"/>
				</g>
				<g id="XMLID_227_">
					<path id="XMLID_287_" fill="#259AFF" d="M192.78,325.112l-13.682,4.076l-5.686-1.644l-2.764-2.609l-17.324-6.729v-29.698
						c0,0,23.951,5.751,30.954,13.87C188.422,307.184,192.78,325.112,192.78,325.112z"/>
					<path id="XMLID_247_" opacity="0.5" fill="#259AFF" d="M179.053,329.088c0,0-1.883-10.42-4.064-17.513l-0.802,18.416
						L179.053,329.088z"/>
				</g>
				<g id="XMLID_254_">
					<path id="XMLID_63_" fill="#E2ABAA" d="M168.105,322.754c0,0,1.958-4.092,2.543-4.979c0.586-0.886,2.727,0.473,1.905,2.269
						s-1.201,2.455-1.201,2.455L168.105,322.754z"/>
					<path id="XMLID_304_" fill="#EDB6B3" d="M156.742,330.199c0,0,12.143-8.924,12.728-8.924c0.585,0,9.261-0.203,9.832-0.084
						c0.513,0.107,0.636,1.064,0.502,1.543c-0.081,0.287-0.333,0.489-0.631,0.504l-5.931,0.402v0.122c0,0,5.42-0.044,7.678,0.113
						c0.481,0.034,0.846,0.438,0.839,0.921l0,0c-0.007,0.476-0.379,0.865-0.854,0.895l-6.828,0.532l8.126,0.477l0.726,2.329
						l-19.896,3.072L156.742,330.199z"/>
				</g>
				<g id="XMLID_253_">
					<g id="XMLID_244_">
						<path id="XMLID_68_" fill="#EDB6B3" d="M188.299,326.184c0,0,1.314,7.438,1.314,10.425s-5.454,6.27-8.05,6.446
							c-2.597,0.176-55.701-12.205-58.557-12.441c-2.857-0.237-5.324-0.839-5.324-0.839s2.597-4.946,7.401-6.521
							c4.804-1.576,10.257,0.92,13.503,1.685c3.246,0.765,20.645,3.148,29.733,2.995
							C177.408,327.78,188.299,326.184,188.299,326.184z"/>
						<g id="XMLID_86_">
							<defs>
								<path id="XMLID_71_" d="M188.299,326.184c0,0,1.314,7.438,1.314,10.425s-5.454,6.27-8.05,6.446
									c-2.597,0.176-55.701-12.205-58.557-12.441c-2.857-0.237-5.324-0.839-5.324-0.839s2.597-4.946,7.401-6.521
									c4.804-1.576,10.257,0.92,13.503,1.685c3.246,0.765,20.645,3.148,29.733,2.995
									C177.408,327.78,188.299,326.184,188.299,326.184z"/>
							</defs>
							<clipPath id="XMLID_337_">
								<use xlink:href="#XMLID_71_"  overflow="visible"/>
							</clipPath>
							<path id="XMLID_70_" opacity="0.25" clip-path="url(#XMLID_337_)" fill="#EDB6B3" d="M188.002,339.667
								c0,0-14.741-1.369-33.495-4.646c-18.754-3.278-36.825-5.246-36.825-5.246l64.25,15.223L188.002,339.667z"/>
						</g>
					</g>
					<g id="XMLID_246_" opacity="0.3">
						<path id="XMLID_192_" fill="#EDB6B3" d="M160.123,327.733c0,0,0.333-0.013,0.917-0.033c0.582-0.011,1.413-0.026,2.411-0.044
							c1.992-0.018,4.642,0.008,7.287,0.042c2.645,0.044,5.287,0.084,7.271,0.08c0.497-0.002,0.952-0.003,1.355-0.005
							c0.405,0.005,0.757-0.005,1.046-0.021c0.581-0.021,0.917-0.019,0.917-0.019s-0.322,0.086-0.893,0.212
							c-0.286,0.065-0.634,0.135-1.036,0.199c-0.401,0.065-0.855,0.16-1.353,0.207c-1.989,0.259-4.659,0.384-7.322,0.346
							c-2.663-0.041-5.319-0.235-7.303-0.471c-0.992-0.111-1.815-0.251-2.392-0.333C160.45,327.801,160.123,327.733,160.123,327.733
							z"/>
					</g>
				</g>
				<g id="XMLID_312_">
					<g id="XMLID_216_">
						<path id="XMLID_271_" fill="#003AA5" d="M158.062,230.469c2.105-1.712,5.259-1.049,7.69,0.154
							c4.09,2.025,7.588,5.469,9.087,9.779c0.645,1.853,0.913,3.817,1.022,5.775c0.163,2.899-0.224,6.23-2.579,7.931
							c-0.296,0.214-0.641,0.4-1.005,0.373c-0.681-0.052-1.073-0.786-1.295-1.432c-0.703-2.044-1.004-4.204-1.6-6.282
							c-1.712-5.976-5.75-10.983-9.922-15.592"/>
						<g id="XMLID_264_">
							<path id="XMLID_269_" fill="#003AA5" d="M158.754,231.653c5.33-3.029,12.228,3.793,14.171,8.08
								c1.003,2.212,1.439,4.647,1.452,7.077c0.013,2.524-0.961,7.057-2.729,2.696c-1.473-3.635-1.963-7.104-4.135-10.519
								c-1.957-3.076-4.438-6.713-7.603-8.581c-0.827-0.488-1.564,0.452-1.219,1.218c1.681,3.727,4.979,6.598,6.947,10.25
								c2.045,3.795,2.063,8.264,4.007,11.956c2.569,4.88,6.697,0.038,7.473-3.447c1.289-5.79-0.763-12.533-4.814-16.764
								c-3.687-3.849-9.827-7.452-14.934-4.335C155.865,230.204,157.214,232.528,158.754,231.653L158.754,231.653z"/>
						</g>
					</g>
					<g id="XMLID_195_">
						<path id="XMLID_263_" fill="#003AA5" d="M125.986,254.189c-4.255-6.075-3.914-14.768,0.197-20.942
							c4.11-6.174,11.518-9.784,18.931-10.025c3.974-0.129,8.311,0.829,10.816,3.917c0.677,0.834,1.188,2.065,0.565,2.94
							c-0.271,0.381-0.704,0.606-1.127,0.805c-4.076,1.91-8.612,2.532-13.004,3.515c-4.392,0.983-8.883,2.455-12.068,5.636
							c-3.619,3.615-5.024,9.287-3.512,14.173"/>
						<g id="XMLID_258_">
							<path id="XMLID_262_" fill="#003AA5" d="M126.856,253.68c-5.065-8.919-2.247-19.679,6.469-25.127
								c3.869-2.418,8.725-3.737,13.292-3.525c1.957,0.091,4.676,0.429,6.229,1.71c4.44,3.665-1.876,3.967-4.325,4.566
								c-6.76,1.652-14.117,2.401-19.208,7.746c-3.831,4.022-5.023,10.203-3.692,15.478c0.38,1.506,2.708,0.868,2.328-0.642
								c-4.279-16.957,15.832-16.656,26.335-20.661c8.921-3.401,0.992-10.426-4.931-11.491
								c-17.564-3.157-35.678,16.648-24.237,32.963C125.851,255.745,127.508,254.827,126.856,253.68L126.856,253.68z"/>
						</g>
					</g>
					<g id="XMLID_183_">
						<path id="XMLID_186_" fill="#EDB6B3" d="M167.466,254.994c0,0,8.386-4.466,9.571,1.915c1.185,6.38-2.643,12.67-9.48,9.206
							C160.721,262.651,167.466,254.994,167.466,254.994z"/>
						<path id="XMLID_184_" opacity="0.7" fill="#EDB6B3" d="M169.959,260.185c0.564-2.076,1.235-3.265,2.054-3.636
							c2.105-0.952,3.73,0.574,4.295,1.515c0.112,0.188,0.052,0.43-0.135,0.542c-0.186,0.114-0.43,0.055-0.543-0.134
							c-0.041-0.065-0.784-1.257-2.021-1.412c1.222,1.257,2.521,3.568,0.821,5.677c-0.078,0.097-0.192,0.147-0.308,0.147
							c-0.087,0-0.175-0.029-0.248-0.088c-0.17-0.137-0.197-0.387-0.06-0.557c1.924-2.388-1.07-4.919-1.199-5.025
							c-0.012-0.01-0.018-0.024-0.029-0.036c-0.081,0.028-0.162,0.054-0.246,0.092c-0.264,0.12-0.949,0.663-1.617,3.123
							c-0.048,0.177-0.207,0.292-0.381,0.292c-0.034,0-0.069-0.004-0.104-0.014C170.026,260.614,169.902,260.397,169.959,260.185z"
							/>
					</g>
					<g id="XMLID_179_">
						<path id="XMLID_182_" fill="#EDB6B3" d="M130.253,254.994c0,0-8.386-4.466-9.571,1.915c-1.185,6.38,2.644,12.67,9.48,9.206
							S130.253,254.994,130.253,254.994z"/>
						<path id="XMLID_180_" opacity="0.7" fill="#EDB6B3" d="M127.76,260.185c-0.564-2.076-1.235-3.265-2.054-3.636
							c-2.105-0.952-3.73,0.574-4.295,1.515c-0.112,0.188-0.051,0.43,0.136,0.542c0.186,0.114,0.43,0.055,0.543-0.134
							c0.04-0.065,0.784-1.257,2.02-1.412c-1.221,1.257-2.52,3.568-0.821,5.677c0.079,0.097,0.193,0.147,0.308,0.147
							c0.088,0,0.175-0.029,0.249-0.088c0.17-0.137,0.197-0.387,0.06-0.557c-1.924-2.388,1.071-4.919,1.2-5.025
							c0.012-0.01,0.018-0.024,0.029-0.036c0.082,0.028,0.162,0.054,0.246,0.092c0.263,0.12,0.949,0.663,1.617,3.123
							c0.048,0.177,0.207,0.292,0.382,0.292c0.034,0,0.069-0.004,0.104-0.014C127.693,260.614,127.817,260.397,127.76,260.185z"/>
					</g>
					<g id="XMLID_173_">
						<path id="XMLID_224_" fill="#EDB6B3" d="M154.507,282.257c0-3.138-2.773-5.683-6.195-5.683c-3.421,0-6.195,2.545-6.195,5.683
							l-0.014,6.825c-0.003,3.426,2.773,6.204,6.198,6.204l0,0c3.422,0,6.197-2.773,6.199-6.195L154.507,282.257z"/>
						<g id="XMLID_174_">
							<defs>
								<path id="XMLID_175_" d="M150.367,302.128h-4.109c-2.287,0-4.14-1.854-4.14-4.141v-19.691c0-0.95,0.771-1.721,1.721-1.721
									h8.948c0.95,0,1.721,0.771,1.721,1.721v19.691C154.507,300.274,152.653,302.128,150.367,302.128z"/>
							</defs>
							<clipPath id="XMLID_338_">
								<use xlink:href="#XMLID_175_"  overflow="visible"/>
							</clipPath>
							<g id="XMLID_176_" clip-path="url(#XMLID_338_)">
								<path id="XMLID_177_" fill="#EDB6B3" d="M176.728,231.334H149h-0.007h-27.728c0,0-2.428,32.187,1.32,40.707
									c2.038,4.632,8.837,9.348,15.278,13.3c6.849,4.202,15.788,4.176,22.6-0.077c6.305-3.938,12.919-8.618,14.945-13.223
									C179.156,263.521,176.728,231.334,176.728,231.334z"/>
							</g>
						</g>
					</g>
					<path id="XMLID_172_" fill="#EDB6B3" d="M171.532,247.074c-0.177-6.016-5.113-10.793-11.131-10.793h-11.539h-0.006H137.52
						c-6.13,0-11.163,4.869-11.338,10.997c-0.25,8.718,0.868,20.132,2.622,24.479c1.629,4.038,6.012,8.148,11.162,11.593
						c5.475,3.662,12.611,3.64,18.057-0.067c5.042-3.432,9.276-7.512,10.896-11.525
						C170.684,267.375,171.789,255.817,171.532,247.074z"/>
					<g id="XMLID_155_">
						<defs>
							<path id="XMLID_159_" d="M158.285,271.317c-0.375-1.059-1.741-0.777-4.158,0.397c-2.618,1.273-7.233,1.582-10.521,0.248
								c-2.49-1.01-3.727-1.112-4.171-0.201c-0.446,0.911,2.32,6.273,7.563,6.923c0.981,0.121,2.471,0.164,4.057-0.096
								C156.27,277.734,158.699,272.485,158.285,271.317z"/>
						</defs>
						<clipPath id="XMLID_340_">
							<use xlink:href="#XMLID_159_"  overflow="visible"/>
						</clipPath>
						<g id="XMLID_170_" clip-path="url(#XMLID_340_)">
							<path id="XMLID_171_" fill="#7F3322" d="M158.285,271.317c-0.375-1.059-1.741-0.777-4.158,0.397
								c-2.618,1.273-7.233,1.582-10.521,0.248c-2.49-1.01-3.727-1.112-4.171-0.201c-0.446,0.911,2.32,6.273,7.563,6.923
								c0.981,0.121,2.471,0.164,4.057-0.096C156.27,277.734,158.699,272.485,158.285,271.317z"/>
						</g>
						<g id="XMLID_167_" clip-path="url(#XMLID_340_)">
							<g id="XMLID_168_">
								<path id="XMLID_169_" fill="#FFFFFF" d="M141.697,270.596c0,0,0.088,3.732,6.581,3.846s8.405-1.71,8.433-4.288
									L141.697,270.596z"/>
							</g>
						</g>
						<g id="XMLID_164_" clip-path="url(#XMLID_340_)">
							<g id="XMLID_165_">
								<path id="XMLID_166_" fill="#EDB6B3" d="M144.094,278.007c0,0,4.466-2.86,11.375-0.179l-5.336,3.682L144.094,278.007z"/>
							</g>
						</g>
						<g id="XMLID_160_" clip-path="url(#XMLID_340_)">
							<g id="XMLID_162_">
								<path id="XMLID_163_" fill="#EDB6B3" d="M144.094,278.007c0,0,4.466-2.86,11.375-0.179l-5.336,3.682L144.094,278.007z"/>
							</g>
						</g>
					</g>
					<g id="XMLID_153_">
						<path id="XMLID_154_" fill="#EDB6B3" d="M144.61,263.875c0,0-0.058,0.25-0.158,0.688c-0.048,0.218-0.104,0.484-0.146,0.789
							c-0.04,0.294-0.079,0.67-0.014,0.966c0.046,0.2,0.472,0.474,0.8,0.696c0.357,0.232,0.759,0.439,1.172,0.645
							c0.825,0.388,1.792,0.722,2.682,0.664c0.27-0.017,0.482-0.051,0.708-0.098c0.233-0.051,0.464-0.118,0.691-0.193
							c0.457-0.147,0.899-0.335,1.313-0.545s0.812-0.424,1.158-0.665c0.171-0.119,0.337-0.245,0.458-0.372
							c0.066-0.072,0.105-0.103,0.125-0.175c0.034-0.105,0.034-0.131,0.046-0.235c0.066-0.723-0.009-1.382-0.044-1.821
							c-0.04-0.448-0.063-0.704-0.063-0.704s0.082,0.244,0.198,0.681c0.05,0.22,0.111,0.487,0.181,0.795
							c0.058,0.312,0.133,0.659,0.136,1.073c0.004,0.086-0.016,0.26-0.039,0.344c-0.022,0.126-0.116,0.262-0.183,0.346
							c-0.146,0.189-0.311,0.341-0.484,0.494c-0.35,0.299-0.736,0.586-1.166,0.837c-0.43,0.248-0.89,0.482-1.387,0.666
							c-0.25,0.087-0.506,0.167-0.771,0.229c-0.272,0.064-0.566,0.11-0.808,0.129c-1.175,0.061-2.203-0.356-3.073-0.835
							c-0.439-0.237-0.827-0.523-1.182-0.81c-0.177-0.144-0.343-0.291-0.498-0.447c-0.074-0.074-0.171-0.178-0.226-0.254
							c-0.048-0.047-0.165-0.269-0.157-0.358c-0.055-0.468,0.083-0.799,0.161-1.11c0.093-0.305,0.191-0.563,0.273-0.772
							C144.489,264.104,144.61,263.875,144.61,263.875z"/>
					</g>
					<g id="XMLID_132_">
						<path id="XMLID_152_" fill="#3A2719" d="M131.294,267.009"/>
						<g id="XMLID_150_">
							<path id="XMLID_151_" fill="#3A2719" d="M131.294,267.062c0.068,0,0.068-0.105,0-0.105S131.226,267.062,131.294,267.062
								L131.294,267.062z"/>
						</g>
					</g>
					<g id="XMLID_45_">
						<circle id="XMLID_87_" fill="#153158" cx="138.07" cy="255.891" r="2.3"/>
						<circle id="XMLID_64_" fill="#153158" cx="159.65" cy="255.891" r="2.3"/>
					</g>
					<g id="XMLID_14_">
						
							<path id="XMLID_44_" fill="none" stroke="#153158" stroke-width="2" stroke-linecap="round" stroke-linejoin="round" stroke-miterlimit="10" d="
							M132.072,251.113c1.728-2.167,4.159-3.796,6.902-4.321"/>
						
							<path id="XMLID_19_" fill="none" stroke="#153158" stroke-width="2" stroke-linecap="round" stroke-linejoin="round" stroke-miterlimit="10" d="
							M165.647,251.113c-1.728-2.167-4.16-3.796-6.902-4.321"/>
					</g>
					<g id="XMLID_185_">
						<path id="XMLID_256_" fill="#003AA5" d="M159.275,231.207c0.309,0.484-0.036,1.107-0.371,1.574
							c-1.945,2.702-3.909,5.427-6.379,7.659c-2.47,2.232-5.519,3.963-8.832,4.291c-0.369,0.036-0.779,0.042-1.061-0.198
							c-0.285-0.243-0.342-0.657-0.34-1.03c0.011-2.249,1.42-4.24,2.941-5.896c3.032-3.301,6.763-5.958,10.875-7.743"/>
						<g id="XMLID_238_">
							<path id="XMLID_255_" fill="#003AA5" d="M158.586,231.016c-0.782,2.835-3.957,5.871-6.044,7.874
								c-1.264,1.212-2.647,2.343-4.216,3.14c-0.552,0.28-4.034,1.797-4.64,1.416c-1.555-0.978,4.888-7.083,5.848-7.869
								c2.287-1.87,4.919-3.225,7.245-5.042c0.82-0.641-0.102-1.745-0.923-1.586c-4.807,0.925-9.389,4.737-12.419,8.461
								c-1.437,1.766-4.523,7.224-0.916,8.532c3.591,1.302,8.835-2.828,11.199-5.092c1.803-1.728,3.335-3.717,4.794-5.737
								c1.12-1.551,2.15-2.479,1.379-4.268C159.639,230.257,158.736,230.472,158.586,231.016L158.586,231.016z"/>
						</g>
					</g>
					<g id="XMLID_187_">
						<path id="XMLID_235_" fill="#003AA5" d="M152.166,233.085c-5.822,4.814-12.382,8.735-19.38,11.582
							c-1.209,0.492-2.681,0.926-3.74,0.162c-0.732-0.529-1.022-1.521-0.908-2.417c0.114-0.896,0.572-1.712,1.093-2.449
							c1.216-1.72,2.812-3.139,4.509-4.385c6.016-4.415,13.514-6.771,20.973-6.592"/>
						<g id="XMLID_228_">
							<path id="XMLID_234_" fill="#003AA5" d="M151.419,232.339c-3.241,2.888-7.585,5.407-11.454,7.408
								c-1.563,0.809-4.381,2.506-5.995,2.713c-1.931,1.386-2.777,0.551-2.536-2.507c0.518-0.599,1.081-1.152,1.687-1.659
								c3.118-2.78,7.053-4.819,11.021-6.077c3.586-1.137,7.334-1.007,10.896-2.055c1.158-0.34,1.16-2.01,0-2.35
								c-5.274-1.549-11.896,0.731-16.683,3.011c-4.182,1.992-11.361,6.1-11.899,11.363c-1.308,12.809,23.674-6.314,26.242-8.189
								C153.924,233.1,152.564,231.319,151.419,232.339L151.419,232.339z"/>
						</g>
					</g>
					<g id="XMLID_188_">
						<path id="XMLID_225_" fill="#003AA5" d="M158.781,232.49c-0.283,4.532,0.359,9.12,1.875,13.4
							c0.957,2.703,2.524,5.524,5.244,6.43c0.333,0.111,0.704,0.188,1.03,0.06c0.333-0.131,0.553-0.452,0.702-0.777
							c0.843-1.85-0.042-3.992-0.962-5.805c-2.562-5.05-5.468-9.925-8.692-14.581"/>
						<g id="XMLID_218_">
							<path id="XMLID_222_" fill="#003AA5" d="M157.867,232.49c-0.633,5.17-0.243,10.515,1.906,15.338
								c1.076,2.416,4.324,7.453,7.761,5.983c3.219-1.376,1.823-6.02,0.807-8.275c-2.337-5.187-5.395-11.205-9.369-15.315
								c-1.176-1.216-2.844,0.322-2.208,1.704c1.279,2.783,3.188,5.305,4.754,7.943c1.368,2.302,4.37,5.952,4.579,8.65
								c0.283,3.656-2.247,0.468-3.124-1.111c-0.814-1.465-1.313-3.208-1.759-4.81c-0.912-3.277-1.374-6.714-1.52-10.108
								C159.643,231.286,158.007,231.347,157.867,232.49L157.867,232.49z"/>
						</g>
					</g>
					<g id="XMLID_193_">
						<path id="XMLID_215_" fill="#003AA5" d="M159.331,232.108c1.409,2.953,2.818,5.905,4.228,8.858
							c2.031,4.257,4.216,8.701,8.063,11.43c0.406,0.287,0.859,0.563,1.356,0.557c0.748-0.011,1.356-0.688,1.523-1.418
							c0.167-0.729-0.011-1.49-0.229-2.206c-1.189-3.908-3.593-7.361-6.451-10.28c-2.858-2.918-6.174-5.343-9.506-7.706"/>
						<g id="XMLID_210_">
							<path id="XMLID_214_" fill="#003AA5" d="M158.483,232.342c1.187,3.462,10.12,28.234,16.844,21.229
								c3.105-3.234-1.344-9.646-3.325-12.305c-3.205-4.303-8.206-9.331-13.334-11.198c-1.374-0.5-2.031,1.299-1.289,2.213
								c2.538,3.127,6.375,5.081,9.212,7.999c1.05,1.08,7.454,8.549,5.626,9.806c-2.06,1.416-10.971-16.575-12.129-18.421
								C159.581,230.854,158.147,231.362,158.483,232.342L158.483,232.342z"/>
						</g>
					</g>
					<g id="XMLID_236_">
						<path id="XMLID_208_" fill="#003AA5" d="M159.878,228.75c0.296-3.171-0.957-6.45-3.292-8.616
							c-0.106-0.099-0.227-0.201-0.372-0.208c-0.245-0.011-0.414,0.248-0.473,0.485c-0.192,0.775,0.201,1.563,0.581,2.265
							c1.016,1.874,2.031,3.749,3.047,5.623"/>
						<g id="XMLID_200_">
							<path id="XMLID_207_" fill="#003AA5" d="M160.602,228.95c0.433-2.066,0.456-4.103-0.395-6.07
								c-0.616-1.423-2.135-4.393-3.992-4.393c-4.816,0,0.936,9.789,2.546,10.854c0.773,0.511,1.821-0.165,1.816-1.042
								c-0.008-1.354-0.806-2.404-1.445-3.563c-0.311-0.564-1.848-3.737-2.191-3.567c-0.484,0-0.968,0-1.453,0
								c2.208,1.208,3.469,5.284,3.64,7.581C159.188,229.542,160.417,229.83,160.602,228.95L160.602,228.95z"/>
						</g>
					</g>
					<g id="XMLID_249_">
						<path id="XMLID_191_" fill="#003AA5" d="M153.922,229.078c-0.175-3.383-3.52-5.744-6.778-6.668
							c-8.541-2.421-17.867,1.566-24.161,7.826c-1.763,1.754-3.457,4.02-3.095,6.48c3.264-0.699,6.317-2.353,8.686-4.705"/>
						<g id="XMLID_140_">
							<path id="XMLID_189_" fill="#003AA5" d="M154.812,229.078c0.541-8.398-11.319-9.537-17.259-8.549
								c-7.538,1.253-19.322,7.408-19.411,16.187c-0.012,1.152,1.124,1.962,2.21,1.684c3.561-0.914,7.422-2.438,9.345-5.732
								c0.698-1.196-0.655-2.309-1.78-1.78c-2.987,1.405-5.166,3.281-8.494,4.145c0.737,0.561,1.474,1.123,2.21,1.684
								c0.058-6.416,10.005-11.324,15.261-12.752c5.896-1.602,13.595-0.732,16.258,5.563
								C153.527,230.414,154.762,229.861,154.812,229.078L154.812,229.078z"/>
						</g>
					</g>
					<g id="XMLID_257_">
						<path id="XMLID_138_" fill="#003AA5" d="M121.286,232.333c2.146-5.867,8.092-9.527,14.074-11.328
							c4.355-1.312,9.146-1.859,13.395-0.235c4.248,1.624,7.713,5.874,7.29,10.402"/>
						<g id="XMLID_130_">
							<path id="XMLID_137_" fill="#003AA5" d="M122.733,233.18c5.101-11.771,28.801-17.744,31.571-1.528
								c0.297,1.74,3.154,1.705,3.48,0c1.778-9.279-8.794-14.343-16.541-13.734c-8.912,0.701-18.015,5.498-21.574,13.971
								C118.941,233.623,121.978,234.921,122.733,233.18L122.733,233.18z"/>
						</g>
					</g>
					<g id="XMLID_270_">
						<path id="XMLID_128_" fill="#003AA5" d="M159.884,227.425c-0.132,0.112-0.264,0.223-0.396,0.335
							c1.298-2.563,4.481-3.731,7.339-3.441c0.422,0.043,0.908,0.16,1.082,0.546c0.298,0.661-0.562,1.226-1.253,1.447
							c-2.534,0.813-5.069,1.625-7.604,2.438"/>
						<g id="XMLID_123_">
							<path id="XMLID_127_" fill="#003AA5" d="M159.884,226.417c-0.132,0.009-0.264,0.019-0.396,0.028
								c0.221,0.816,0.442,1.633,0.664,2.45c1.082-0.815,1.752-1.88,3.051-2.432c0.608-0.258,1.257-0.435,1.913-0.516
								c0.332-0.041,0.658-0.046,0.992-0.05c0.16,0.003,0.32,0.003,0.481,0c0.333,0.057,0.333-0.033-0.002-0.271
								c0.048-0.366,0.096-0.732,0.144-1.098c-0.444,0.983-3.556,1.487-4.545,1.822c-1.34,0.453-2.76,0.744-3.819,1.711
								c-0.688,0.628-0.081,1.57,0.688,1.661c1.405,0.165,2.82-0.5,4.157-0.905c1.394-0.423,2.906-0.741,4.245-1.324
								c1.734-0.754,2.774-2.885,0.944-4.221c-1.645-1.201-4.548-0.585-6.256,0.133c-1.849,0.777-3.757,2.247-3.969,4.354
								c-0.149,1.482,2.241,1.773,2.583,0.349c0.033-0.139,0.066-0.277,0.1-0.417C160.999,227.097,160.563,226.369,159.884,226.417
								L159.884,226.417z"/>
						</g>
					</g>
					<g id="XMLID_204_">
						<g id="XMLID_203_">
							<g id="XMLID_13_">
								<path id="XMLID_10_" fill="none" stroke="#EDEDEB" stroke-width="1.2" stroke-miterlimit="10" d="M130.729,249.236h12.303
									c1.664,0,3.013,1.28,3.013,2.858v5.385c0,3.192-2.728,5.781-6.094,5.781h-6.019c-3.433,0-6.216-2.641-6.216-5.896v-5.27
									C127.716,250.516,129.065,249.236,130.729,249.236z"/>
								<path id="XMLID_181_" opacity="0.4" fill="#EDEDEB" d="M130.729,249.236h12.303c1.664,0,3.013,1.28,3.013,2.858v5.385
									c0,3.192-2.728,5.781-6.094,5.781h-6.019c-3.433,0-6.216-2.641-6.216-5.896v-5.27
									C127.716,250.516,129.065,249.236,130.729,249.236z"/>
								
									<line id="XMLID_178_" fill="none" stroke="#EDEDEB" stroke-width="1.2" stroke-linecap="round" stroke-linejoin="round" stroke-miterlimit="10" x1="126.146" y1="253.474" x2="127.716" y2="254.208"/>
							</g>
							<g id="XMLID_196_">
								<path id="XMLID_202_" fill="none" stroke="#EDEDEB" stroke-width="1.2" stroke-miterlimit="10" d="M167.563,249.236H155.26
									c-1.664,0-3.013,1.28-3.013,2.858v5.385c0,3.192,2.728,5.781,6.094,5.781h6.019c3.433,0,6.216-2.641,6.216-5.896v-5.27
									C170.576,250.516,169.227,249.236,167.563,249.236z"/>
								<path id="XMLID_199_" opacity="0.4" fill="#EDEDEB" d="M167.563,249.236H155.26c-1.664,0-3.013,1.28-3.013,2.858v5.385
									c0,3.192,2.728,5.781,6.094,5.781h6.019c3.433,0,6.216-2.641,6.216-5.896v-5.27
									C170.576,250.516,169.227,249.236,167.563,249.236z"/>
								
									<line id="XMLID_197_" fill="none" stroke="#EDEDEB" stroke-width="1.2" stroke-linecap="round" stroke-linejoin="round" stroke-miterlimit="10" x1="172.146" y1="253.474" x2="170.576" y2="254.208"/>
							</g>
						</g>
						
							<line id="XMLID_194_" fill="none" stroke="#EDEDEB" stroke-width="2" stroke-linecap="round" stroke-linejoin="round" stroke-miterlimit="10" x1="146.468" y1="254.696" x2="151.697" y2="254.696"/>
					</g>
				</g>
			</g>
			<g id="XMLID_156_">
				<g id="XMLID_96_">
					<path id="XMLID_40_" fill="#003AA5" d="M273.617,290.094c-1.318-4.443-3.35-8.734-4.172-13.313
						c-0.804-4.484-0.482-9.118-0.996-13.641c-0.691-6.077-2.02-12.917-6.689-17.312c-2.046-1.926-4.651-2.908-7.382-3.403
						c-0.92-0.166-4.334-0.835-3.85-0.283c-0.723-0.573-1.397-1.474-2.129-1.991c-1.882-1.333-4.041-2.265-6.284-2.794
						c-11.775-2.777-25.352,4.075-28.785,16.879c-2.406,8.974,0.631,18.183-1.94,27.297c-2.012,7.13-4.277,34.951-0.647,41.961
						c0.4,0.772,2.925,11.438,3.638,11.085c9.106-4.499,16.65,2.995,25.425,3.925c11.018,1.167,27.469-2.679,33.111-7.104
						C276.149,326.539,274.925,295.481,273.617,290.094z"/>
					<g id="XMLID_77_">
						<path id="XMLID_81_" fill="#EDB6B3" d="M258.392,272.441c0,0,8.137-4.334,9.287,1.857c1.149,6.191-2.565,12.294-9.199,8.933
							C251.847,279.871,258.392,272.441,258.392,272.441z"/>
						<circle id="XMLID_79_" fill="#003AA5" cx="263.632" cy="282.055" r="0.67"/>
						<path id="XMLID_78_" opacity="0.7" fill="#EDB6B3" d="M260.811,277.478c0.548-2.015,1.199-3.169,1.993-3.528
							c2.043-0.924,3.619,0.558,4.167,1.47c0.108,0.182,0.051,0.417-0.131,0.525c-0.181,0.111-0.418,0.054-0.527-0.13
							c-0.039-0.063-0.761-1.219-1.96-1.369c1.185,1.219,2.445,3.462,0.796,5.508c-0.075,0.094-0.187,0.143-0.299,0.143
							c-0.085,0-0.17-0.027-0.24-0.085c-0.165-0.133-0.191-0.375-0.059-0.54c1.867-2.316-1.039-4.772-1.164-4.876
							c-0.012-0.01-0.018-0.023-0.027-0.035c-0.079,0.027-0.158,0.053-0.239,0.09c-0.255,0.115-0.92,0.643-1.568,3.03
							c-0.047,0.171-0.201,0.282-0.371,0.282c-0.032,0-0.066-0.004-0.101-0.013C260.876,277.894,260.755,277.683,260.811,277.478z"
							/>
					</g>
					<g id="XMLID_65_">
						<path id="XMLID_606_" fill="#EDB6B3" d="M222.283,272.441c0,0-8.137-4.334-9.287,1.857c-1.149,6.191,2.565,12.294,9.199,8.933
							C228.828,279.871,222.283,272.441,222.283,272.441z"/>
						<circle id="XMLID_630_" fill="#003AA5" cx="217.042" cy="282.055" r="0.67"/>
						<path id="XMLID_90_" opacity="0.7" fill="#EDB6B3" d="M219.864,277.478c-0.547-2.015-1.199-3.169-1.993-3.528
							c-2.043-0.924-3.62,0.558-4.168,1.47c-0.108,0.182-0.05,0.417,0.131,0.525c0.181,0.111,0.417,0.054,0.527-0.13
							c0.039-0.063,0.761-1.219,1.96-1.369c-1.185,1.219-2.445,3.462-0.796,5.508c0.076,0.094,0.187,0.143,0.299,0.143
							c0.085,0,0.17-0.027,0.241-0.085c0.165-0.133,0.191-0.375,0.058-0.54c-1.867-2.316,1.039-4.772,1.164-4.876
							c0.012-0.01,0.018-0.023,0.028-0.035c0.079,0.027,0.157,0.053,0.239,0.09c0.255,0.115,0.92,0.643,1.568,3.03
							c0.047,0.171,0.201,0.282,0.371,0.282c0.033,0,0.067-0.004,0.101-0.013C219.799,277.894,219.919,277.683,219.864,277.478z"/>
					</g>
					<g id="XMLID_622_">
						<path id="XMLID_30_" fill="#EDB6B3" d="M247.538,307.108l-1.721-1.225v-6.988c0-3.045-2.691-5.514-6.011-5.514
							s-6.011,2.469-6.011,5.514v7.355l-1.696,0.857l-0.952,11.068h19.66L247.538,307.108z"/>
						<g id="XMLID_623_">
							<defs>
								<path id="XMLID_624_" d="M241.677,318.176h-3.741c-2.287,0-4.141-1.854-4.141-4.141v-18.933
									c0-0.951,0.771-1.722,1.721-1.722h8.58c0.951,0,1.721,0.771,1.721,1.722v18.933
									C245.817,316.323,243.963,318.176,241.677,318.176z"/>
							</defs>
							<clipPath id="XMLID_341_">
								<use xlink:href="#XMLID_624_"  overflow="visible"/>
							</clipPath>
							<g id="XMLID_625_" clip-path="url(#XMLID_341_)">
								<path id="XMLID_31_" fill="#EDB6B3" d="M267.379,249.483h-26.905h-0.007h-26.905c0,0-2.355,31.231,1.281,39.499
									c1.978,4.494,8.575,9.069,14.825,12.904c6.646,4.077,15.319,4.053,21.928-0.075c6.119-3.82,12.536-8.361,14.502-12.829
									C269.735,280.714,267.379,249.483,267.379,249.483z"/>
							</g>
						</g>
					</g>
					<path id="XMLID_607_" fill="#EDB6B3" d="M262.336,264.755c-0.171-5.837-4.961-10.473-10.8-10.473H240.34h-0.005h-11.001
						c-5.948,0-10.831,4.725-11.001,10.67c-0.243,8.46,0.842,19.535,2.543,23.753c1.581,3.918,5.833,7.906,10.831,11.249
						c5.313,3.554,12.237,3.531,17.521-0.065c4.892-3.33,9.001-7.289,10.572-11.184
						C261.514,284.455,262.585,273.239,262.336,264.755z"/>
					<path id="XMLID_594_" fill="#3A2719" d="M260.054,246.478"/>
					<g id="XMLID_1470_">
						<defs>
							<path id="XMLID_1473_" d="M248.601,288.28c-0.329-1.028-1.527-0.755-3.646,0.386c-2.295,1.235-6.342,1.535-9.225,0.24
								c-2.184-0.98-3.268-1.079-3.658-0.195c-0.391,0.884,2.035,6.087,6.632,6.717c0.86,0.118,2.167,0.159,3.557-0.093
								C246.833,294.506,248.963,289.413,248.601,288.28z"/>
						</defs>
						<clipPath id="XMLID_342_">
							<use xlink:href="#XMLID_1473_"  overflow="visible"/>
						</clipPath>
						<g id="XMLID_1482_" clip-path="url(#XMLID_342_)">
							<path id="XMLID_39_" fill="#7F3322" d="M248.601,288.28c-0.329-1.028-1.527-0.755-3.646,0.386
								c-2.295,1.235-6.342,1.535-9.225,0.24c-2.184-0.98-3.268-1.079-3.658-0.195c-0.391,0.884,2.035,6.087,6.632,6.717
								c0.86,0.118,2.167,0.159,3.557-0.093C246.833,294.506,248.963,289.413,248.601,288.28z"/>
						</g>
						<g id="XMLID_1479_" clip-path="url(#XMLID_342_)">
							<g id="XMLID_1480_">
								<path id="XMLID_1481_" fill="#FFFFFF" d="M234.055,287.581c0,0,0.077,3.621,5.77,3.731s7.37-1.659,7.395-4.161
									L234.055,287.581z"/>
							</g>
						</g>
						<g id="XMLID_1475_" clip-path="url(#XMLID_342_)">
							<g id="XMLID_1476_">
								<path id="XMLID_1478_" fill="#EDB6B3" d="M236.157,294.771c0,0,3.917-2.775,9.974-0.174l-4.679,3.573L236.157,294.771z"/>
							</g>
						</g>
						<g id="XMLID_580_" clip-path="url(#XMLID_342_)">
							<g id="XMLID_581_">
								<path id="XMLID_678_" fill="#EDB6B3" d="M236.157,294.771c0,0,3.917-2.775,9.974-0.174l-4.679,3.573L236.157,294.771z"/>
							</g>
						</g>
					</g>
					<g id="XMLID_578_">
						<path id="XMLID_25_" fill="#EDB6B3" d="M236.213,279.399c0,0-0.056,0.243-0.153,0.668c-0.047,0.212-0.101,0.47-0.143,0.766
							c-0.038,0.286-0.077,0.65-0.013,0.938c0.045,0.194,0.458,0.459,0.776,0.676c0.346,0.226,0.736,0.426,1.137,0.625
							c0.801,0.377,1.74,0.7,2.603,0.645c0.262-0.016,0.468-0.049,0.688-0.095c0.226-0.05,0.45-0.115,0.67-0.188
							c0.443-0.144,0.873-0.325,1.274-0.529c0.401-0.203,0.788-0.411,1.123-0.646c0.166-0.115,0.327-0.237,0.445-0.36
							c0.064-0.069,0.102-0.1,0.121-0.169c0.033-0.104,0.033-0.128,0.045-0.229c0.064-0.701-0.009-1.341-0.043-1.768
							c-0.039-0.435-0.061-0.683-0.061-0.683s0.08,0.237,0.193,0.66c0.048,0.214,0.107,0.474,0.175,0.771
							c0.056,0.303,0.129,0.64,0.132,1.042c0.004,0.084-0.015,0.251-0.038,0.333c-0.022,0.122-0.113,0.254-0.177,0.335
							c-0.143,0.185-0.301,0.331-0.47,0.48c-0.339,0.29-0.714,0.568-1.131,0.813c-0.417,0.24-0.864,0.468-1.346,0.646
							c-0.243,0.084-0.491,0.162-0.748,0.223c-0.264,0.063-0.55,0.107-0.784,0.125c-1.141,0.059-2.138-0.346-2.982-0.81
							c-0.426-0.23-0.803-0.508-1.147-0.785c-0.171-0.141-0.333-0.283-0.483-0.435c-0.071-0.072-0.166-0.173-0.219-0.246
							c-0.047-0.046-0.159-0.261-0.152-0.349c-0.053-0.453,0.08-0.774,0.156-1.077c0.091-0.296,0.186-0.545,0.266-0.75
							C236.097,279.621,236.213,279.399,236.213,279.399z"/>
					</g>
					<g id="XMLID_584_">
						<path id="XMLID_46_" fill="#3A2719" d="M223.293,285.759"/>
						<g id="XMLID_48_">
							<path id="XMLID_50_" fill="#3A2719" d="M223.293,285.81c0.066,0,0.066-0.103,0-0.103S223.227,285.81,223.293,285.81
								L223.293,285.81z"/>
						</g>
					</g>
					<g id="XMLID_24_">
						<circle id="XMLID_16_" fill="#153158" cx="229.868" cy="273.311" r="2.231"/>
						<circle id="XMLID_37_" fill="#153158" cx="250.807" cy="273.311" r="2.231"/>
					</g>
					<g id="XMLID_49_">
						
							<path id="XMLID_62_" fill="none" stroke="#153158" stroke-width="2" stroke-linecap="round" stroke-linejoin="round" stroke-miterlimit="10" d="
							M224.048,268.674c1.676-2.103,4.036-3.684,6.697-4.192"/>
						
							<path id="XMLID_53_" fill="none" stroke="#153158" stroke-width="2" stroke-linecap="round" stroke-linejoin="round" stroke-miterlimit="10" d="
							M256.627,268.674c-1.677-2.103-4.036-3.684-6.697-4.192"/>
					</g>
					<path id="XMLID_66_" fill="#003AA5" stroke="#003AA5" stroke-width="0.25" stroke-miterlimit="10" d="M245.817,250.115
						c0,0,1.5,14.187,16.629,17.642l1.186-7.531C263.632,260.225,256.912,249.987,245.817,250.115z"/>
					<path id="XMLID_91_" fill="#003AA5" stroke="#003AA5" stroke-width="0.25" stroke-miterlimit="10" d="M248.576,246.478
						c0,0,4.16,10.266-6.93,16.668c-10.065,5.811-14.25-6.085-23.281,7.82c0,0-4.588-7.584,0.612-16.684
						C221.763,249.408,240.544,241.987,248.576,246.478z"/>
				</g>
				<g id="XMLID_15_">
					<path id="XMLID_114_" fill="#EDB6B3" d="M286.449,236.469c0,0-1.484-5.929-0.741-6.195c0.744-0.267,1.359-0.364,1.804,0.666
						c0.444,1.03,2.113,4.665,2.113,4.665l1.476-3.246c0,0,1.666-7.826,2.001-8.746c0.322-0.886,1.916-0.979,2.021,0.24
						c0.055,0.636-0.947,9.117-0.947,9.117s3.321-9.524,4.029-9.95c0.708-0.426,1.949-0.029,1.703,1.525
						c-0.081,0.511-2.479,9.69-2.479,9.69s2.941-5.677,3.774-6.409c0.832-0.732,1.643-0.063,1.752,0.678
						c0.11,0.74-3.548,8.858-3.548,8.858s2.033-2.229,2.768-2.652c0.734-0.424,1.486,0.095,1.351,0.985s-5.456,8.577-5.456,8.577
						l-1.816,6.563l-8.604-2.961c0.334-0.911,0.739-4.414,0.739-4.414C288.204,243.082,286.449,236.469,286.449,236.469z"/>
					<polygon id="XMLID_112_" fill="#003AA5" stroke="#003AA5" stroke-width="0.25" stroke-miterlimit="10" points="
						286.234,246.403 286.857,243.972 298.321,246.723 297.304,249.283 					"/>
					<path id="XMLID_467_" fill="#259AFF" d="M287.088,302.524c6.032-14.729,11.232-53.433,11.232-53.433l-12.608-3.123
						c0,0-8.352,29.669-12.795,38.767c-2.14,4.38-10.604,17.302-14.194,19.673c2.426,10.009,7.169,19.489,12.635,27.909l-0.083-0.88
						C271.275,331.437,281.778,315.489,287.088,302.524z"/>
				</g>
				<path id="XMLID_161_" fill="#EDEDEB" d="M250.611,369.903l4.114-58.359c-16.404,9.472-27.329,0.257-27.329,0.257l4.657,58.103
					H250.611z"/>
				<path id="XMLID_107_" fill="#259AFF" d="M229.868,371.951c-0.124-3.023,6.107-8.276,6.085-11.591
					c-0.269-38.918-3.631-48.619-3.854-53.252l-12.484,3.883c-11.86,3.688-18.029,13.465-18.419,25.879l-1.635,33.033
					L229.868,371.951z"/>
				<path id="XMLID_447_" fill="#259AFF" d="M271.358,332.317c-2.763-4.256-5.34-8.783-7.527-13.513
					c-0.305-1.031-0.713-1.997-1.268-2.878c-1.572-3.736-2.887-7.586-3.84-11.519c-0.262,0.173-0.499,0.294-0.704,0.348
					c-5.396,1.406-10.506,2.353-10.506,2.353l0.014,0.193c-0.278,4.984-2.838,26.085-3.842,53.059
					c-0.124,3.313-0.25,6.521-0.374,9.543h8.591h16.921h6.07L271.358,332.317z"/>
				<polygon id="XMLID_98_" opacity="0.4" fill="#259AFF" points="217.712,369.903 214.381,334.581 214.381,369.903 				"/>
				<path id="XMLID_18_" fill="#003AA5" d="M288.199,390.463h-99.755v-53.215c0-2.722,2.207-4.929,4.929-4.929h89.897
					c2.722,0,4.929,2.207,4.929,4.929V390.463z"/>
				<linearGradient id="XMLID_343_" gradientUnits="userSpaceOnUse" x1="238.3213" y1="387.0562" x2="238.3213" y2="335.9224">
					<stop  offset="0" style="stop-color:#FDDA42"/>
					<stop  offset="1" style="stop-color:#E5A003"/>
				</linearGradient>
				<circle id="XMLID_519_" fill="url(#XMLID_343_)" cx="238.321" cy="365.722" r="6.229"/>
			</g>
			<g id="XMLID_441_">
				<path id="XMLID_435_" fill="#003AA5" d="M326.128,352.807l-2.639,37.656l59.937-0.184c0,0-1.479-27.73-5.664-36.908
					S326.128,352.807,326.128,352.807z"/>
				<path id="XMLID_93_" fill="#259AFF" d="M339.122,295.2h3.952l16.337,1.262l8.449,1.579l12.972,37.177l3.431,38.916
					c0,0-40.813,4.087-61.608,0l0.68-61.738L339.122,295.2z"/>
				<g id="XMLID_442_">
					<path id="XMLID_431_" fill="#EDB6B3" d="M325.241,226.652c-0.624-0.421-1.168-0.657-1.821,0.189s-3.052,3.808-3.052,3.808
						l-0.596-3.344c0,0,0.308-7.617,0.216-8.545c-0.089-0.893-1.537-1.356-1.923-0.255c-0.201,0.573-1.275,8.639-1.275,8.639
						s-0.819-9.575-1.373-10.135s-1.793-0.486-1.932,1.006c-0.045,0.491,0.003,9.53,0.003,9.53s-1.377-5.934-1.973-6.806
						c-0.596-0.872-1.502-0.445-1.777,0.212c-0.276,0.658,1.186,9.014,1.186,9.014s-1.352-2.537-1.929-3.101
						c-0.578-0.565-1.395-0.263-1.479,0.591c-0.085,0.854,3.014,9.203,3.014,9.203l0.129,6.487l8.64-0.704
						c-0.094-0.919,0.358-4.249,0.358-4.249c0.261-0.306,3.44-5.997,3.44-5.997S325.865,227.074,325.241,226.652z"/>
					<path id="XMLID_532_" fill="#259AFF" d="M323.333,312.395l14.392-2.918l1.396-14.277c0.376,0.149-2.8-2.404-4.63-4.582
						c-5.028-5.985-9.3-8.788-9.886-11.596c-1.459-6.991-3.483-41.841-3.483-41.841l-14.39,1.386c0,0-0.969,34.239,1.571,49.457
						C309.526,295.347,320.715,307.125,323.333,312.395z"/>
				</g>
				<g id="XMLID_433_">
					<g id="XMLID_446_">
						<path id="XMLID_120_" fill="#003AA5" d="M354.22,236.776c-0.22-2.59-2.722-4.391-5.185-5.224
							c-6.449-2.183-14.472,0.432-17.591,6.484c-2.483,4.82-1.669,10.583-2.056,15.992"/>
						<g id="XMLID_115_">
							<path id="XMLID_119_" fill="#003AA5" d="M355.65,236.776c-0.317-8.876-12.889-9.329-18.92-6.447
								c-3.605,1.722-6.643,4.783-7.872,8.646c-1.344,4.221-2.077,11.404-0.025,15.378c0.234,0.452,0.863,0.382,1.113,0
								c1.429-2.181,1.125-4.343,1.288-6.903c0.252-3.971,0.966-8.05,3.927-10.96c4.398-4.325,14.815-5.622,17.824,1.008
								C353.581,238.81,355.698,238.13,355.65,236.776L355.65,236.776z"/>
						</g>
					</g>
					<path id="XMLID_443_" fill="#003AA5" d="M343.189,278.07c-1.087-1.991-2.442-3.738-3.938-5.431
						c-2.17-2.457-3.28-4.211-4.218-7.397c-0.682-2.319-1.938-4.981-4.238-5.248c0.188-0.622-0.412-1.313-1.183-0.963
						c-3.943,1.798-3.757,6.065-4.51,9.76c-1.034,5.071-5.305,8.418-6.479,13.363c-0.237,0.999-0.471,2.323,0.343,3.168
						c1.077,1.117,1.367,0.208,2.517,0.233c3.272,0.072,4.777,2.343,7.639,3.147c1.239,0.35,2.854,0.299,4.046,0.522
						c1.442,0.271,2.81,0.863,4.268,1.076c2.734,0.4,5.868-0.045,7.284-2.739C346.31,284.536,344.669,280.781,343.189,278.07z"/>
					<g id="XMLID_147_">
						<path id="XMLID_61_" fill="#003AA5" d="M328.555,260.262c-0.189-3.012-0.222-6.038-0.098-9.059
							c0.094-2.269,0.283-4.57,1.039-6.702c1.055-2.972,3.163-5.434,5.614-7.25c2.463-1.826,5.581-3.08,8.426-2.155
							c2.215,0.72,3.918,2.672,4.962,4.872c1.043,2.2,1.514,4.654,1.974,7.075"/>
						<g id="XMLID_56_">
							<path id="XMLID_60_" fill="#003AA5" d="M329.504,260.262c0.528-6.738-0.234-15.291,5.148-20.223
								c3.871-3.547,9.178-4.739,11.958,0.724c1.175,2.307,1.167,4.86,2.587,7.026c0.644,0.981,2.435,0.97,2.698-0.353
								c1.671-8.371-6.507-17.169-14.854-13.458c-10.674,4.746-11.251,16.544-9.401,26.538
								C327.846,261.629,329.426,261.264,329.504,260.262L329.504,260.262z"/>
						</g>
					</g>
					<path id="XMLID_444_" fill="#003AA5" d="M383.551,289.21c-0.023-0.148-0.08-0.301-0.181-0.456
						c-0.792-1.223-1.676-2.136-2.729-3.148c-2.838-2.732-2.616-5.693-0.976-8.805c1.674-3.173,1.85-6.736,2.354-10.376
						c0.967-6.979-0.005-25.287-4.481-31.029c-3.781-4.848-26.686-18.892-35.734-3.429c-2.449,4.183,10.35,7.166,9.681,12.524
						c-0.868,6.959,6.95,9.912,11.8,12.52c8.938,4.807,8.645,15.203,0.753,20.986c-2.717,1.991-5.754,2.787-8.777,4.123
						c-1.699,0.751-4.403,2.237-4.529,4.433c-0.067,1.165,0.851,2.567,1.858,3.106c1.225,0.654,2.489,0.387,3.742,1.049
						c1.659,0.878,2.385,2.605,3.941,3.704c2.351,1.659,4.234,1.32,6.724,0.489c3.376-1.127,5.788,1.8,9.259,1.696
						c0.466-0.014,0.943-0.367,1.367-0.354c0.758,0.023,1.66,0.531,2.446,0.532c1.054,0.001,1.145,0.224,2.163-0.593
						C384.281,294.544,384.36,291.454,383.551,289.21z"/>
					<g id="XMLID_415_">
						<path id="XMLID_420_" fill="#EDB6B3" d="M367.521,265.466c0,0,8.76-2.281,8.444,3.894s-5.256,11.155-10.823,6.432
							S367.521,265.466,367.521,265.466z"/>
						<path id="XMLID_416_" opacity="0.7" fill="#EDB6B3" d="M368.681,270.83c0.983-1.8,1.868-2.753,2.709-2.915
							c2.161-0.416,3.329,1.359,3.645,2.354c0.062,0.199-0.048,0.41-0.246,0.473c-0.197,0.064-0.411-0.045-0.474-0.244
							c-0.022-0.069-0.448-1.339-1.559-1.756c0.853,1.435,1.545,3.864-0.497,5.441c-0.094,0.073-0.211,0.094-0.318,0.068
							c-0.081-0.02-0.156-0.065-0.211-0.136c-0.127-0.165-0.097-0.401,0.068-0.529c2.312-1.786,0.098-4.795,0.002-4.922
							c-0.01-0.012-0.012-0.026-0.02-0.04c-0.081,0.008-0.162,0.015-0.248,0.03c-0.271,0.053-1.025,0.404-2.189,2.536
							c-0.084,0.153-0.257,0.225-0.419,0.186c-0.031-0.007-0.063-0.019-0.093-0.035C368.649,271.241,368.582,271.012,368.681,270.83
							z"/>
					</g>
					<g id="XMLID_412_">
						<path id="XMLID_414_" fill="#EDB6B3" d="M334.094,257.593c0,0-6.366-6.436-9.249-0.966s-1.179,12.274,6.021,11.057
							S334.094,257.593,334.094,257.593z"/>
						<path id="XMLID_413_" opacity="0.7" fill="#EDB6B3" d="M330.358,261.611c0.073-2.049-0.2-3.32-0.84-3.89
							c-1.646-1.461-3.557-0.531-4.336,0.164c-0.155,0.139-0.169,0.376-0.03,0.531c0.137,0.156,0.376,0.171,0.532,0.031
							c0.055-0.048,1.068-0.922,2.236-0.713c-1.466,0.798-3.302,2.533-2.352,4.933c0.044,0.11,0.133,0.188,0.238,0.221
							c0.08,0.024,0.168,0.023,0.251-0.01c0.193-0.076,0.288-0.295,0.212-0.489c-1.076-2.716,2.365-4.172,2.512-4.232
							c0.015-0.006,0.023-0.017,0.037-0.024c0.066,0.049,0.132,0.095,0.198,0.153c0.205,0.183,0.675,0.871,0.587,3.299
							c-0.006,0.174,0.106,0.323,0.265,0.373c0.031,0.01,0.064,0.016,0.099,0.017C330.175,261.982,330.35,261.819,330.358,261.611z"
							/>
					</g>
					<g id="XMLID_401_">
						<path id="XMLID_411_" fill="#EDB6B3" d="M357.032,287.967c0.268-2.978-2.147-5.628-5.395-5.919
							c-3.247-0.292-6.096,1.886-6.362,4.864l-0.594,6.475c-0.295,3.25,2.103,4.518,5.353,4.809l0,0
							c3.247,0.292,6.116-2.104,6.409-5.351L357.032,287.967z"/>
						<g id="XMLID_402_">
							<defs>
								<path id="XMLID_403_" d="M352.873,296.088l-5.237-0.47c-1.8-0.162-3.129-0.146-2.967-1.946l0.969-10.797
									c0.067-0.748,0.729-1.301,1.477-1.233l9.047,0.813c0.748,0.066,1.301,0.728,1.233,1.477l-0.969,9.189
									C356.263,294.921,354.672,296.25,352.873,296.088z"/>
							</defs>
							<clipPath id="XMLID_344_">
								<use xlink:href="#XMLID_403_"  overflow="visible"/>
							</clipPath>
							<g id="XMLID_404_" clip-path="url(#XMLID_344_)">
								<path id="XMLID_406_" fill="#EDB6B3" d="M374.105,236.757l-26.404,0.776h-0.007l-26.405,0.776c0,0-1.41,30.72,2.397,38.728
									c2.07,4.354,8.677,8.654,14.922,12.237c6.64,3.81,15.15,3.535,21.519-0.706c5.895-3.927,12.062-8.568,13.861-13.01
									C377.319,267.34,374.105,236.757,374.105,236.757z"/>
							</g>
						</g>
					</g>
					<path id="XMLID_400_" fill="#EDB6B3" d="M373.042,259.028c1.169-5.612-2.347-11.133-7.923-12.466l-10.692-2.556l-0.005-0.001
						l-10.505-2.511c-5.681-1.357-11.422,2.04-12.941,7.679c-2.163,8.022-3.655,18.847-2.993,23.263
						c0.615,4.103,3.766,8.882,7.774,13.214c4.263,4.606,10.88,6.166,16.746,3.938c5.432-2.063,10.259-4.906,12.649-8.267
						C367.76,277.652,371.344,267.186,373.042,259.028z"/>
					<g id="XMLID_385_">
						<defs>
							<path id="XMLID_388_" d="M338.026,278.073c0.369-0.929,1.321-0.563,2.941,0.697c1.755,1.365,5.031,2.019,7.513,1.077
								c1.879-0.713,2.774-0.704,3.008,0.156c0.232,0.86-2.256,5.492-6.073,5.655c-0.715,0.03-1.786-0.053-2.897-0.416
								C338.863,284.046,337.62,279.096,338.026,278.073z"/>
						</defs>
						<clipPath id="XMLID_345_">
							<use xlink:href="#XMLID_388_"  overflow="visible"/>
						</clipPath>
						<g id="XMLID_398_" clip-path="url(#XMLID_345_)">
							<path id="XMLID_399_" fill="#7F3322" d="M338.026,278.073c0.369-0.929,1.321-0.563,2.941,0.697
								c1.755,1.365,5.031,2.019,7.513,1.077c1.879-0.713,2.774-0.704,3.008,0.156c0.232,0.86-2.256,5.492-6.073,5.655
								c-0.715,0.03-1.786-0.053-2.897-0.416C338.863,284.046,337.62,279.096,338.026,278.073z"/>
						</g>
						<g id="XMLID_395_" clip-path="url(#XMLID_345_)">
							<g id="XMLID_396_">
								<path id="XMLID_397_" fill="#FFFFFF" d="M349.977,278.765c0,0-0.416,3.372-5.077,2.948
									c-4.661-0.423-5.859-2.229-5.636-4.566L349.977,278.765z"/>
							</g>
						</g>
						<g id="XMLID_392_" clip-path="url(#XMLID_345_)">
							<g id="XMLID_393_">
								<path id="XMLID_394_" fill="#EDB6B3" d="M347.559,285.282c0,0-2.929-2.953-8.131-1.085l3.474,3.767L347.559,285.282z"/>
							</g>
						</g>
						<g id="XMLID_389_" clip-path="url(#XMLID_345_)">
							<g id="XMLID_390_">
								<path id="XMLID_391_" fill="#EDB6B3" d="M347.559,285.282c0,0-2.929-2.953-8.131-1.085l3.474,3.767L347.559,285.282z"/>
							</g>
						</g>
					</g>
					<g id="XMLID_383_">
						<path id="XMLID_384_" fill="#EDB6B3" d="M341.225,268.351c0,0-0.108,0.22-0.298,0.603c-0.094,0.191-0.203,0.426-0.311,0.698
							c-0.103,0.265-0.222,0.604-0.227,0.893c-0.002,0.196,0.332,0.543,0.587,0.822c0.279,0.295,0.605,0.575,0.942,0.857
							c0.68,0.542,1.502,1.065,2.339,1.209c0.254,0.045,0.458,0.06,0.678,0.066c0.228,0.004,0.456-0.007,0.684-0.025
							c0.455-0.036,0.907-0.112,1.337-0.215c0.429-0.103,0.847-0.213,1.22-0.36c0.186-0.072,0.366-0.152,0.507-0.243
							c0.077-0.052,0.12-0.071,0.155-0.134c0.055-0.09,0.061-0.113,0.095-0.208c0.221-0.654,0.298-1.282,0.362-1.697
							c0.063-0.424,0.099-0.666,0.099-0.666s0.021,0.244,0.033,0.674c-0.003,0.216-0.005,0.478-0.009,0.777
							c-0.015,0.302-0.022,0.641-0.111,1.024c-0.016,0.081-0.071,0.237-0.112,0.311c-0.049,0.111-0.166,0.217-0.246,0.279
							c-0.178,0.143-0.362,0.247-0.558,0.351c-0.391,0.199-0.813,0.38-1.266,0.518c-0.453,0.135-0.932,0.25-1.433,0.31
							c-0.251,0.025-0.506,0.043-0.765,0.043c-0.267-0.002-0.55-0.024-0.777-0.061c-1.103-0.204-1.963-0.818-2.663-1.454
							c-0.354-0.317-0.65-0.668-0.915-1.012c-0.133-0.173-0.254-0.346-0.362-0.524c-0.052-0.085-0.119-0.203-0.153-0.285
							c-0.034-0.055-0.093-0.286-0.066-0.368c0.054-0.444,0.254-0.722,0.396-0.993c0.153-0.262,0.301-0.478,0.424-0.654
							C341.063,268.536,341.225,268.351,341.225,268.351z"/>
					</g>
					<g id="XMLID_376_">
						<path id="XMLID_382_" fill="#3A2719" d="M331.342,268.588"/>
						<g id="XMLID_380_">
							<path id="XMLID_381_" fill="#3A2719" d="M331.331,268.637c0.063,0.015,0.087-0.083,0.023-0.098
								C331.292,268.524,331.268,268.622,331.331,268.637L331.331,268.637z"/>
						</g>
					</g>
					<g id="XMLID_371_">
						<circle id="XMLID_373_" fill="#153158" cx="337.526" cy="260.05" r="2.191"/>
						<circle id="XMLID_372_" fill="#153158" cx="357.397" cy="265.327" r="2.191"/>
					</g>
					<g id="XMLID_368_">
						
							<path id="XMLID_370_" fill="none" stroke="#153158" stroke-width="2" stroke-linecap="round" stroke-linejoin="round" stroke-miterlimit="10" d="
							M334.283,253.733c2.177-1.493,4.846-2.301,7.491-2.016"/>
						
							<path id="XMLID_369_" fill="none" stroke="#153158" stroke-width="2" stroke-linecap="round" stroke-linejoin="round" stroke-miterlimit="10" d="
							M364.875,263.077c-0.972-2.455-2.734-4.616-5.087-5.856"/>
					</g>
					<g id="XMLID_89_">
						<path id="XMLID_51_" fill="#003AA5" d="M377.54,260.724"/>
						<g id="XMLID_33_">
							<path id="XMLID_47_" fill="#003AA5" d="M377.54,261.943c1.568,0,1.57-2.438,0-2.438
								C375.97,259.505,375.968,261.943,377.54,261.943L377.54,261.943z"/>
						</g>
					</g>
					<path id="XMLID_366_" fill="#003AA5" d="M370.766,241.843c-3.909-4.548-13.46-9.196-19.444-6.214
						c-4.919,2.451-5.597,11.226-3.157,15.475c4.779,8.324,20.538,3.846,23.171,13.652c0.119,0.444,0.756,0.252,0.679-0.188
						c-0.013-0.07-0.035-0.132-0.049-0.201l1.485-1.509c0.482,0.406,1.431,0.339,1.54-0.41
						C375.963,255.75,375.361,247.189,370.766,241.843z"/>
					<g id="XMLID_95_">
						<path id="XMLID_248_" fill="#003AA5" d="M348.536,241.324c-1.59,2.523-4.264,4.336-7.196,4.878
							c-1.718,0.318-3.524,0.224-5.16,0.836c-2.829,1.059-4.874,3.168-6,5.972c-0.211,0.525-0.936,1.109-1.188,0.603
							c-0.048-0.096-0.051-0.208-0.053-0.315c-0.074-3.964,0.455-7.26,2.05-10.89c1.595-3.631,4.93-6.74,8.886-6.997
							c3.957-0.257,8.069,3.192,7.611,7.131"/>
						<g id="XMLID_26_">
							<path id="XMLID_242_" fill="#003AA5" d="M347.649,240.438c-1.688,1.714-3.218,3.413-5.599,4.145
								c-2.093,0.643-4.33,0.434-6.401,1.198c-1.362,0.501-2.608,1.29-3.672,2.272c-0.733,0.677-3.226,3.197-2.948,4.286
								c0.431,0.32,0.86,0.641,1.291,0.96c0.071-0.641,0.117-1.282,0.139-1.926c0.104-1.286,0.204-2.563,0.478-3.825
								c0.467-2.157,1.227-4.413,2.473-6.245c3.723-5.472,11.357-5.665,12.631,1.638c0.253,1.454,2.604,1.41,2.893,0
								c1.169-5.716-5.114-9.987-10.341-9.023c-6.571,1.212-9.893,8-10.825,13.998c-0.25,1.61-1.141,5.471,0.419,6.745
								c1.248,1.018,2.39,0.081,3.146-0.976c1.423-1.989,2.056-3.844,4.518-5.014c2.179-1.035,4.669-0.718,6.951-1.37
								c2.81-0.802,5.527-2.696,6.819-5.342C350.22,240.727,348.698,239.374,347.649,240.438L347.649,240.438z"/>
						</g>
					</g>
					<polygon id="XMLID_223_" fill="#003AA5" points="342.456,290.924 350.627,292.146 358.689,291.779 359.157,299.29 
						350.907,299.016 341.788,297.936 					"/>
					<polygon id="XMLID_434_" opacity="0.3" fill="#003AA5" points="342.456,290.924 350.627,292.146 358.689,291.779 
						359.157,299.29 350.907,299.016 341.788,297.936 					"/>
				</g>
				<g id="XMLID_430_">
					<path id="XMLID_92_" opacity="0.5" fill="#259AFF" d="M356.712,343.483c0,0,17.71,10.518,26.139,13.746l-0.446-4.87
						L356.712,343.483z"/>
					<path id="XMLID_437_" fill="#EDB6B3" d="M353.752,320.368c-0.653,0.374-1.104,0.76-0.633,1.719s2.074,4.416,2.074,4.416
						l-3.265-0.938c0,0-6.702-3.632-7.576-3.958c-0.841-0.313-1.895,0.783-1.076,1.614c0.427,0.433,7.194,4.95,7.194,4.95
						s-8.957-3.481-9.704-3.231c-0.746,0.25-1.226,1.395,0.053,2.177c0.421,0.258,8.557,4.195,8.557,4.195s-5.934-1.378-6.979-1.227
						c-1.045,0.15-1.061,1.152-0.592,1.689s8.614,2.905,8.614,2.905s-2.872,0.096-3.634,0.365c-0.762,0.271-0.85,1.137-0.121,1.589
						c0.729,0.452,9.59,1.349,9.59,1.349l5.881,2.741l3.173-8.066c-0.866-0.321-3.656-2.193-3.656-2.193
						c-0.159-0.368-3.868-5.729-3.868-5.729S354.405,319.993,353.752,320.368z"/>
					<path id="XMLID_436_" fill="#259AFF" d="M367.86,298.041c0,0,8.037,1.407,11.843,6.346
						c3.171,4.115,18.246,37.183,15.698,42.037c-0.758,1.443-2.235,10.287-7.306,9.077c-11.976-2.857-31.383-12.018-31.383-12.018
						l6.814-14.734l13.979,3.442l-5.436-17.302L367.86,298.041z"/>
					<polygon id="XMLID_440_" opacity="0.5" fill="#259AFF" points="363.527,328.749 377.505,331.627 377.505,332.191 					"/>
				</g>
			</g>
			<g id="XMLID_250_">
				<linearGradient id="XMLID_346_" gradientUnits="userSpaceOnUse" x1="293.5962" y1="352.8599" x2="305.7642" y2="352.8599">
					<stop  offset="0" style="stop-color:#FDDA42"/>
					<stop  offset="1" style="stop-color:#E5A003"/>
				</linearGradient>
				<path id="XMLID_479_" fill="url(#XMLID_346_)" d="M298.083,354.905v-6.472c0-1.239-1.004-2.243-2.243-2.243l0,0
					c-1.239,0-2.243,1.004-2.243,2.243v8.552c0,1.405,1.139,2.544,2.544,2.544h0.427h1.516h7.682v-4.486h-7.543
					C298.145,355.042,298.083,354.981,298.083,354.905z"/>
				
					<linearGradient id="XMLID_348_" gradientUnits="userSpaceOnUse" x1="462.0513" y1="363.3208" x2="474.2192" y2="363.3208" gradientTransform="matrix(-1 0 0 1 779.3662 0)">
					<stop  offset="0" style="stop-color:#FDDA42"/>
					<stop  offset="1" style="stop-color:#E5A003"/>
				</linearGradient>
				<path id="XMLID_478_" fill="url(#XMLID_348_)" d="M312.829,365.365v-6.471c0-1.239,1.004-2.243,2.243-2.243l0,0
					c1.239,0,2.243,1.004,2.243,2.243v8.552c0,1.405-1.139,2.544-2.544,2.544h-0.427h-1.516h-7.682v-4.486h7.543
					C312.766,365.503,312.829,365.441,312.829,365.365z"/>
				<linearGradient id="XMLID_349_" gradientUnits="userSpaceOnUse" x1="293.5962" y1="352.8599" x2="305.7642" y2="352.8599">
					<stop  offset="0" style="stop-color:#FDDA42"/>
					<stop  offset="1" style="stop-color:#E5A003"/>
				</linearGradient>
				<path id="XMLID_477_" fill="url(#XMLID_349_)" d="M298.083,354.905v-6.472c0-1.239-1.004-2.243-2.243-2.243l0,0
					c-1.239,0-2.243,1.004-2.243,2.243v8.552c0,1.405,1.139,2.544,2.544,2.544h0.427h1.516h7.682v-4.486h-7.543
					C298.145,355.042,298.083,354.981,298.083,354.905z"/>
				
					<linearGradient id="XMLID_350_" gradientUnits="userSpaceOnUse" x1="462.0513" y1="363.3208" x2="474.2192" y2="363.3208" gradientTransform="matrix(-1 0 0 1 779.3662 0)">
					<stop  offset="0" style="stop-color:#FDDA42"/>
					<stop  offset="1" style="stop-color:#E5A003"/>
				</linearGradient>
				<path id="XMLID_476_" fill="url(#XMLID_350_)" d="M312.829,365.365v-6.471c0-1.239,1.004-2.243,2.243-2.243l0,0
					c1.239,0,2.243,1.004,2.243,2.243v8.552c0,1.405-1.139,2.544-2.544,2.544h-0.427h-1.516h-7.682v-4.486h7.543
					C312.766,365.503,312.829,365.441,312.829,365.365z"/>
				<linearGradient id="XMLID_351_" gradientUnits="userSpaceOnUse" x1="306.4341" y1="385.4136" x2="306.4341" y2="332.4513">
					<stop  offset="0" style="stop-color:#FDDA42"/>
					<stop  offset="1" style="stop-color:#E5A003"/>
				</linearGradient>
				<path id="XMLID_475_" fill="url(#XMLID_351_)" d="M306.434,339.714L306.434,339.714c2.141,0,3.877,1.736,3.877,3.878v33.534
					c0,2.142-1.736,3.877-3.877,3.877l0,0c-2.142,0-3.878-1.735-3.878-3.877v-33.534
					C302.556,341.451,304.292,339.714,306.434,339.714z"/>
				<linearGradient id="XMLID_352_" gradientUnits="userSpaceOnUse" x1="306.4341" y1="385.4136" x2="306.4341" y2="332.4513">
					<stop  offset="0" style="stop-color:#FDDA42"/>
					<stop  offset="1" style="stop-color:#E5A003"/>
				</linearGradient>
				<path id="XMLID_474_" fill="url(#XMLID_352_)" d="M306.434,339.714L306.434,339.714c2.141,0,3.877,1.736,3.877,3.878v33.534
					c0,2.142-1.736,3.877-3.877,3.877l0,0c-2.142,0-3.878-1.735-3.878-3.877v-33.534
					C302.556,341.451,304.292,339.714,306.434,339.714z"/>
				<g id="XMLID_251_">
					<polygon id="XMLID_473_" fill="#003AA5" points="315.075,389.518 298.245,389.518 297.387,374.401 315.932,374.401 					"/>
					<rect id="XMLID_472_" x="295.839" y="372.02" fill="#003AA5" width="21.641" height="5.213"/>
					<rect id="XMLID_469_" x="295.839" y="372.02" fill="#4BAAFC" width="21.641" height="5.213"/>
					<rect id="XMLID_468_" x="295.839" y="372.02" fill="#003AA5" width="21.641" height="5.213"/>
					<rect id="XMLID_460_" x="295.839" y="372.02" fill="#003AA5" width="21.641" height="5.213"/>
				</g>
			</g>
		</g>
		<g id="XMLID_55_">
			<rect id="XMLID_42_" x="87.557" y="389.518" fill="#003AA5" width="324.885" height="5.661"/>
			<rect id="XMLID_43_" x="87.557" y="389.518" opacity="0.5" fill="#003AA5" width="324.885" height="5.661"/>
		</g>
	</g>
</g>
<g id="DESIGNED_BY_FREEPIK">
</g>
</svg>
