<svg width="421" height="322" viewBox="0 0 421 322" fill="none" xmlns="http://www.w3.org/2000/svg">
<path opacity="0.3" d="M24.6333 291.376C16.1073 284.694 10.5693 274.921 9.14433 264.183C4.36033 228.132 12.7013 147.88 88.5753 80.712C180.656 -0.804039 276.825 4.81596 323.397 25.28C374.712 47.827 407.281 123.399 412.552 190.692C416.52 241.334 387.611 284.887 338.705 298.618C256.669 321.648 86.4233 339.799 24.6333 291.376Z" fill="url(#paint0_linear)"/>
<path opacity="0.3" d="M403.732 290.16C412.596 283.213 418.356 273.05 419.837 261.885C424.812 224.401 416.138 140.955 337.245 71.114C241.5 -13.646 141.506 -7.80303 93.0793 13.476C39.7233 36.921 5.85832 115.499 0.376319 185.47C-3.74868 238.125 26.3103 283.412 77.1613 297.689C162.463 321.636 339.484 340.51 403.732 290.16Z" fill="url(#paint1_linear)"/>
<path d="M175.326 223.695C176.741 215.137 174.213 205.947 167.693 200.011C163.812 196.478 156.747 194.659 155.535 188.936C154.492 184.009 157.352 179.132 158.042 174.324C159.262 165.823 156.102 156.856 149.911 150.928C145.699 146.895 139.636 144.933 136.264 140.013C133.153 135.473 132.697 129.744 131.636 124.494C130.108 116.933 124.876 106.079 115.338 108.324C107.265 110.223 104.556 120.118 104.423 127.286C104.376 129.849 104.597 132.413 105.092 134.928C105.665 137.832 106.913 140.598 107.325 143.523C107.763 146.623 107.925 150.233 107.061 153.255C106.28 155.987 104.951 158.542 104.184 161.287C101.364 171.38 104.066 182.164 109.017 191.158C112.311 197.142 114.702 202.047 113.947 209.066C113.361 214.519 111.844 219.904 112.256 225.429C113.068 236.317 121.055 244.691 130.66 248.941C130.923 249.057 131.208 249.043 131.454 248.938C150.001 254.653 171.316 243.026 175.326 223.695Z" fill="url(#paint2_linear)"/>
<path opacity="0.5" d="M175.326 223.695C176.741 215.137 174.213 205.947 167.693 200.011C163.812 196.478 156.747 194.659 155.535 188.936C154.492 184.009 157.352 179.132 158.042 174.324C159.262 165.823 156.102 156.856 149.911 150.928C145.699 146.895 139.636 144.933 136.264 140.013C133.153 135.473 132.697 129.744 131.636 124.494C130.108 116.933 124.876 106.079 115.338 108.324C107.265 110.223 104.556 120.118 104.423 127.286C104.376 129.849 104.597 132.413 105.092 134.928C105.665 137.832 106.913 140.598 107.325 143.523C107.763 146.623 107.925 150.233 107.061 153.255C106.28 155.987 104.951 158.542 104.184 161.287C101.364 171.38 104.066 182.164 109.017 191.158C112.311 197.142 114.702 202.047 113.947 209.066C113.361 214.519 111.844 219.904 112.256 225.429C113.068 236.317 121.055 244.691 130.66 248.941C130.923 249.057 131.208 249.043 131.454 248.938C150.001 254.653 171.316 243.026 175.326 223.695Z" fill="url(#paint3_linear)"/>
<path d="M152.562 261.194C149.718 250.411 146.89 239.623 144.07 228.833C144.077 228.821 144.086 228.813 144.092 228.801C148.915 219.902 152.411 210.455 154.592 200.572C154.877 199.284 152.841 199.01 152.557 200.296C150.586 209.229 147.471 217.774 143.299 225.89C140.913 216.747 138.542 207.602 136.173 198.454C136.241 198.384 136.304 198.305 136.357 198.208C141.289 188.999 145.013 179.288 147.555 169.158C147.876 167.88 145.84 167.609 145.52 168.881C143.192 178.159 139.794 187.067 135.421 195.558C133.203 186.987 130.999 178.412 128.796 169.835C131.899 163.18 134.452 156.321 136.45 149.253C136.805 148 134.922 147.176 134.563 148.446C132.799 154.682 130.605 160.756 127.982 166.671C125.79 158.129 123.607 149.585 121.431 141.038C121.53 140.952 121.618 140.843 121.687 140.705C123.828 136.41 125.769 132.032 127.514 127.561C127.993 126.333 126.108 125.52 125.626 126.754C124.126 130.598 122.471 134.369 120.679 138.083C119.222 132.357 117.758 126.633 116.308 120.906C115.988 119.642 113.946 119.88 114.271 121.161C116.273 129.071 118.292 136.976 120.307 144.883C117.302 141.725 114.204 138.661 110.988 135.709C110.012 134.814 108.739 136.426 109.708 137.314C113.757 141.03 117.631 144.915 121.346 148.962C123.123 155.922 124.907 162.88 126.694 169.838C126.704 169.915 126.721 169.988 126.75 170.058C127.75 173.949 128.749 177.839 129.751 181.73C122.301 176.641 115.476 170.779 109.348 164.134C108.455 163.166 106.848 164.445 107.744 165.416C114.533 172.777 122.141 179.241 130.521 184.726C133.079 194.643 135.649 204.555 138.228 214.466C132.24 210.569 126.252 206.672 120.265 202.776C119.166 202.06 117.878 203.661 118.985 204.381C125.653 208.72 132.322 213.061 138.991 217.401C142.859 232.258 146.742 247.112 150.658 261.958C150.993 263.234 152.895 262.458 152.562 261.194Z" fill="url(#paint4_linear)"/>
<path d="M47.4063 192.245C49.5043 195.318 52.3153 197.898 54.2393 201.075C56.2783 204.442 58.2513 208.535 58.7473 212.455C59.1963 216 58.9233 219.609 59.3943 223.162C61.1263 236.224 69.5833 247.351 79.7543 255.299C86.5223 260.586 91.7103 265.072 94.3103 273.56C96.3293 280.152 97.2393 287.127 100.448 293.31C104.13 300.405 110.211 305.295 117.249 308.188H145.425C163.962 300.726 176.626 280.542 172.488 260.11C169.891 249.518 162.424 240.146 151.951 236.509C145.718 234.345 136.653 235.738 132.421 229.722C128.778 224.543 129.673 217.492 128.092 211.592C125.297 201.162 117.21 192.361 107.123 188.571C100.259 185.993 92.2813 186.724 85.9513 182.705C80.1103 178.997 76.7493 172.601 72.9273 167.057C67.4213 159.073 56.0053 149.116 46.0913 156.428C37.7003 162.616 39.4623 175.393 42.8543 183.744C44.0653 186.729 45.5893 189.584 47.4063 192.245Z" fill="url(#paint5_linear)"/>
<path d="M69.9153 196.224C64.8793 194.061 59.7833 192.05 54.6063 190.23C53.0363 189.677 52.3613 192.17 53.9203 192.718C60.4393 195.011 66.8373 197.585 73.1323 200.426C78.6283 207.592 84.1323 214.752 89.6393 221.91C89.6883 221.995 89.7453 222.071 89.8133 222.137C92.8933 226.14 95.9723 230.143 99.0543 234.144C87.9273 231.947 77.1383 228.546 66.7683 223.897C65.2583 223.22 64.0323 225.493 65.5493 226.172C77.0373 231.322 89.0283 235.031 101.427 237.226C109.287 247.423 117.161 257.61 125.043 267.789C116.194 266.246 107.346 264.704 98.4983 263.161C96.8733 262.878 96.1763 265.364 97.8123 265.649C107.666 267.368 117.521 269.086 127.375 270.803C137.037 283.278 146.72 295.735 156.412 308.186H159.649C152.727 299.297 145.808 290.406 138.902 281.504C138.904 281.487 138.909 281.474 138.911 281.456C140.083 268.784 139.452 256.136 137.085 243.635C136.776 242.005 134.289 242.696 134.596 244.322C136.736 255.622 137.361 267.04 136.554 278.484C129.274 269.097 122.01 259.698 114.748 250.297C114.791 250.182 114.826 250.059 114.838 249.921C115.984 236.838 115.486 223.771 113.413 210.805C113.152 209.17 110.664 209.864 110.924 211.492C112.822 223.368 113.3 235.344 112.445 247.322C105.642 238.51 98.8533 229.69 92.0663 220.867C92.3613 211.639 91.9203 202.449 90.7343 193.292C90.5243 191.667 87.9413 191.646 88.1533 193.292C89.1993 201.372 89.6673 209.478 89.5603 217.612C82.8023 208.822 76.0533 200.026 69.3113 191.224C69.3823 191.076 69.4303 190.906 69.4423 190.712C69.7923 184.688 69.8703 178.668 69.6753 172.637C69.6223 170.981 67.0413 170.973 67.0943 172.637C67.2613 177.823 67.2143 183 66.9793 188.179C62.4633 182.281 57.9403 176.389 53.4313 170.487C52.4363 169.184 50.1943 170.468 51.2023 171.79C57.4323 179.942 63.6753 188.082 69.9153 196.224Z" fill="url(#paint6_linear)"/>
<path d="M256.193 223.695C254.778 215.137 257.306 205.947 263.827 200.011C267.708 196.478 274.772 194.659 275.985 188.936C277.029 184.009 274.168 179.132 273.477 174.324C272.258 165.823 275.417 156.856 281.608 150.928C285.821 146.895 291.883 144.933 295.255 140.013C298.366 135.473 298.822 129.744 299.883 124.494C301.411 116.933 306.644 106.079 316.182 108.324C324.254 110.223 326.964 120.118 327.097 127.286C327.144 129.849 326.923 132.413 326.427 134.928C325.854 137.832 324.606 140.598 324.194 143.523C323.756 146.623 323.594 150.233 324.458 153.255C325.239 155.987 326.568 158.542 327.335 161.287C330.155 171.38 327.453 182.164 322.502 191.158C319.208 197.142 316.817 202.047 317.572 209.066C318.158 214.519 319.676 219.904 319.263 225.429C318.451 236.317 310.463 244.691 300.859 248.941C300.595 249.057 300.311 249.043 300.065 248.938C281.518 254.653 260.203 243.026 256.193 223.695Z" fill="url(#paint7_linear)"/>
<path opacity="0.5" d="M256.193 223.695C254.778 215.137 257.306 205.947 263.827 200.011C267.708 196.478 274.772 194.659 275.985 188.936C277.029 184.009 274.168 179.132 273.477 174.324C272.258 165.823 275.417 156.856 281.608 150.928C285.821 146.895 291.883 144.933 295.255 140.013C298.366 135.473 298.822 129.744 299.883 124.494C301.411 116.933 306.644 106.079 316.182 108.324C324.254 110.223 326.964 120.118 327.097 127.286C327.144 129.849 326.923 132.413 326.427 134.928C325.854 137.832 324.606 140.598 324.194 143.523C323.756 146.623 323.594 150.233 324.458 153.255C325.239 155.987 326.568 158.542 327.335 161.287C330.155 171.38 327.453 182.164 322.502 191.158C319.208 197.142 316.817 202.047 317.572 209.066C318.158 214.519 319.676 219.904 319.263 225.429C318.451 236.317 310.463 244.691 300.859 248.941C300.595 249.057 300.311 249.043 300.065 248.938C281.518 254.653 260.203 243.026 256.193 223.695Z" fill="url(#paint8_linear)"/>
<path d="M278.956 261.194C281.801 250.411 284.629 239.623 287.448 228.833C287.441 228.821 287.432 228.813 287.426 228.801C282.604 219.902 279.108 210.455 276.927 200.572C276.643 199.284 278.678 199.01 278.961 200.296C280.933 209.229 284.048 217.774 288.22 225.89C290.607 216.747 292.977 207.602 295.346 198.454C295.279 198.384 295.214 198.305 295.162 198.208C290.229 188.999 286.506 179.288 283.964 169.158C283.644 167.88 285.68 167.609 285.999 168.881C288.327 178.159 291.725 187.067 296.098 195.558C298.316 186.987 300.521 178.412 302.723 169.835C299.62 163.18 297.068 156.321 295.069 149.253C294.715 148 296.597 147.176 296.957 148.446C298.721 154.682 300.914 160.756 303.537 166.671C305.729 158.129 307.912 149.585 310.088 141.038C309.989 140.952 309.901 140.843 309.832 140.705C307.691 136.41 305.751 132.032 304.006 127.561C303.527 126.333 305.412 125.52 305.894 126.754C307.394 130.598 309.048 134.369 310.841 138.083C312.297 132.357 313.762 126.633 315.211 120.906C315.531 119.642 317.573 119.88 317.248 121.161C315.246 129.071 313.227 136.976 311.212 144.883C314.218 141.725 317.316 138.661 320.531 135.709C321.507 134.814 322.78 136.426 321.812 137.314C317.762 141.03 313.889 144.915 310.173 148.962C308.397 155.922 306.612 162.88 304.825 169.838C304.815 169.915 304.798 169.988 304.768 170.058C303.769 173.949 302.77 177.839 301.767 181.73C309.217 176.641 316.042 170.779 322.17 164.134C323.063 163.166 324.67 164.445 323.774 165.416C316.985 172.777 309.377 179.241 300.997 184.726C298.44 194.643 295.869 204.555 293.291 214.466C299.278 210.569 305.267 206.672 311.254 202.776C312.354 202.06 313.642 203.661 312.534 204.381C305.866 208.72 299.197 213.061 292.528 217.401C288.66 232.258 284.777 247.112 280.862 261.958C280.526 263.234 278.623 262.458 278.956 261.194Z" fill="url(#paint9_linear)"/>
<path d="M384.112 195.245C382.014 198.318 379.204 200.898 377.28 204.075C375.242 207.442 373.267 211.535 372.771 215.455C372.323 219 372.595 222.609 372.125 226.162C370.393 239.224 361.936 250.351 351.765 258.299C344.997 263.586 339.809 268.072 337.209 276.56C335.189 283.152 334.28 290.127 331.071 296.31C327.388 303.405 321.308 308.295 314.269 311.188H286.093C267.557 303.726 254.893 283.542 259.03 263.11C261.627 252.518 269.094 243.146 279.567 239.509C285.799 237.345 294.865 238.738 299.097 232.722C302.741 227.543 301.845 220.492 303.426 214.592C306.221 204.162 314.308 195.361 324.395 191.571C331.259 188.993 339.238 189.724 345.568 185.705C351.409 181.997 354.769 175.601 358.592 170.058C364.098 162.074 375.514 152.117 385.428 159.428C393.82 165.616 392.058 178.393 388.665 186.744C387.453 189.729 385.93 192.584 384.112 195.245Z" fill="url(#paint10_linear)"/>
<path d="M361.604 199.224C366.64 197.061 371.736 195.05 376.913 193.23C378.483 192.677 379.158 195.17 377.6 195.718C371.081 198.011 364.683 200.585 358.387 203.426C352.891 210.592 347.387 217.752 341.88 224.91C341.831 224.995 341.774 225.071 341.706 225.137C338.627 229.14 335.548 233.143 332.465 237.144C343.593 234.947 354.381 231.546 364.751 226.897C366.261 226.22 367.487 228.493 365.97 229.172C354.483 234.322 342.491 238.031 330.093 240.226C322.233 250.423 314.358 260.609 306.477 270.789C315.325 269.246 324.173 267.704 333.021 266.161C334.646 265.878 335.343 268.364 333.708 268.649C323.854 270.368 313.999 272.086 304.145 273.803C294.483 286.278 284.799 298.735 275.108 311.186H271.871C278.793 302.297 285.712 293.406 292.619 284.504C292.616 284.487 292.611 284.474 292.609 284.456C291.437 271.784 292.068 259.136 294.434 246.635C294.743 245.005 297.231 245.696 296.923 247.322C294.783 258.622 294.157 270.04 294.966 281.484C302.245 272.097 309.51 262.698 316.772 253.297C316.728 253.182 316.694 253.059 316.682 252.921C315.535 239.838 316.034 226.771 318.106 213.805C318.368 212.17 320.855 212.864 320.595 214.492C318.697 226.368 318.219 238.344 319.074 250.322C325.878 241.51 332.667 232.69 339.454 223.867C339.159 214.639 339.6 205.449 340.786 196.292C340.996 194.667 343.58 194.646 343.367 196.292C342.321 204.372 341.852 212.478 341.959 220.612C348.718 211.822 355.466 203.026 362.208 194.224C362.137 194.076 362.089 193.906 362.078 193.712C361.727 187.688 361.649 181.668 361.844 175.637C361.898 173.981 364.479 173.973 364.425 175.637C364.258 180.823 364.305 186 364.54 191.179C369.056 185.281 373.579 179.389 378.088 173.487C379.082 172.184 381.325 173.468 380.317 174.79C374.087 182.942 367.844 191.082 361.604 199.224Z" fill="url(#paint11_linear)"/>
<path d="M166.871 146.994L170.92 148.186L175.906 150.703L170.655 148.55L166.871 146.994Z" fill="#DBA6A5"/>
<path d="M197.897 150.907L202.722 146.164C202.722 146.164 226.445 139.393 241.351 136.047C256.257 132.701 258.15 135.525 258.15 135.525L264.879 147.411C264.879 147.411 230.675 157.514 227.835 157.257C224.995 157 209.741 163.832 209.741 163.832L197.897 150.907Z" fill="#555E66"/>
<path d="M241.587 310.187L243.855 234.473H245.85L248.36 310.187H267.574L272.855 207.553L216.352 199.814V225.701L221.772 310.187H241.587Z" fill="#202121"/>
<path d="M164.318 310.187H184.03L186.331 233.385H188.326L190.871 310.187H209.896L213.813 225.101L210.68 203.621L165 192.201L158.828 224.613L159.434 234.064L164.318 310.187Z" fill="#202121"/>
<path d="M274.772 221.507H213.896L217.158 135.073L244.333 130.881L273.684 135.073L268.049 155.222L274.772 221.507Z" fill="#474A4B"/>
<path d="M206.146 110.72C206.146 110.72 214.996 106.006 216.247 112.74C217.497 119.474 213.457 126.112 206.242 122.456C199.028 118.8 206.146 110.72 206.146 110.72Z" fill="#EDB6B3"/>
<path d="M211.846 121.906C212.249 121.906 212.575 121.58 212.575 121.177C212.575 120.774 212.249 120.448 211.846 120.448C211.444 120.448 211.117 120.774 211.117 121.177C211.117 121.58 211.444 121.906 211.846 121.906Z" fill="#0C0C0D"/>
<path opacity="0.7" d="M208.777 116.198C209.372 114.007 210.081 112.752 210.944 112.361C213.167 111.356 214.882 112.968 215.477 113.96C215.595 114.158 215.532 114.413 215.333 114.532C215.137 114.653 214.88 114.59 214.761 114.391C214.718 114.322 213.933 113.064 212.629 112.901C213.917 114.227 215.288 116.666 213.494 118.891C213.412 118.994 213.291 119.047 213.17 119.047C213.077 119.047 212.984 119.017 212.907 118.955C212.727 118.81 212.7 118.547 212.844 118.368C214.874 115.848 211.714 113.177 211.578 113.065C211.565 113.054 211.559 113.039 211.547 113.026C211.461 113.056 211.376 113.083 211.287 113.123C211.009 113.249 210.286 113.822 209.581 116.419C209.53 116.605 209.362 116.727 209.178 116.727C209.142 116.727 209.105 116.723 209.069 116.713C208.848 116.651 208.717 116.422 208.777 116.198Z" fill="#EDB6B3"/>
<path d="M237.818 131.786L208.699 135.822L166.269 147.698L174.53 160.915L206.272 155.136C206.272 155.136 236.617 158.359 239.069 157.943L236.415 155.595L237.818 131.786Z" fill="#474A4B"/>
<path d="M166.874 110.72C166.874 110.72 158.024 106.006 156.773 112.74C155.522 119.474 159.563 126.112 166.777 122.456C173.992 118.8 166.874 110.72 166.874 110.72Z" fill="#EDB6B3"/>
<path d="M161.174 121.906C161.577 121.906 161.903 121.58 161.903 121.177C161.903 120.774 161.577 120.448 161.174 120.448C160.772 120.448 160.445 120.774 160.445 121.177C160.445 121.58 160.772 121.906 161.174 121.906Z" fill="#0C0C0D"/>
<path opacity="0.7" d="M164.243 116.198C163.647 114.007 162.939 112.752 162.076 112.361C159.854 111.356 158.139 112.968 157.543 113.96C157.425 114.158 157.488 114.413 157.686 114.532C157.882 114.653 158.14 114.59 158.259 114.391C158.301 114.322 159.087 113.064 160.391 112.901C159.102 114.227 157.731 116.666 159.525 118.891C159.608 118.994 159.729 119.047 159.85 119.047C159.942 119.047 160.035 119.017 160.112 118.955C160.292 118.81 160.32 118.547 160.175 118.368C158.144 115.848 161.305 113.177 161.441 113.065C161.454 113.054 161.46 113.039 161.471 113.026C161.557 113.056 161.642 113.083 161.731 113.123C162.009 113.249 162.732 113.822 163.437 116.419C163.488 116.605 163.656 116.727 163.84 116.727C163.876 116.727 163.913 116.723 163.949 116.713C164.172 116.651 164.303 116.422 164.243 116.198Z" fill="#EDB6B3"/>
<path d="M186.53 133.495C182.919 133.495 179.992 136.18 179.992 139.492V165.981L179.948 166.003V165.9C179.948 169.504 182.87 172.425 186.474 172.425C190.078 172.425 192.999 169.504 192.999 165.9V146.013H193.068V139.492C193.068 136.18 190.141 133.495 186.53 133.495Z" fill="#EDB6B3"/>
<path d="M210.437 102.361C210.25 96.013 205.041 90.97 198.69 90.97H186.513H186.507H174.542C168.073 90.97 162.762 96.109 162.577 102.575C162.313 111.775 163.493 123.821 165.343 128.408C167.063 132.669 171.688 137.007 177.122 140.642C182.9 144.507 190.432 144.483 196.178 140.571C201.499 136.949 205.968 132.644 207.677 128.408C209.542 123.787 210.708 111.588 210.437 102.361Z" fill="#EDB6B3"/>
<path d="M195.497 127.946C195.139 126.829 193.836 127.126 191.532 128.366C189.036 129.71 184.634 130.035 181.499 128.628C179.124 127.562 177.945 127.454 177.52 128.415C177.095 129.376 179.733 135.036 184.733 135.721C185.669 135.849 187.09 135.894 188.602 135.62C193.575 134.718 195.892 129.179 195.497 127.946Z" fill="#7F3322"/>
<path d="M179.677 127.186C179.677 127.186 179.761 131.124 185.953 131.244C192.144 131.364 193.969 129.44 193.995 126.719L179.677 127.186Z" fill="white"/>
<path d="M181.963 135.007C181.963 135.007 186.223 131.987 192.811 134.818L187.722 138.704L181.963 135.007Z" fill="#EDB6B3"/>
<path d="M181.963 135.007C181.963 135.007 186.223 131.987 192.811 134.818L187.722 138.704L181.963 135.007Z" fill="#EDB6B3"/>
<path d="M182.025 118.288C182.025 118.288 181.964 118.552 181.858 119.014C181.807 119.244 181.749 119.525 181.703 119.847C181.661 120.158 181.62 120.554 181.688 120.866C181.737 121.078 182.186 121.366 182.532 121.601C182.909 121.847 183.333 122.064 183.769 122.281C184.64 122.691 185.661 123.043 186.6 122.982C186.885 122.964 187.11 122.928 187.348 122.878C187.594 122.825 187.837 122.753 188.078 122.675C188.559 122.519 189.026 122.321 189.463 122.099C189.9 121.878 190.32 121.652 190.685 121.397C190.866 121.271 191.041 121.138 191.169 121.004C191.238 120.928 191.28 120.896 191.301 120.82C191.337 120.708 191.337 120.682 191.35 120.571C191.419 119.808 191.34 119.113 191.303 118.648C191.261 118.175 191.237 117.905 191.237 117.905C191.237 117.905 191.324 118.163 191.446 118.623C191.499 118.855 191.563 119.138 191.637 119.462C191.698 119.791 191.777 120.158 191.781 120.595C191.785 120.686 191.765 120.869 191.74 120.958C191.716 121.09 191.617 121.234 191.547 121.322C191.392 121.522 191.219 121.682 191.036 121.843C190.667 122.159 190.259 122.462 189.807 122.727C189.352 122.989 188.867 123.236 188.343 123.429C188.079 123.521 187.809 123.605 187.529 123.672C187.242 123.739 186.931 123.788 186.677 123.807C185.437 123.871 184.352 123.431 183.434 122.926C182.97 122.676 182.561 122.374 182.186 122.072C181.999 121.92 181.824 121.764 181.661 121.599C181.583 121.521 181.481 121.412 181.423 121.331C181.372 121.281 181.249 121.047 181.256 120.952C181.199 120.459 181.343 120.109 181.426 119.781C181.525 119.459 181.628 119.188 181.715 118.966C181.898 118.529 182.025 118.288 182.025 118.288Z" fill="#EDB6B3"/>
<path d="M167.972 125.26C168.044 125.26 168.044 125.149 167.972 125.149C167.9 125.149 167.901 125.26 167.972 125.26Z" fill="#3A2719"/>
<path d="M175.123 114.094C176.464 114.094 177.55 113.007 177.55 111.667C177.55 110.327 176.464 109.24 175.123 109.24C173.783 109.24 172.696 110.327 172.696 111.667C172.696 113.007 173.783 114.094 175.123 114.094Z" fill="#04080F"/>
<path d="M197.897 114.094C199.238 114.094 200.324 113.007 200.324 111.667C200.324 110.327 199.238 109.24 197.897 109.24C196.557 109.24 195.47 110.327 195.47 111.667C195.47 113.007 196.557 114.094 197.897 114.094Z" fill="#04080F"/>
<path d="M168.793 106.624C170.616 104.337 173.183 102.618 176.077 102.064" stroke="#04080F" stroke-width="2" stroke-miterlimit="10" stroke-linecap="round" stroke-linejoin="round"/>
<path d="M204.227 106.624C202.404 104.337 199.837 102.618 196.943 102.064" stroke="#04080F" stroke-width="2" stroke-miterlimit="10" stroke-linecap="round" stroke-linejoin="round"/>
<path d="M208.696 93.749C205.36 96.574 201.127 98.08 196.953 99.381C189.129 101.819 180.885 103.76 172.788 102.495C168.306 101.795 163.922 100.073 160.462 97.138C157.003 94.204 154.533 89.997 154.13 85.479C154.257 87.113 156.421 87.578 158.059 87.523C171.299 87.08 184.486 82.037 197.512 84.45C202.17 85.312 206.002 87.589 207.954 91.905" fill="#0C0C0D"/>
<path d="M207.743 92.796C200.392 99.31 187.08 101.894 177.472 101.573C167.301 101.233 157.033 96.042 155.498 85.101C154.586 85.352 153.675 85.603 152.764 85.855C153.563 88.105 155.234 88.751 157.547 88.912C162.49 89.256 167.975 87.884 172.826 87.058C183.057 85.317 200.784 81.109 207.074 92.418C207.719 93.578 209.4 92.558 208.835 91.389C205.049 83.559 196.581 82.362 188.608 82.546C183.676 82.659 178.791 83.462 173.929 84.24C171.286 84.663 156.621 88.262 155.498 85.101C154.873 83.343 152.514 84.074 152.764 85.855C156.435 112.033 194.182 105.143 209.376 94.912C210.983 93.831 209.216 91.491 207.743 92.796Z" fill="#0C0C0D"/>
<path d="M166.367 98.823C166.218 98.388 165.738 98.156 165.319 98.396C164.28 98.992 163.65 100.135 163.248 101.482C163.314 99.943 163.473 98.409 163.727 96.895C164.201 95.238 161.485 94.537 161.178 96.192C160.318 100.812 160.529 105.229 161.926 109.697C162.255 110.748 163.598 110.421 163.69 109.483C164.94 102.893 166.896 100.366 166.367 98.823Z" fill="#0C0C0D"/>
<path d="M203.658 95.19C204.319 100.374 209.987 104.016 210.152 109.24C211.098 106.479 212.052 103.676 212.225 100.762C212.397 97.848 211.691 94.759 209.692 92.632" fill="#0C0C0D"/>
<path d="M202.451 95.19C202.569 97.67 204.035 99.642 205.432 101.619C207.257 104.202 208.704 106.305 209.539 109.409C209.727 110.106 210.774 109.955 210.787 109.24C210.82 107.322 212.4 105.364 212.911 103.512C213.373 101.84 213.506 100.042 213.37 98.32C213.182 95.942 212.53 92.873 210.166 91.824C209.431 91.498 208.587 92.033 208.789 92.883C209.298 95.024 210.712 96.688 210.984 98.975C211.294 101.58 211.161 106.817 209.604 108.921C209.999 109.027 210.393 109.134 210.788 109.241C210.982 106.913 209.821 104.776 208.664 102.826C207.07 100.138 205.79 97.868 204.822 94.869C204.421 93.626 202.384 93.772 202.451 95.19Z" fill="#0C0C0D"/>
<path d="M199.638 76.471C194.479 75.414 188.99 76.146 183.91 77.287C180.327 78.092 176.838 79.228 173.363 80.4C168.305 82.106 165.136 81.133 161.214 77.301C160.406 76.511 159.218 76.761 158.614 77.636C156.88 80.143 156.386 83.178 156.93 85.904C155.225 84.65 153.508 83.415 151.805 82.158C151.179 81.696 150.034 82.155 149.91 82.929C149.027 88.492 148.465 94.41 152.223 99.087C155.656 103.358 161.397 105.116 166.614 105.906C181.375 108.143 195.137 101.635 208.272 95.801C209.403 95.299 208.421 93.674 207.305 94.148C206.873 94.332 206.439 94.514 206.006 94.696L208.731 92.783C208.731 92.789 208.732 92.796 208.732 92.802C208.788 93.686 210.052 94.185 210.516 93.285C214.4 85.755 206.526 77.882 199.638 76.471Z" fill="#0C0C0D"/>
<path d="M178.444 151.873C178.444 151.873 186.53 157.297 195.47 150.907C195.47 150.907 197.476 169.669 189.999 170.213C182.523 170.756 178.444 151.873 178.444 151.873Z" fill="#EDEDEB"/>
<path d="M216.352 150.907L202.722 146.164L193.068 144.966C193.035 147.629 192.416 165.094 186.696 167.856C181.065 165.137 179.993 148.158 179.947 145.092L161.173 148.188L161.263 157.562L157.644 176.518L160.261 216.254C160.261 216.254 173.249 218.978 185.038 220.08C203.717 221.827 211.99 216.254 211.99 216.254L215.573 177.058L216.352 150.907Z" fill="#555E66"/>
<path d="M137.291 83.008C137.291 83.008 138.908 76.561 138.099 76.271C137.29 75.981 136.621 75.875 136.138 76.995C135.654 78.115 133.837 82.068 133.837 82.068L132.234 78.537C132.234 78.537 130.424 70.024 130.061 69.024C129.711 68.061 127.978 67.958 127.862 69.284C127.802 69.975 128.889 79.201 128.889 79.201C128.889 79.201 125.28 68.841 124.51 68.377C123.74 67.913 122.39 68.345 122.657 70.035C122.745 70.591 125.349 80.576 125.349 80.576C125.349 80.576 122.152 74.401 121.246 73.604C120.341 72.807 119.459 73.535 119.34 74.34C119.22 75.145 123.195 83.976 123.195 83.976C123.195 83.976 120.985 81.552 120.187 81.09C119.388 80.628 118.57 81.193 118.717 82.161C118.864 83.129 125.337 92.431 125.337 92.431L126.621 98.63L135.979 95.413C135.616 94.422 135.177 90.612 135.177 90.612C135.379 90.201 137.291 83.008 137.291 83.008Z" fill="#EDB6B3"/>
<path d="M136.355 94.285L135.869 91.598L123.218 93.684L123.963 97.38L136.355 94.285Z" fill="#0C0C0D" stroke="#0C0C0D" stroke-width="0.25" stroke-miterlimit="10"/>
<path d="M135.425 148.322C128.864 132.302 123.208 96.733 123.208 96.733L136.92 93.337C136.92 93.337 146.003 124.518 150.837 134.413C153.164 139.176 159.469 147.221 163.374 149.8C160.735 160.686 164.278 168.821 158.333 177.98L158.423 177.023C158.424 177.022 141.2 162.423 135.425 148.322Z" fill="#555E66"/>
<path d="M236.921 129.453H251.745L249.834 136.047H239.069L236.921 129.453Z" fill="url(#paint12_linear)"/>
<path d="M263.972 97.669C263.972 97.669 272.822 92.955 274.073 99.689C275.324 106.423 271.284 113.061 264.069 109.405C256.854 105.749 263.972 97.669 263.972 97.669Z" fill="#EDB6B3"/>
<path opacity="0.7" d="M266.603 103.147C267.199 100.956 267.907 99.701 268.771 99.31C270.993 98.305 272.708 99.917 273.303 100.909C273.421 101.107 273.358 101.362 273.16 101.481C272.964 101.602 272.706 101.539 272.587 101.34C272.545 101.271 271.76 100.013 270.455 99.85C271.744 101.176 273.114 103.615 271.321 105.84C271.238 105.943 271.118 105.996 270.996 105.996C270.903 105.996 270.811 105.965 270.734 105.904C270.554 105.759 270.526 105.496 270.671 105.317C272.701 102.797 269.541 100.126 269.405 100.014C269.392 100.003 269.385 99.988 269.374 99.975C269.289 100.005 269.203 100.032 269.114 100.072C268.837 100.198 268.114 100.771 267.408 103.368C267.358 103.554 267.19 103.676 267.006 103.676C266.97 103.676 266.933 103.672 266.897 103.662C266.674 103.6 266.542 103.37 266.603 103.147Z" fill="#EDB6B3"/>
<path d="M224.699 97.669C224.699 97.669 215.848 92.955 214.598 99.689C213.347 106.423 217.387 113.061 224.602 109.405C231.818 105.749 224.699 97.669 224.699 97.669Z" fill="#EDB6B3"/>
<path opacity="0.7" d="M222.068 103.147C221.472 100.956 220.764 99.701 219.9 99.31C217.678 98.305 215.963 99.917 215.368 100.909C215.25 101.107 215.313 101.362 215.511 101.481C215.707 101.602 215.965 101.539 216.084 101.34C216.126 101.271 216.911 100.013 218.216 99.85C216.927 101.176 215.557 103.615 217.35 105.84C217.433 105.943 217.553 105.996 217.675 105.996C217.768 105.996 217.86 105.965 217.937 105.904C218.117 105.759 218.145 105.496 218 105.317C215.969 102.797 219.13 100.126 219.266 100.014C219.279 100.003 219.286 99.988 219.297 99.975C219.382 100.005 219.468 100.032 219.556 100.072C219.834 100.198 220.557 100.771 221.263 103.368C221.313 103.554 221.481 103.676 221.665 103.676C221.701 103.676 221.738 103.672 221.774 103.662C221.997 103.6 222.128 103.37 222.068 103.147Z" fill="#EDB6B3"/>
<path d="M244.356 120.444C240.746 120.444 237.818 123.129 237.818 126.441V134.008L237.774 134.03V133.927C237.774 137.531 240.696 140.453 244.299 140.453C247.903 140.453 250.824 137.531 250.824 133.927V132.961H250.893V126.44C250.894 123.129 247.966 120.444 244.356 120.444Z" fill="#EDB6B3"/>
<path d="M268.262 89.31C268.075 82.962 262.866 77.919 256.516 77.919H244.338H244.332H232.368C225.898 77.919 220.588 83.058 220.402 89.524C220.138 98.724 221.317 110.77 223.169 115.357C224.888 119.618 229.513 123.956 234.948 127.591C240.726 131.456 248.257 131.432 254.004 127.52C259.324 123.898 263.793 119.593 265.502 115.357C267.367 110.736 268.533 98.537 268.262 89.31Z" fill="#EDB6B3"/>
<path d="M255.005 114.895C254.58 113.777 253.033 114.075 250.297 115.315C247.334 116.659 242.109 116.984 238.387 115.577C235.568 114.511 234.167 114.403 233.663 115.364C233.159 116.325 236.29 121.985 242.226 122.67C243.337 122.798 245.024 122.843 246.819 122.569C252.723 121.667 255.474 116.128 255.005 114.895Z" fill="#7F3322"/>
<path d="M236.224 114.135C236.224 114.135 236.324 118.073 243.674 118.193C251.025 118.313 253.191 116.389 253.222 113.668L236.224 114.135Z" fill="white"/>
<path d="M238.939 121.956C238.939 121.956 243.996 118.936 251.817 121.767L245.775 125.653L238.939 121.956Z" fill="#EDB6B3"/>
<path d="M238.939 121.956C238.939 121.956 243.996 118.936 251.817 121.767L245.775 125.653L238.939 121.956Z" fill="#EDB6B3"/>
<path d="M239.851 105.237C239.851 105.237 239.79 105.501 239.684 105.963C239.633 106.193 239.575 106.474 239.53 106.796C239.488 107.107 239.446 107.503 239.515 107.815C239.564 108.027 240.013 108.315 240.359 108.55C240.736 108.796 241.161 109.013 241.596 109.23C242.467 109.64 243.488 109.992 244.426 109.931C244.711 109.913 244.936 109.877 245.174 109.827C245.42 109.774 245.663 109.702 245.903 109.624C246.384 109.468 246.852 109.27 247.288 109.048C247.725 108.827 248.145 108.601 248.51 108.346C248.691 108.22 248.866 108.087 248.994 107.953C249.063 107.877 249.104 107.845 249.126 107.769C249.162 107.657 249.162 107.63 249.175 107.52C249.244 106.758 249.165 106.062 249.128 105.598C249.087 105.125 249.063 104.855 249.063 104.855C249.063 104.855 249.15 105.113 249.273 105.573C249.326 105.805 249.39 106.088 249.463 106.412C249.525 106.741 249.604 107.108 249.607 107.545C249.612 107.636 249.591 107.819 249.566 107.908C249.543 108.04 249.443 108.184 249.374 108.272C249.219 108.472 249.046 108.632 248.862 108.794C248.493 109.11 248.086 109.413 247.633 109.678C247.179 109.94 246.694 110.187 246.169 110.38C245.905 110.472 245.635 110.556 245.356 110.623C245.069 110.69 244.758 110.739 244.503 110.758C243.263 110.822 242.178 110.382 241.26 109.877C240.797 109.627 240.387 109.325 240.013 109.023C239.826 108.871 239.651 108.715 239.488 108.55C239.411 108.472 239.307 108.363 239.25 108.282C239.199 108.232 239.076 107.998 239.084 107.903C239.026 107.41 239.171 107.06 239.254 106.732C239.353 106.41 239.455 106.139 239.543 105.917C239.724 105.478 239.851 105.237 239.851 105.237Z" fill="#EDB6B3"/>
<path d="M225.798 112.209C225.869 112.209 225.869 112.098 225.798 112.098C225.726 112.098 225.726 112.209 225.798 112.209Z" fill="#3A2719"/>
<path d="M232.948 101.042C234.289 101.042 235.375 99.9554 235.375 98.615C235.375 97.2746 234.289 96.188 232.948 96.188C231.608 96.188 230.521 97.2746 230.521 98.615C230.521 99.9554 231.608 101.042 232.948 101.042Z" fill="#04080F"/>
<path d="M255.723 101.042C257.064 101.042 258.15 99.9554 258.15 98.615C258.15 97.2746 257.064 96.188 255.723 96.188C254.383 96.188 253.296 97.2746 253.296 98.615C253.296 99.9554 254.383 101.042 255.723 101.042Z" fill="#04080F"/>
<path d="M226.618 93.572C228.442 91.285 231.008 89.566 233.902 89.012" stroke="#04080F" stroke-width="2" stroke-miterlimit="10" stroke-linecap="round" stroke-linejoin="round"/>
<path d="M262.052 93.572C260.229 91.285 257.662 89.566 254.769 89.012" stroke="#04080F" stroke-width="2" stroke-miterlimit="10" stroke-linecap="round" stroke-linejoin="round"/>
<path d="M277.261 81.1537C276.737 78.0574 275.563 75.0082 273.551 72.4172C274.596 71.1693 275.417 69.7483 275.983 68.5584C277.494 65.386 277.704 62.0165 277.041 58.654C276.794 57.4031 274.885 57.1529 273.971 57.9375C271.738 59.8539 269.351 61.0018 266.724 62.0035C268.025 60.0621 268.883 58.0196 269.046 56.0461C269.155 54.7141 267.465 54.2257 266.33 54.6681C261.261 56.6445 255.048 57.7754 249.816 60.017C249.943 59.7779 250.06 59.5317 250.175 59.2855C250.598 58.9512 252.633 54.0646 251.095 54.1327C249.444 54.2057 248.518 56.7176 244.464 57.7413C241.97 58.4659 211.577 59.7218 218.511 89.5129C218.824 91.8487 219.386 94.1153 220.183 96.2279C220.207 96.4881 220.223 96.7493 220.25 97.0095C220.4 98.4916 223.022 98.5206 222.896 97.0095C222.902 96.9124 222.904 96.8093 222.909 96.7123C222.913 96.6742 222.93 96.6462 222.93 96.6072C222.929 96.5371 222.925 96.4671 222.924 96.397C222.955 95.6925 222.973 94.963 222.979 94.2074C223.25 91.9367 223.714 89.3508 224.886 86.999C226.23 84.296 228.987 82.2485 232.292 81.8262C236.877 81.2408 242.439 82.6318 247.359 83.2463C253.918 84.0659 263.806 79.1753 269.228 83.0341C272.221 86.4116 272.453 92.0788 273.281 96.1719C273.572 97.6049 276.073 97.2236 276.089 95.8356C276.145 90.7168 278.143 86.3636 277.261 81.1537Z" fill="#0C0C0D"/>
<path d="M236.921 129.453L232.409 132.702L236.674 144.023L244.311 140.453L236.921 129.453Z" fill="#FDDA42"/>
<path d="M251.745 129.453L256.257 132.702L252.824 144.023L244.356 140.453L251.745 129.453Z" fill="#FDDA42"/>
<path d="M261.403 220.764C261.403 220.764 256.43 224.472 256.844 225.16C257.257 225.847 257.678 226.318 258.689 225.794C259.7 225.269 263.345 223.482 263.345 223.482L262.421 226.981C262.421 226.981 258.708 234.204 258.381 235.141C258.067 236.044 259.259 237.141 260.124 236.25C260.575 235.785 265.23 228.474 265.23 228.474C265.23 228.474 261.729 238.094 262.012 238.883C262.296 239.672 263.527 240.156 264.329 238.777C264.594 238.324 268.6 229.567 268.6 229.567C268.6 229.567 267.269 235.919 267.454 237.029C267.64 238.138 268.706 238.133 269.267 237.621C269.828 237.109 272.163 228.38 272.163 228.38C272.163 228.38 272.332 231.437 272.637 232.241C272.942 233.045 273.866 233.12 274.331 232.333C274.796 231.546 275.602 221.002 275.602 221.002L278.331 215.762L269.667 212.569C269.345 213.5 267.415 216.513 267.415 216.513C267.027 216.691 261.403 220.764 261.403 220.764Z" fill="#EDB6B3"/>
<path opacity="0.3" d="M266.033 210.69L271.145 185.747L272.47 197.571L266.033 210.69Z" fill="#474A4B"/>
<path d="M268.4 209.058L266.777 214.323L278.304 219.942L280.487 216.407L268.4 209.058Z" fill="#FDDA42"/>
<path d="M273.684 135.525C273.684 135.525 292.955 165.326 294.195 172.426C295.436 179.527 280.72 218.626 280.72 218.626L266.033 210.69L276.946 176.989L267.955 154.718L273.684 135.525Z" fill="#474A4B"/>
<path d="M136.162 280.465L109.162 277.747V277.72L109.03 277.734L108.898 277.72V277.747L81.8983 280.465L78.5683 307.491L79.4253 307.595H108.898H109.162H138.635L139.492 307.491L136.162 280.465Z" fill="#0C0C0D" stroke="#0C0C0D" stroke-width="0.25" stroke-miterlimit="10"/>
<path d="M108.918 294.452C121.853 294.093 139.375 290.864 139.375 290.864L135.417 220.934C135.706 217.868 135.759 216.291 132.554 215.256C128.14 213.831 110.275 205.675 110.275 205.675C110.191 205.666 110.107 205.667 110.023 205.661V205.639H108.92H108.106H107.068V205.661C106.987 205.667 106.905 205.666 106.824 205.675C106.824 205.675 89.5693 213.831 85.3053 215.256C82.2093 216.291 82.3173 217.867 82.5963 220.934L77.8583 290.864C77.8583 290.864 95.6163 294.088 108.106 294.451L108.918 294.452Z" fill="#555E66"/>
<path d="M68.8193 240.385C68.8193 240.385 66.4223 255.429 67.3613 256.987C68.3003 258.545 83.8813 262.694 94.4413 260.187C105.001 257.679 117.638 251.966 117.638 251.966L91.4973 245.065L80.2453 246.1C80.2453 246.1 72.2813 243.865 68.8193 240.385Z" fill="#EDB6B3"/>
<path opacity="0.3" d="M84.6223 247.124C84.6223 247.124 95.9533 251.583 95.9533 252.865C95.9533 254.148 96.8083 257.954 66.2363 256.8C66.2363 256.8 89.5393 271.252 111.559 263.983C133.58 256.714 117.637 253.507 117.637 253.507L84.6223 247.124Z" fill="#EDB6B3"/>
<path d="M64.7953 242.244L78.4783 246.32L84.1643 244.676L86.9283 242.067L104.356 235.338L104.253 205.64C104.253 205.64 80.3023 211.391 73.2993 219.51C69.1523 224.316 64.7953 242.244 64.7953 242.244Z" fill="#555E66"/>
<path opacity="0.5" d="M78.5223 246.22C78.5223 246.22 80.4053 235.8 82.5863 228.707L83.3883 247.123L78.5223 246.22Z" fill="#555E66"/>
<path d="M153.265 242.244L139.583 246.32L133.897 244.676L131.133 242.067L113.809 235.338V205.64C113.809 205.64 137.76 211.391 144.763 219.51C148.907 224.316 153.265 242.244 153.265 242.244Z" fill="#555E66"/>
<path opacity="0.5" d="M139.538 246.22C139.538 246.22 137.655 235.8 135.474 228.707L134.672 247.123L139.538 246.22Z" fill="#555E66"/>
<path d="M128.59 239.886C128.59 239.886 130.548 235.794 131.133 234.907C131.719 234.021 133.86 235.38 133.038 237.176C132.216 238.972 131.837 239.631 131.837 239.631L128.59 239.886Z" fill="#E2ABAA"/>
<path d="M117.227 247.331C117.227 247.331 129.37 238.407 129.955 238.407C130.54 238.407 139.216 238.204 139.787 238.323C140.3 238.43 140.423 239.387 140.289 239.866C140.208 240.153 139.956 240.355 139.658 240.37L133.727 240.772V240.894C133.727 240.894 139.147 240.85 141.405 241.007C141.886 241.041 142.251 241.445 142.244 241.928C142.237 242.404 141.865 242.793 141.39 242.823L134.562 243.355L142.688 243.832L143.414 246.161L123.518 249.233L117.227 247.331Z" fill="#EDB6B3"/>
<path d="M148.784 243.316C148.784 243.316 150.098 250.754 150.098 253.741C150.098 256.728 144.644 260.011 142.048 260.187C139.451 260.363 86.3473 247.982 83.4913 247.746C80.6343 247.509 78.1673 246.907 78.1673 246.907C78.1673 246.907 80.7643 241.961 85.5683 240.386C90.3723 238.81 95.8253 241.306 99.0713 242.071C102.317 242.836 119.716 245.219 128.804 245.066C137.893 244.912 148.784 243.316 148.784 243.316Z" fill="#EDB6B3"/>
<path opacity="0.25" d="M148.487 256.799C148.487 256.799 133.746 255.43 114.992 252.153C96.2383 248.875 78.1673 246.907 78.1673 246.907L142.417 262.13L148.487 256.799Z" fill="#EDB6B3"/>
<g opacity="0.3">
<path opacity="0.3" d="M120.608 244.865C120.608 244.865 120.941 244.852 121.525 244.832C122.107 244.821 122.938 244.806 123.936 244.788C125.928 244.77 128.578 244.796 131.223 244.83C133.868 244.874 136.51 244.914 138.494 244.91C138.991 244.908 139.446 244.907 139.849 244.905C140.254 244.91 140.606 244.9 140.895 244.884C141.476 244.863 141.812 244.865 141.812 244.865C141.812 244.865 141.49 244.951 140.919 245.077C140.633 245.142 140.285 245.212 139.883 245.276C139.482 245.341 139.028 245.436 138.53 245.483C136.541 245.742 133.871 245.867 131.208 245.829C128.545 245.788 125.889 245.594 123.905 245.358C122.913 245.247 122.09 245.107 121.513 245.025C120.935 244.933 120.608 244.865 120.608 244.865Z" fill="#EDB6B3"/>
</g>
<path d="M118.547 147.601C120.652 145.889 123.806 146.552 126.237 147.755C130.327 149.78 133.825 153.224 135.324 157.534C135.969 159.387 136.237 161.351 136.346 163.309C136.509 166.208 136.122 169.539 133.767 171.24C133.471 171.454 133.126 171.64 132.762 171.613C132.081 171.561 131.689 170.827 131.467 170.181C130.764 168.137 130.463 165.977 129.867 163.899C128.155 157.923 124.117 152.916 119.945 148.307" fill="#0C0C0D"/>
<path d="M119.239 148.785C124.569 145.756 131.467 152.578 133.41 156.865C134.413 159.077 134.849 161.512 134.862 163.942C134.875 166.466 133.901 170.999 132.133 166.638C130.66 163.003 130.17 159.534 127.998 156.119C126.041 153.043 123.56 149.406 120.395 147.538C119.568 147.05 118.831 147.99 119.176 148.756C120.857 152.483 124.155 155.354 126.123 159.006C128.168 162.801 128.186 167.27 130.13 170.962C132.699 175.842 136.827 171 137.603 167.515C138.892 161.725 136.84 154.982 132.789 150.751C129.102 146.902 122.962 143.299 117.855 146.416C116.35 147.336 117.699 149.66 119.239 148.785Z" fill="#0C0C0D"/>
<path d="M86.4713 171.321C82.2163 165.246 82.5573 156.553 86.6683 150.379C90.7783 144.205 98.1863 140.595 105.599 140.354C109.573 140.225 113.91 141.183 116.415 144.271C117.092 145.105 117.603 146.336 116.98 147.211C116.709 147.592 116.276 147.817 115.853 148.016C111.777 149.926 107.241 150.548 102.849 151.531C98.4573 152.514 93.9663 153.986 90.7813 157.167C87.1623 160.782 85.7573 166.454 87.2693 171.34" fill="#0C0C0D"/>
<path d="M87.3413 170.812C82.2763 161.893 85.0943 151.133 93.8103 145.685C97.6793 143.267 102.535 141.948 107.102 142.16C109.059 142.251 111.778 142.589 113.331 143.87C117.771 147.535 111.455 147.837 109.006 148.436C102.246 150.088 94.8893 150.837 89.7983 156.182C85.9673 160.204 84.7753 166.385 86.1063 171.66C86.4863 173.166 88.8143 172.528 88.4343 171.018C84.1553 154.061 104.266 154.362 114.769 150.357C123.69 146.956 115.761 139.931 109.838 138.866C92.2743 135.709 74.1603 155.514 85.6013 171.829C86.3363 172.877 87.9933 171.959 87.3413 170.812Z" fill="#0C0C0D"/>
<path d="M127.951 172.126C127.951 172.126 136.337 167.66 137.522 174.041C138.707 180.421 134.879 186.711 128.042 183.247C121.206 179.783 127.951 172.126 127.951 172.126Z" fill="#EDB6B3"/>
<path opacity="0.7" d="M130.444 177.317C131.008 175.241 131.679 174.052 132.498 173.681C134.603 172.729 136.228 174.255 136.793 175.196C136.905 175.384 136.845 175.626 136.658 175.738C136.472 175.852 136.228 175.793 136.115 175.604C136.074 175.539 135.331 174.347 134.094 174.192C135.316 175.449 136.615 177.76 134.915 179.869C134.837 179.966 134.723 180.016 134.607 180.016C134.52 180.016 134.432 179.987 134.359 179.928C134.189 179.791 134.162 179.541 134.299 179.371C136.223 176.983 133.229 174.452 133.1 174.346C133.088 174.336 133.082 174.322 133.071 174.31C132.99 174.338 132.909 174.364 132.825 174.402C132.561 174.522 131.876 175.065 131.208 177.525C131.16 177.702 131.001 177.817 130.827 177.817C130.793 177.817 130.758 177.813 130.723 177.803C130.511 177.746 130.387 177.529 130.444 177.317Z" fill="#EDB6B3"/>
<path d="M90.7383 172.126C90.7383 172.126 82.3523 167.66 81.1673 174.041C79.9823 180.421 83.8113 186.711 90.6473 183.247C97.4833 179.783 90.7383 172.126 90.7383 172.126Z" fill="#EDB6B3"/>
<path opacity="0.7" d="M88.2453 177.317C87.6813 175.241 87.0103 174.052 86.1913 173.681C84.0863 172.729 82.4613 174.255 81.8963 175.196C81.7843 175.384 81.8453 175.626 82.0323 175.738C82.2183 175.852 82.4623 175.793 82.5753 175.604C82.6153 175.539 83.3593 174.347 84.5953 174.192C83.3743 175.449 82.0753 177.76 83.7743 179.869C83.8533 179.966 83.9673 180.016 84.0823 180.016C84.1703 180.016 84.2573 179.987 84.3313 179.928C84.5013 179.791 84.5283 179.541 84.3913 179.371C82.4673 176.983 85.4623 174.452 85.5913 174.346C85.6033 174.336 85.6093 174.322 85.6203 174.31C85.7023 174.338 85.7823 174.364 85.8663 174.402C86.1293 174.522 86.8153 175.065 87.4833 177.525C87.5313 177.702 87.6903 177.817 87.8653 177.817C87.8993 177.817 87.9343 177.813 87.9693 177.803C88.1783 177.746 88.3023 177.529 88.2453 177.317Z" fill="#EDB6B3"/>
<path d="M114.992 199.389C114.992 196.251 112.219 193.706 108.797 193.706C105.376 193.706 102.602 196.251 102.602 199.389L102.588 206.214C102.585 209.64 105.361 212.418 108.786 212.418C112.208 212.418 114.983 209.645 114.985 206.223L114.992 199.389Z" fill="#EDB6B3"/>
<path d="M126.485 152.632L109.485 148.466H109.478L90.9853 152.632C90.9853 152.632 82.7373 180.653 86.4853 189.173C88.5233 193.805 91.9073 198.521 98.3483 202.473C105.197 206.675 114.136 206.649 120.948 202.396C127.253 198.458 129.959 193.778 131.985 189.173C135.733 180.653 126.485 152.632 126.485 152.632Z" fill="#EDB6B3"/>
<path d="M132.017 164.206C131.84 158.19 126.904 153.413 120.886 153.413H109.347H109.341H98.0053C91.8753 153.413 86.8423 158.282 86.6673 164.41C86.4173 173.128 87.5353 184.542 89.2893 188.889C90.9183 192.927 95.3013 197.037 100.451 200.482C105.926 204.144 113.062 204.122 118.508 200.415C123.55 196.983 127.784 192.903 129.404 188.89C131.169 184.507 132.274 172.949 132.017 164.206Z" fill="#EDB6B3"/>
<path d="M118.77 188.449C118.395 187.39 117.029 187.672 114.612 188.846C111.994 190.119 107.379 190.428 104.091 189.094C101.601 188.084 100.364 187.982 99.9203 188.893C99.4743 189.804 102.24 195.166 107.483 195.816C108.464 195.937 109.954 195.98 111.54 195.72C116.755 194.866 119.184 189.617 118.77 188.449Z" fill="#7F3322"/>
<path d="M102.182 187.728C102.182 187.728 102.27 191.46 108.763 191.574C115.256 191.688 117.168 189.864 117.196 187.286L102.182 187.728Z" fill="white"/>
<path d="M104.579 195.139C104.579 195.139 109.045 192.279 115.954 194.96L110.618 198.642L104.579 195.139Z" fill="#EDB6B3"/>
<path d="M104.579 195.139C104.579 195.139 109.045 192.279 115.954 194.96L110.618 198.642L104.579 195.139Z" fill="#EDB6B3"/>
<path d="M105.095 181.007C105.095 181.007 105.037 181.257 104.937 181.695C104.889 181.913 104.833 182.179 104.791 182.484C104.751 182.778 104.712 183.154 104.777 183.45C104.823 183.65 105.249 183.924 105.577 184.146C105.934 184.378 106.336 184.585 106.749 184.791C107.574 185.179 108.541 185.513 109.431 185.455C109.701 185.438 109.913 185.404 110.139 185.357C110.372 185.306 110.603 185.239 110.83 185.164C111.287 185.017 111.729 184.829 112.143 184.619C112.557 184.409 112.955 184.195 113.301 183.954C113.472 183.835 113.638 183.709 113.759 183.582C113.825 183.51 113.864 183.479 113.884 183.407C113.918 183.302 113.918 183.276 113.93 183.172C113.996 182.449 113.921 181.79 113.886 181.351C113.846 180.903 113.823 180.647 113.823 180.647C113.823 180.647 113.905 180.891 114.021 181.328C114.071 181.548 114.132 181.815 114.202 182.123C114.26 182.435 114.335 182.782 114.338 183.196C114.342 183.282 114.322 183.456 114.299 183.54C114.277 183.666 114.183 183.802 114.116 183.886C113.97 184.075 113.805 184.227 113.632 184.38C113.282 184.679 112.896 184.966 112.466 185.217C112.036 185.465 111.576 185.699 111.079 185.883C110.829 185.97 110.573 186.05 110.308 186.112C110.036 186.176 109.742 186.222 109.5 186.241C108.325 186.302 107.297 185.885 106.427 185.406C105.988 185.169 105.6 184.883 105.245 184.596C105.068 184.452 104.902 184.305 104.747 184.149C104.673 184.075 104.576 183.971 104.521 183.895C104.473 183.848 104.356 183.626 104.364 183.537C104.309 183.069 104.447 182.738 104.525 182.427C104.618 182.122 104.716 181.864 104.798 181.655C104.974 181.236 105.095 181.007 105.095 181.007Z" fill="#EDB6B3"/>
<path d="M91.7793 184.194C91.8473 184.194 91.8473 184.089 91.7793 184.089C91.7113 184.089 91.7113 184.194 91.7793 184.194Z" fill="#3A2719"/>
<path d="M98.5553 175.323C99.8256 175.323 100.855 174.293 100.855 173.023C100.855 171.753 99.8256 170.723 98.5553 170.723C97.2851 170.723 96.2553 171.753 96.2553 173.023C96.2553 174.293 97.2851 175.323 98.5553 175.323Z" fill="#04080F"/>
<path d="M120.135 175.323C121.406 175.323 122.435 174.293 122.435 173.023C122.435 171.753 121.406 170.723 120.135 170.723C118.865 170.723 117.835 171.753 117.835 173.023C117.835 174.293 118.865 175.323 120.135 175.323Z" fill="#04080F"/>
<path d="M92.5573 168.245C94.2853 166.078 96.7163 164.449 99.4593 163.924" stroke="#04080F" stroke-width="2" stroke-miterlimit="10" stroke-linecap="round" stroke-linejoin="round"/>
<path d="M126.132 168.245C124.404 166.078 121.972 164.449 119.23 163.924" stroke="#04080F" stroke-width="2" stroke-miterlimit="10" stroke-linecap="round" stroke-linejoin="round"/>
<path d="M119.76 148.339C120.069 148.823 119.724 149.446 119.389 149.913C117.444 152.615 115.48 155.34 113.01 157.572C110.54 159.804 107.491 161.535 104.178 161.863C103.809 161.899 103.399 161.905 103.117 161.665C102.832 161.422 102.775 161.008 102.777 160.635C102.788 158.386 104.197 156.395 105.718 154.739C108.75 151.438 112.481 148.781 116.593 146.996" fill="#0C0C0D"/>
<path d="M119.071 148.148C118.289 150.983 115.114 154.019 113.027 156.022C111.763 157.234 110.38 158.365 108.811 159.162C108.259 159.442 104.777 160.959 104.171 160.578C102.616 159.6 109.059 153.495 110.019 152.709C112.306 150.839 114.938 149.484 117.264 147.667C118.084 147.026 117.162 145.922 116.341 146.081C111.534 147.006 106.952 150.818 103.922 154.542C102.485 156.308 99.3993 161.766 103.006 163.074C106.597 164.376 111.841 160.246 114.205 157.982C116.008 156.254 117.54 154.265 118.999 152.245C120.119 150.694 121.149 149.766 120.378 147.977C120.124 147.389 119.221 147.604 119.071 148.148Z" fill="#0C0C0D"/>
<path d="M112.651 150.217C106.829 155.031 100.269 158.952 93.2713 161.799C92.0623 162.291 90.5903 162.725 89.5313 161.961C88.7993 161.432 88.5093 160.44 88.6233 159.544C88.7373 158.648 89.1953 157.832 89.7163 157.095C90.9323 155.375 92.5283 153.956 94.2253 152.71C100.241 148.295 107.739 145.939 115.198 146.118" fill="#0C0C0D"/>
<path d="M111.904 149.471C108.663 152.359 104.319 154.878 100.45 156.879C98.8873 157.688 96.0693 159.385 94.4553 159.592C92.5243 160.978 91.6783 160.143 91.9193 157.085C92.4373 156.486 93.0003 155.933 93.6063 155.426C96.7243 152.646 100.659 150.607 104.627 149.349C108.213 148.212 111.961 148.342 115.523 147.294C116.681 146.954 116.683 145.284 115.523 144.944C110.249 143.395 103.627 145.675 98.8403 147.955C94.6583 149.947 87.4793 154.055 86.9413 159.318C85.6333 172.127 110.615 153.004 113.183 151.129C114.409 150.232 113.049 148.451 111.904 149.471Z" fill="#0C0C0D"/>
<path d="M119.266 149.622C118.983 154.154 119.625 158.742 121.141 163.022C122.098 165.725 123.665 168.546 126.385 169.452C126.718 169.563 127.089 169.64 127.415 169.512C127.748 169.381 127.968 169.06 128.117 168.735C128.96 166.885 128.075 164.743 127.155 162.93C124.593 157.88 121.687 153.005 118.463 148.349" fill="#0C0C0D"/>
<path d="M118.352 149.622C117.719 154.792 118.109 160.137 120.258 164.96C121.334 167.376 124.582 172.413 128.019 170.943C131.238 169.567 129.842 164.923 128.826 162.668C126.489 157.481 123.431 151.463 119.457 147.353C118.281 146.137 116.613 147.675 117.249 149.057C118.528 151.84 120.437 154.362 122.003 157C123.371 159.302 126.373 162.952 126.582 165.65C126.865 169.306 124.335 166.118 123.458 164.539C122.644 163.074 122.145 161.331 121.699 159.729C120.787 156.452 120.325 153.015 120.179 149.621C120.128 148.418 118.492 148.479 118.352 149.622Z" fill="#0C0C0D"/>
<path d="M119.816 149.24C121.225 152.193 122.634 155.145 124.044 158.098C126.075 162.355 128.26 166.799 132.107 169.528C132.513 169.815 132.966 170.091 133.463 170.085C134.211 170.074 134.819 169.397 134.986 168.667C135.153 167.938 134.975 167.177 134.757 166.461C133.568 162.553 131.164 159.1 128.306 156.181C125.448 153.263 122.132 150.838 118.8 148.475" fill="#0C0C0D"/>
<path d="M118.968 149.474C120.155 152.936 129.088 177.708 135.812 170.703C138.917 167.469 134.468 161.057 132.487 158.398C129.282 154.095 124.281 149.067 119.153 147.2C117.779 146.7 117.122 148.499 117.864 149.413C120.402 152.54 124.239 154.494 127.076 157.412C128.126 158.492 134.53 165.961 132.702 167.218C130.642 168.634 121.731 150.643 120.573 148.797C120.066 147.986 118.632 148.494 118.968 149.474Z" fill="#0C0C0D"/>
<path d="M120.363 145.882C120.659 142.711 119.406 139.432 117.071 137.266C116.965 137.167 116.844 137.065 116.699 137.058C116.454 137.047 116.285 137.306 116.226 137.543C116.034 138.318 116.427 139.106 116.807 139.808C117.823 141.682 118.838 143.557 119.854 145.431" fill="#0C0C0D"/>
<path d="M121.087 146.082C121.52 144.016 121.543 141.979 120.692 140.012C120.076 138.589 118.557 135.619 116.7 135.619C111.884 135.619 117.636 145.408 119.246 146.473C120.019 146.984 121.067 146.308 121.062 145.431C121.054 144.077 120.256 143.027 119.617 141.868C119.306 141.304 117.769 138.131 117.426 138.301C116.942 138.301 116.458 138.301 115.973 138.301C118.181 139.509 119.442 143.585 119.613 145.882C119.673 146.674 120.902 146.962 121.087 146.082Z" fill="#0C0C0D"/>
<path d="M114.407 146.21C114.232 142.827 110.887 140.466 107.629 139.542C99.0883 137.121 89.7623 141.108 83.4683 147.368C81.7053 149.122 80.0113 151.388 80.3733 153.848C83.6373 153.149 86.6903 151.495 89.0593 149.143" fill="#0C0C0D"/>
<path d="M115.297 146.21C115.838 137.812 103.978 136.673 98.0383 137.661C90.5003 138.914 78.7163 145.069 78.6273 153.848C78.6153 155 79.7513 155.81 80.8373 155.532C84.3983 154.618 88.2593 153.094 90.1823 149.8C90.8803 148.604 89.5273 147.491 88.4023 148.02C85.4153 149.425 83.2363 151.301 79.9083 152.165C80.6453 152.726 81.3823 153.288 82.1183 153.849C82.1763 147.433 92.1233 142.525 97.3793 141.097C103.275 139.495 110.974 140.365 113.637 146.66C114.012 147.546 115.247 146.993 115.297 146.21Z" fill="#0C0C0D"/>
<path d="M81.7713 149.465C83.9173 143.598 89.8633 139.938 95.8453 138.137C100.2 136.825 104.991 136.278 109.24 137.902C113.488 139.526 116.953 143.776 116.53 148.304" fill="#0C0C0D"/>
<path d="M83.2183 150.312C88.3193 138.541 112.019 132.568 114.789 148.784C115.086 150.524 117.943 150.489 118.269 148.784C120.047 139.505 109.475 134.441 101.728 135.05C92.8163 135.751 83.7133 140.548 80.1543 149.021C79.4263 150.755 82.4633 152.053 83.2183 150.312Z" fill="#0C0C0D"/>
<path d="M120.369 144.557C120.237 144.669 120.105 144.78 119.973 144.892C121.271 142.329 124.454 141.161 127.312 141.451C127.734 141.494 128.22 141.611 128.394 141.997C128.692 142.658 127.832 143.223 127.141 143.444C124.607 144.257 122.072 145.069 119.537 145.882" fill="#0C0C0D"/>
<path d="M120.369 143.549C120.237 143.558 120.105 143.568 119.973 143.577C120.194 144.393 120.415 145.21 120.637 146.027C121.719 145.212 122.389 144.147 123.688 143.595C124.296 143.337 124.945 143.16 125.601 143.079C125.933 143.038 126.259 143.033 126.593 143.029C126.753 143.032 126.913 143.032 127.074 143.029C127.407 143.086 127.407 142.996 127.072 142.758C127.12 142.392 127.168 142.026 127.216 141.66C126.772 142.643 123.66 143.147 122.671 143.482C121.331 143.935 119.911 144.226 118.852 145.193C118.164 145.821 118.771 146.763 119.54 146.854C120.945 147.019 122.36 146.354 123.697 145.949C125.091 145.526 126.603 145.208 127.942 144.625C129.676 143.871 130.716 141.74 128.886 140.404C127.241 139.203 124.338 139.819 122.63 140.537C120.781 141.314 118.873 142.784 118.661 144.891C118.512 146.373 120.902 146.664 121.244 145.24C121.277 145.101 121.31 144.963 121.344 144.823C121.484 144.229 121.048 143.501 120.369 143.549Z" fill="#0C0C0D"/>
<path d="M91.2143 166.368H103.517C105.181 166.368 106.53 167.648 106.53 169.226V174.611C106.53 177.803 103.802 180.392 100.436 180.392H94.4173C90.9843 180.392 88.2013 177.751 88.2013 174.496V169.226C88.2013 167.648 89.5503 166.368 91.2143 166.368Z" stroke="#EDEDEB" stroke-width="1.2" stroke-miterlimit="10"/>
<path opacity="0.4" d="M91.2143 166.368H103.517C105.181 166.368 106.53 167.648 106.53 169.226V174.611C106.53 177.803 103.802 180.392 100.436 180.392H94.4173C90.9843 180.392 88.2013 177.751 88.2013 174.496V169.226C88.2013 167.648 89.5503 166.368 91.2143 166.368Z" fill="#EDEDEB"/>
<path d="M86.6313 170.606L88.2013 171.34" stroke="#EDEDEB" stroke-width="1.2" stroke-miterlimit="10" stroke-linecap="round" stroke-linejoin="round"/>
<path d="M128.048 166.368H115.745C114.081 166.368 112.732 167.648 112.732 169.226V174.611C112.732 177.803 115.46 180.392 118.826 180.392H124.845C128.278 180.392 131.061 177.751 131.061 174.496V169.226C131.061 167.648 129.712 166.368 128.048 166.368Z" stroke="#EDEDEB" stroke-width="1.2" stroke-miterlimit="10"/>
<path opacity="0.4" d="M128.048 166.368H115.745C114.081 166.368 112.732 167.648 112.732 169.226V174.611C112.732 177.803 115.46 180.392 118.826 180.392H124.845C128.278 180.392 131.061 177.751 131.061 174.496V169.226C131.061 167.648 129.712 166.368 128.048 166.368Z" fill="#EDEDEB"/>
<path d="M132.631 170.606L131.061 171.34" stroke="#EDEDEB" stroke-width="1.2" stroke-miterlimit="10" stroke-linecap="round" stroke-linejoin="round"/>
<path d="M106.953 171.828H112.182" stroke="#EDEDEB" stroke-width="2" stroke-miterlimit="10" stroke-linecap="round" stroke-linejoin="round"/>
<path d="M234.102 207.226C232.784 202.783 230.752 198.492 229.93 193.913C229.126 189.429 229.448 184.795 228.934 180.272C228.243 174.195 226.914 167.355 222.245 162.96C220.199 161.034 217.594 160.052 214.863 159.557C213.943 159.391 210.529 158.722 211.013 159.274C210.29 158.701 209.616 157.8 208.884 157.283C207.002 155.95 204.843 155.018 202.6 154.489C190.825 151.712 177.248 158.564 173.815 171.368C171.409 180.342 174.446 189.551 171.875 198.665C169.863 205.795 167.598 233.616 171.228 240.626C171.628 241.398 174.153 252.064 174.866 251.711C183.972 247.212 191.516 254.706 200.291 255.636C211.309 256.803 227.76 252.957 233.402 248.532C236.634 243.671 235.41 212.613 234.102 207.226Z" fill="#0C0C0D"/>
<path d="M218.877 189.573C218.877 189.573 227.014 185.239 228.164 191.43C229.313 197.621 225.599 203.724 218.965 200.363C212.332 197.003 218.877 189.573 218.877 189.573Z" fill="#EDB6B3"/>
<path d="M224.117 199.857C224.487 199.857 224.787 199.557 224.787 199.187C224.787 198.817 224.487 198.517 224.117 198.517C223.747 198.517 223.447 198.817 223.447 199.187C223.447 199.557 223.747 199.857 224.117 199.857Z" fill="#0C0C0D"/>
<path opacity="0.7" d="M221.296 194.61C221.844 192.595 222.495 191.441 223.289 191.082C225.332 190.158 226.908 191.64 227.456 192.552C227.564 192.734 227.507 192.969 227.325 193.077C227.144 193.188 226.907 193.131 226.798 192.947C226.759 192.884 226.037 191.728 224.838 191.578C226.023 192.797 227.283 195.04 225.634 197.086C225.559 197.18 225.447 197.229 225.335 197.229C225.25 197.229 225.165 197.202 225.095 197.144C224.93 197.011 224.904 196.769 225.036 196.604C226.903 194.288 223.997 191.832 223.872 191.728C223.86 191.718 223.854 191.705 223.845 191.693C223.766 191.72 223.687 191.746 223.606 191.783C223.351 191.898 222.686 192.426 222.038 194.813C221.991 194.984 221.837 195.095 221.667 195.095C221.635 195.095 221.601 195.091 221.566 195.082C221.361 195.026 221.24 194.815 221.296 194.61Z" fill="#EDB6B3"/>
<path d="M182.768 189.573C182.768 189.573 174.631 185.239 173.481 191.43C172.332 197.621 176.046 203.724 182.68 200.363C189.313 197.003 182.768 189.573 182.768 189.573Z" fill="#EDB6B3"/>
<path d="M177.527 199.857C177.897 199.857 178.197 199.557 178.197 199.187C178.197 198.817 177.897 198.517 177.527 198.517C177.157 198.517 176.857 198.817 176.857 199.187C176.857 199.557 177.157 199.857 177.527 199.857Z" fill="#0C0C0D"/>
<path opacity="0.7" d="M180.349 194.61C179.802 192.595 179.15 191.441 178.356 191.082C176.313 190.158 174.736 191.64 174.188 192.552C174.08 192.734 174.138 192.969 174.319 193.077C174.5 193.188 174.736 193.131 174.846 192.947C174.885 192.884 175.607 191.728 176.806 191.578C175.621 192.797 174.361 195.04 176.01 197.086C176.086 197.18 176.197 197.229 176.309 197.229C176.394 197.229 176.479 197.202 176.55 197.144C176.715 197.011 176.741 196.769 176.608 196.604C174.741 194.288 177.647 191.832 177.772 191.728C177.784 191.718 177.79 191.705 177.8 191.693C177.879 191.72 177.957 191.746 178.039 191.783C178.294 191.898 178.959 192.426 179.607 194.813C179.654 194.984 179.808 195.095 179.978 195.095C180.011 195.095 180.045 195.091 180.079 195.082C180.284 195.026 180.404 194.815 180.349 194.61Z" fill="#EDB6B3"/>
<path d="M208.023 224.24L206.302 223.015V216.027C206.302 212.982 203.611 210.513 200.291 210.513C196.971 210.513 194.28 212.982 194.28 216.027V223.382L192.584 224.239L191.632 235.307H211.292L208.023 224.24Z" fill="#EDB6B3"/>
<path d="M222.821 181.887C222.65 176.05 217.86 171.414 212.021 171.414H200.825H200.82H189.819C183.871 171.414 178.988 176.139 178.818 182.084C178.575 190.544 179.66 201.619 181.361 205.837C182.942 209.755 187.194 213.743 192.192 217.086C197.505 220.64 204.429 220.617 209.713 217.021C214.605 213.691 218.714 209.732 220.285 205.837C221.999 201.587 223.07 190.371 222.821 181.887Z" fill="#EDB6B3"/>
<path d="M209.086 205.412C208.757 204.384 207.559 204.657 205.44 205.798C203.145 207.033 199.098 207.333 196.215 206.038C194.031 205.058 192.947 204.959 192.557 205.843C192.166 206.727 194.592 211.93 199.189 212.56C200.049 212.678 201.356 212.719 202.746 212.467C207.318 211.638 209.448 206.545 209.086 205.412Z" fill="#7F3322"/>
<path d="M194.54 204.713C194.54 204.713 194.617 208.334 200.31 208.444C206.003 208.554 207.68 206.785 207.705 204.283L194.54 204.713Z" fill="white"/>
<path d="M196.642 211.903C196.642 211.903 200.559 209.128 206.616 211.729L201.937 215.302L196.642 211.903Z" fill="#EDB6B3"/>
<path d="M196.642 211.903C196.642 211.903 200.559 209.128 206.616 211.729L201.937 215.302L196.642 211.903Z" fill="#EDB6B3"/>
<path d="M196.698 196.531C196.698 196.531 196.642 196.774 196.545 197.199C196.498 197.411 196.444 197.669 196.402 197.965C196.364 198.251 196.325 198.615 196.389 198.903C196.434 199.097 196.847 199.362 197.165 199.579C197.511 199.805 197.901 200.005 198.302 200.204C199.103 200.581 200.042 200.904 200.905 200.849C201.167 200.833 201.373 200.8 201.593 200.754C201.819 200.704 202.043 200.639 202.263 200.566C202.706 200.422 203.136 200.241 203.537 200.037C203.938 199.834 204.325 199.626 204.66 199.391C204.826 199.276 204.987 199.154 205.105 199.031C205.169 198.962 205.207 198.931 205.226 198.862C205.259 198.758 205.259 198.734 205.271 198.633C205.335 197.932 205.262 197.292 205.228 196.865C205.189 196.43 205.167 196.182 205.167 196.182C205.167 196.182 205.247 196.419 205.36 196.842C205.408 197.056 205.467 197.316 205.535 197.613C205.591 197.916 205.664 198.253 205.667 198.655C205.671 198.739 205.652 198.906 205.629 198.988C205.607 199.11 205.516 199.242 205.452 199.323C205.309 199.508 205.151 199.654 204.982 199.803C204.643 200.093 204.268 200.371 203.851 200.616C203.434 200.856 202.987 201.084 202.505 201.262C202.262 201.346 202.014 201.424 201.757 201.485C201.493 201.548 201.207 201.592 200.973 201.61C199.832 201.669 198.835 201.264 197.991 200.8C197.565 200.57 197.188 200.292 196.844 200.015C196.673 199.874 196.511 199.732 196.361 199.58C196.29 199.508 196.195 199.407 196.142 199.334C196.095 199.288 195.983 199.073 195.99 198.985C195.937 198.532 196.07 198.211 196.146 197.908C196.237 197.612 196.332 197.363 196.412 197.158C196.582 196.753 196.698 196.531 196.698 196.531Z" fill="#EDB6B3"/>
<path d="M183.778 202.942C183.844 202.942 183.844 202.839 183.778 202.839C183.712 202.839 183.712 202.942 183.778 202.942Z" fill="#3A2719"/>
<path d="M190.353 192.674C191.585 192.674 192.584 191.675 192.584 190.443C192.584 189.211 191.585 188.212 190.353 188.212C189.121 188.212 188.122 189.211 188.122 190.443C188.122 191.675 189.121 192.674 190.353 192.674Z" fill="#04080F"/>
<path d="M211.292 192.674C212.524 192.674 213.523 191.675 213.523 190.443C213.523 189.211 212.524 188.212 211.292 188.212C210.06 188.212 209.061 189.211 209.061 190.443C209.061 191.675 210.06 192.674 211.292 192.674Z" fill="#04080F"/>
<path d="M184.533 185.806C186.209 183.703 188.569 182.122 191.23 181.614" stroke="#04080F" stroke-width="2" stroke-miterlimit="10" stroke-linecap="round" stroke-linejoin="round"/>
<path d="M217.112 185.806C215.435 183.703 213.076 182.122 210.415 181.614" stroke="#04080F" stroke-width="2" stroke-miterlimit="10" stroke-linecap="round" stroke-linejoin="round"/>
<path d="M206.302 167.247C206.302 167.247 207.802 181.434 222.931 184.889L224.117 177.358C224.117 177.357 217.397 167.119 206.302 167.247Z" fill="#0C0C0D" stroke="#0C0C0D" stroke-width="0.25" stroke-miterlimit="10"/>
<path d="M209.061 163.61C209.061 163.61 213.221 173.876 202.131 180.278C192.066 186.089 187.881 174.193 178.85 188.098C178.85 188.098 174.262 180.514 179.462 171.414C182.248 166.54 201.029 159.119 209.061 163.61Z" fill="#0C0C0D" stroke="#0C0C0D" stroke-width="0.25" stroke-miterlimit="10"/>
<path d="M246.934 153.601C246.934 153.601 245.45 147.672 246.193 147.406C246.937 147.139 247.552 147.042 247.997 148.072C248.441 149.102 250.11 152.737 250.11 152.737L251.586 149.491C251.586 149.491 253.252 141.665 253.587 140.745C253.909 139.859 255.503 139.766 255.608 140.985C255.663 141.621 254.661 150.102 254.661 150.102C254.661 150.102 257.982 140.578 258.69 140.152C259.398 139.726 260.639 140.123 260.393 141.677C260.312 142.188 257.914 151.367 257.914 151.367C257.914 151.367 260.855 145.69 261.688 144.958C262.52 144.226 263.331 144.895 263.44 145.636C263.55 146.376 259.892 154.494 259.892 154.494C259.892 154.494 261.925 152.265 262.66 151.842C263.394 151.418 264.146 151.937 264.011 152.827C263.876 153.717 258.555 161.404 258.555 161.404L256.739 167.967L248.135 165.006C248.469 164.095 248.874 160.592 248.874 160.592C248.689 160.214 246.934 153.601 246.934 153.601Z" fill="#EDB6B3"/>
<path d="M246.719 163.535L247.342 161.104L258.806 163.855L257.789 166.415L246.719 163.535Z" fill="#0C0C0D" stroke="#0C0C0D" stroke-width="0.25" stroke-miterlimit="10"/>
<path d="M247.573 219.656C253.605 204.927 258.805 166.223 258.805 166.223L246.197 163.1C246.197 163.1 237.845 192.769 233.402 201.867C231.262 206.247 222.798 219.169 219.208 221.54C221.634 231.549 226.377 241.029 231.843 249.449L231.76 248.569C231.76 248.569 242.263 232.621 247.573 219.656Z" fill="#555E66"/>
<path d="M211.096 287.035L215.21 228.676C198.806 238.148 187.881 228.933 187.881 228.933L192.538 287.036H211.096V287.035Z" fill="#EDEDEB"/>
<path d="M190.353 289.083C190.229 286.06 196.46 280.807 196.438 277.492C196.169 238.574 192.807 228.873 192.584 224.24L180.1 228.123C168.24 231.811 162.071 241.588 161.681 254.002L160.046 287.035L190.353 289.083Z" fill="#555E66"/>
<path d="M231.843 249.449C229.08 245.193 226.503 240.666 224.316 235.936C224.011 234.905 223.603 233.939 223.048 233.058C221.476 229.322 220.161 225.472 219.208 221.539C218.946 221.712 218.709 221.833 218.504 221.887C213.108 223.293 207.998 224.24 207.998 224.24L208.012 224.433C207.734 229.417 205.174 250.518 204.17 277.492C204.046 280.805 203.92 284.013 203.796 287.035H212.387H229.308H235.378L231.843 249.449Z" fill="#555E66"/>
<path opacity="0.4" d="M178.197 287.035L174.866 251.713V287.035H178.197Z" fill="#555E66"/>
<path d="M248.684 307.595H148.929V254.38C148.929 251.658 151.136 249.451 153.858 249.451H243.755C246.477 249.451 248.684 251.658 248.684 254.38V307.595Z" fill="#0C0C0D"/>
<path d="M198.806 289.083C202.247 289.083 205.035 286.294 205.035 282.854C205.035 279.414 202.247 276.625 198.806 276.625C195.366 276.625 192.577 279.414 192.577 282.854C192.577 286.294 195.366 289.083 198.806 289.083Z" fill="url(#paint13_linear)"/>
<path d="M286.613 269.939L283.974 307.595L343.911 307.411C343.911 307.411 342.432 279.681 338.247 270.503C334.062 261.325 286.613 269.939 286.613 269.939Z" fill="#0C0C0D"/>
<path d="M299.607 212.332H303.559L319.896 213.594L328.345 215.173L341.317 252.35L344.748 291.266C344.748 291.266 303.935 295.353 283.14 291.266L283.82 229.528L299.607 212.332Z" fill="#555E66"/>
<path d="M285.726 143.784C285.102 143.363 284.558 143.127 283.905 143.973C283.252 144.819 280.853 147.781 280.853 147.781L280.257 144.437C280.257 144.437 280.565 136.82 280.473 135.892C280.384 134.999 278.936 134.536 278.55 135.637C278.349 136.21 277.275 144.276 277.275 144.276C277.275 144.276 276.456 134.701 275.902 134.141C275.348 133.581 274.109 133.655 273.97 135.147C273.925 135.638 273.973 144.677 273.973 144.677C273.973 144.677 272.596 138.743 272 137.871C271.404 136.999 270.498 137.426 270.223 138.083C269.947 138.741 271.409 147.097 271.409 147.097C271.409 147.097 270.057 144.56 269.48 143.996C268.902 143.431 268.085 143.733 268.001 144.587C267.916 145.441 271.015 153.79 271.015 153.79L271.144 160.277L279.784 159.573C279.69 158.654 280.142 155.324 280.142 155.324C280.403 155.018 283.582 149.327 283.582 149.327C283.582 149.327 286.35 144.206 285.726 143.784Z" fill="#EDB6B3"/>
<path d="M283.818 229.527L298.21 226.609L299.606 212.332C299.982 212.481 296.806 209.928 294.976 207.75C289.948 201.765 285.676 198.962 285.09 196.154C283.631 189.163 281.607 154.313 281.607 154.313L267.217 155.699C267.217 155.699 266.248 189.938 268.788 205.156C270.011 212.479 281.2 224.257 283.818 229.527Z" fill="#555E66"/>
<path d="M314.705 153.908C314.485 151.318 311.983 149.517 309.52 148.684C303.071 146.501 295.048 149.116 291.929 155.168C289.446 159.988 290.26 165.751 289.873 171.16" fill="#0C0C0D"/>
<path d="M316.135 153.908C315.818 145.032 303.246 144.579 297.215 147.461C293.61 149.183 290.572 152.244 289.343 156.107C287.999 160.328 287.266 167.511 289.318 171.485C289.552 171.937 290.181 171.867 290.431 171.485C291.86 169.304 291.556 167.142 291.719 164.582C291.971 160.611 292.685 156.532 295.646 153.622C300.044 149.297 310.461 148 313.47 154.63C314.066 155.942 316.183 155.262 316.135 153.908Z" fill="#0C0C0D"/>
<path d="M303.674 195.202C302.587 193.211 301.232 191.464 299.736 189.771C297.566 187.314 296.456 185.56 295.518 182.374C294.836 180.055 293.58 177.393 291.28 177.126C291.468 176.504 290.868 175.813 290.097 176.163C286.154 177.961 286.34 182.228 285.587 185.923C284.553 190.994 280.282 194.341 279.108 199.286C278.871 200.285 278.637 201.609 279.451 202.454C280.528 203.571 280.818 202.662 281.968 202.687C285.24 202.759 286.745 205.03 289.607 205.834C290.846 206.184 292.461 206.133 293.653 206.356C295.095 206.627 296.463 207.219 297.921 207.432C300.655 207.832 303.789 207.387 305.205 204.693C306.795 201.668 305.154 197.913 303.674 195.202Z" fill="#0C0C0D"/>
<path d="M289.04 177.394C288.851 174.382 288.818 171.356 288.942 168.335C289.036 166.066 289.225 163.765 289.981 161.633C291.036 158.661 293.144 156.199 295.595 154.383C298.058 152.557 301.176 151.303 304.021 152.228C306.236 152.948 307.939 154.9 308.983 157.1C310.026 159.3 310.497 161.754 310.957 164.175" fill="#0C0C0D"/>
<path d="M289.989 177.394C290.517 170.656 289.755 162.103 295.137 157.171C299.008 153.624 304.315 152.432 307.095 157.895C308.27 160.202 308.262 162.755 309.682 164.921C310.326 165.902 312.117 165.891 312.38 164.568C314.051 156.197 305.873 147.399 297.526 151.11C286.852 155.856 286.275 167.654 288.125 177.648C288.331 178.761 289.911 178.396 289.989 177.394Z" fill="#0C0C0D"/>
<path d="M344.036 206.342C344.013 206.194 343.956 206.041 343.855 205.886C343.063 204.663 342.179 203.75 341.126 202.738C338.288 200.006 338.51 197.045 340.15 193.933C341.824 190.76 342 187.197 342.504 183.557C343.471 176.578 342.499 158.27 338.023 152.528C334.242 147.68 311.337 133.636 302.289 149.099C299.84 153.282 312.639 156.265 311.97 161.623C311.102 168.582 318.92 171.535 323.77 174.143C332.708 178.95 332.415 189.346 324.523 195.129C321.806 197.12 318.769 197.916 315.746 199.252C314.047 200.003 311.343 201.489 311.217 203.685C311.15 204.85 312.068 206.252 313.075 206.791C314.3 207.445 315.564 207.178 316.817 207.84C318.476 208.718 319.202 210.445 320.758 211.544C323.109 213.203 324.992 212.864 327.482 212.033C330.858 210.906 333.27 213.833 336.741 213.729C337.207 213.715 337.684 213.362 338.108 213.375C338.866 213.398 339.768 213.906 340.554 213.907C341.608 213.908 341.699 214.131 342.717 213.314C344.766 211.676 344.845 208.586 344.036 206.342Z" fill="#0C0C0D"/>
<path d="M328.006 182.598C328.006 182.598 336.766 180.317 336.45 186.492C336.134 192.667 331.194 197.647 325.627 192.924C320.06 188.201 328.006 182.598 328.006 182.598Z" fill="#EDB6B3"/>
<path opacity="0.7" d="M329.166 187.962C330.149 186.162 331.034 185.209 331.875 185.047C334.036 184.631 335.204 186.406 335.52 187.401C335.582 187.6 335.472 187.811 335.274 187.874C335.077 187.938 334.863 187.829 334.8 187.63C334.778 187.561 334.352 186.291 333.241 185.874C334.094 187.309 334.786 189.738 332.744 191.315C332.65 191.388 332.533 191.409 332.426 191.383C332.345 191.363 332.27 191.318 332.215 191.247C332.088 191.082 332.118 190.846 332.283 190.718C334.595 188.932 332.381 185.923 332.285 185.796C332.275 185.784 332.273 185.77 332.265 185.756C332.184 185.764 332.103 185.771 332.017 185.786C331.746 185.839 330.992 186.19 329.828 188.322C329.744 188.475 329.571 188.547 329.409 188.508C329.378 188.501 329.346 188.489 329.316 188.473C329.134 188.373 329.067 188.144 329.166 187.962Z" fill="#EDB6B3"/>
<path d="M294.579 174.725C294.579 174.725 288.213 168.289 285.33 173.759C282.447 179.229 284.151 186.033 291.351 184.816C298.551 183.599 294.579 174.725 294.579 174.725Z" fill="#EDB6B3"/>
<path opacity="0.7" d="M290.843 178.743C290.916 176.694 290.643 175.423 290.003 174.853C288.357 173.392 286.446 174.322 285.667 175.017C285.512 175.156 285.498 175.393 285.637 175.548C285.774 175.704 286.013 175.719 286.169 175.579C286.224 175.531 287.237 174.657 288.405 174.866C286.939 175.664 285.103 177.399 286.053 179.799C286.097 179.909 286.186 179.987 286.291 180.02C286.371 180.044 286.459 180.043 286.542 180.01C286.735 179.934 286.83 179.715 286.754 179.521C285.678 176.805 289.119 175.349 289.266 175.289C289.281 175.283 289.289 175.272 289.303 175.265C289.369 175.314 289.435 175.36 289.501 175.418C289.706 175.601 290.176 176.289 290.088 178.717C290.082 178.891 290.194 179.04 290.353 179.09C290.384 179.1 290.417 179.106 290.452 179.107C290.66 179.114 290.835 178.951 290.843 178.743Z" fill="#EDB6B3"/>
<path d="M317.517 205.099C317.785 202.121 315.37 199.471 312.122 199.18C308.875 198.888 306.026 201.066 305.76 204.044L305.166 210.519C304.871 213.769 307.269 215.037 310.519 215.328C313.766 215.62 316.635 213.224 316.928 209.977L317.517 205.099Z" fill="#EDB6B3"/>
<path d="M333.527 176.16C334.696 170.548 331.18 165.027 325.604 163.694L314.912 161.138L314.907 161.137L304.402 158.626C298.721 157.269 292.98 160.666 291.461 166.305C289.298 174.327 287.806 185.152 288.468 189.568C289.083 193.671 292.234 198.45 296.242 202.782C300.505 207.388 307.122 208.948 312.988 206.72C318.42 204.657 323.247 201.814 325.637 198.453C328.245 194.784 331.829 184.318 333.527 176.16Z" fill="#EDB6B3"/>
<path d="M298.511 195.205C298.88 194.276 299.832 194.642 301.452 195.902C303.207 197.267 306.483 197.921 308.965 196.979C310.844 196.266 311.739 196.275 311.973 197.135C312.205 197.995 309.717 202.627 305.9 202.79C305.185 202.82 304.114 202.737 303.003 202.374C299.348 201.178 298.105 196.228 298.511 195.205Z" fill="#7F3322"/>
<path d="M310.462 195.897C310.462 195.897 310.046 199.269 305.385 198.845C300.724 198.422 299.526 196.616 299.749 194.279L310.462 195.897Z" fill="white"/>
<path d="M308.044 202.414C308.044 202.414 305.115 199.461 299.913 201.329L303.387 205.096L308.044 202.414Z" fill="#EDB6B3"/>
<path d="M308.044 202.414C308.044 202.414 305.115 199.461 299.913 201.329L303.387 205.096L308.044 202.414Z" fill="#EDB6B3"/>
<path d="M301.71 185.483C301.71 185.483 301.602 185.703 301.412 186.086C301.318 186.277 301.209 186.512 301.101 186.784C300.998 187.049 300.879 187.388 300.874 187.677C300.872 187.873 301.206 188.22 301.461 188.499C301.74 188.794 302.066 189.074 302.403 189.356C303.083 189.898 303.905 190.421 304.742 190.565C304.996 190.61 305.2 190.625 305.42 190.631C305.648 190.635 305.876 190.624 306.104 190.606C306.559 190.57 307.011 190.494 307.441 190.391C307.87 190.288 308.288 190.178 308.661 190.031C308.847 189.959 309.027 189.879 309.168 189.788C309.245 189.736 309.288 189.717 309.323 189.654C309.378 189.564 309.384 189.541 309.418 189.446C309.639 188.792 309.716 188.164 309.78 187.749C309.843 187.325 309.879 187.083 309.879 187.083C309.879 187.083 309.9 187.327 309.912 187.757C309.909 187.973 309.907 188.235 309.903 188.534C309.888 188.836 309.881 189.175 309.792 189.558C309.776 189.639 309.721 189.795 309.68 189.869C309.631 189.98 309.514 190.086 309.434 190.148C309.256 190.291 309.072 190.395 308.876 190.499C308.485 190.698 308.063 190.879 307.61 191.017C307.157 191.152 306.678 191.267 306.177 191.327C305.926 191.352 305.671 191.37 305.412 191.37C305.145 191.368 304.862 191.346 304.635 191.309C303.532 191.105 302.672 190.491 301.972 189.855C301.618 189.538 301.322 189.187 301.057 188.843C300.924 188.67 300.803 188.497 300.695 188.319C300.643 188.234 300.576 188.116 300.542 188.034C300.508 187.979 300.449 187.748 300.476 187.666C300.53 187.222 300.73 186.944 300.872 186.673C301.025 186.411 301.173 186.195 301.296 186.019C301.548 185.668 301.71 185.483 301.71 185.483Z" fill="#EDB6B3"/>
<path d="M291.816 185.769C291.879 185.784 291.903 185.686 291.839 185.671C291.777 185.656 291.753 185.754 291.816 185.769Z" fill="#3A2719"/>
<path d="M298.011 179.373C299.221 179.373 300.202 178.392 300.202 177.182C300.202 175.972 299.221 174.991 298.011 174.991C296.801 174.991 295.82 175.972 295.82 177.182C295.82 178.392 296.801 179.373 298.011 179.373Z" fill="#04080F"/>
<path d="M317.882 184.65C319.092 184.65 320.073 183.669 320.073 182.459C320.073 181.249 319.092 180.268 317.882 180.268C316.672 180.268 315.691 181.249 315.691 182.459C315.691 183.669 316.672 184.65 317.882 184.65Z" fill="#04080F"/>
<path d="M294.768 170.865C296.945 169.372 299.614 168.564 302.259 168.849" stroke="#04080F" stroke-width="2" stroke-miterlimit="10" stroke-linecap="round" stroke-linejoin="round"/>
<path d="M325.36 180.209C324.388 177.754 322.626 175.593 320.273 174.353" stroke="#04080F" stroke-width="2" stroke-miterlimit="10" stroke-linecap="round" stroke-linejoin="round"/>
<path d="M338.025 179.075C339.593 179.075 339.595 176.637 338.025 176.637C336.455 176.637 336.453 179.075 338.025 179.075Z" fill="#0C0C0D"/>
<path d="M331.251 158.975C327.342 154.427 317.791 149.779 311.807 152.761C306.888 155.212 306.21 163.987 308.65 168.236C313.429 176.56 329.188 172.082 331.821 181.888C331.94 182.332 332.577 182.14 332.5 181.7C332.487 181.63 332.465 181.568 332.451 181.499L333.936 179.99C334.418 180.396 335.367 180.329 335.476 179.58C336.448 172.882 335.846 164.321 331.251 158.975Z" fill="#0C0C0D"/>
<path d="M309.021 158.456C307.431 160.979 304.757 162.792 301.825 163.334C300.107 163.652 298.301 163.558 296.665 164.17C293.836 165.229 291.791 167.338 290.665 170.142C290.454 170.667 289.729 171.251 289.477 170.745C289.429 170.649 289.426 170.537 289.424 170.43C289.35 166.466 289.879 163.17 291.474 159.54C293.069 155.909 296.404 152.8 300.36 152.543C304.317 152.286 308.429 155.735 307.971 159.674" fill="#0C0C0D"/>
<path d="M308.134 157.57C306.446 159.284 304.916 160.983 302.535 161.715C300.442 162.358 298.205 162.149 296.134 162.913C294.772 163.414 293.526 164.203 292.462 165.185C291.729 165.862 289.236 168.382 289.514 169.471C289.945 169.791 290.374 170.112 290.805 170.431C290.876 169.79 290.922 169.149 290.944 168.505C291.048 167.219 291.148 165.942 291.422 164.68C291.889 162.523 292.649 160.267 293.895 158.435C297.618 152.963 305.252 152.77 306.526 160.073C306.779 161.527 309.13 161.483 309.419 160.073C310.588 154.357 304.305 150.086 299.078 151.05C292.507 152.262 289.185 159.05 288.253 165.048C288.003 166.658 287.112 170.519 288.672 171.793C289.92 172.811 291.062 171.874 291.818 170.817C293.241 168.828 293.874 166.973 296.336 165.803C298.515 164.768 301.005 165.085 303.287 164.433C306.097 163.631 308.814 161.737 310.106 159.091C310.705 157.859 309.183 156.506 308.134 157.57Z" fill="#0C0C0D"/>
<path d="M302.941 208.056L311.112 209.278L319.174 208.911L319.642 216.422L311.392 216.148L302.273 215.068L302.941 208.056Z" fill="#0C0C0D"/>
<path opacity="0.3" d="M302.941 208.056L311.112 209.278L319.174 208.911L319.642 216.422L311.392 216.148L302.273 215.068L302.941 208.056Z" fill="#0C0C0D"/>
<path opacity="0.5" d="M317.197 260.615C317.197 260.615 334.907 271.133 343.336 274.361L342.89 269.491L317.197 260.615Z" fill="#555E66"/>
<path d="M314.237 237.5C313.584 237.874 313.133 238.26 313.604 239.219C314.075 240.178 315.678 243.635 315.678 243.635L312.413 242.697C312.413 242.697 305.711 239.065 304.837 238.739C303.996 238.426 302.942 239.522 303.761 240.353C304.188 240.786 310.955 245.303 310.955 245.303C310.955 245.303 301.998 241.822 301.251 242.072C300.505 242.322 300.025 243.467 301.304 244.249C301.725 244.507 309.861 248.444 309.861 248.444C309.861 248.444 303.927 247.066 302.882 247.217C301.837 247.367 301.821 248.369 302.29 248.906C302.759 249.443 310.904 251.811 310.904 251.811C310.904 251.811 308.032 251.907 307.27 252.176C306.508 252.447 306.42 253.313 307.149 253.765C307.878 254.217 316.739 255.114 316.739 255.114L322.62 257.855L325.793 249.789C324.927 249.468 322.137 247.596 322.137 247.596C321.978 247.228 318.269 241.867 318.269 241.867C318.269 241.867 314.89 237.125 314.237 237.5Z" fill="#EDB6B3"/>
<path d="M328.345 215.173C328.345 215.173 336.382 216.58 340.188 221.519C343.359 225.634 358.434 258.702 355.886 263.556C355.128 264.999 353.651 273.843 348.58 272.633C336.604 269.776 317.197 260.615 317.197 260.615L324.011 245.881L337.99 249.323L332.554 232.021L328.345 215.173Z" fill="#555E66"/>
<path opacity="0.5" d="M324.012 245.881L337.99 248.759V249.323L324.012 245.881Z" fill="#555E66"/>
<path d="M258.568 272.037V265.565C258.568 264.326 257.564 263.322 256.325 263.322C255.086 263.322 254.082 264.326 254.082 265.565V274.117C254.082 275.522 255.221 276.661 256.626 276.661H257.053H258.569H266.251V272.175H258.708C258.63 272.174 258.568 272.113 258.568 272.037Z" fill="url(#paint14_linear)"/>
<path d="M273.314 282.497V276.026C273.314 274.787 274.318 273.783 275.557 273.783C276.796 273.783 277.8 274.787 277.8 276.026V284.578C277.8 285.983 276.661 287.122 275.256 287.122H274.829H273.313H265.631V282.636H273.174C273.251 282.635 273.314 282.573 273.314 282.497Z" fill="url(#paint15_linear)"/>
<path d="M258.568 272.037V265.565C258.568 264.326 257.564 263.322 256.325 263.322C255.086 263.322 254.082 264.326 254.082 265.565V274.117C254.082 275.522 255.221 276.661 256.626 276.661H257.053H258.569H266.251V272.175H258.708C258.63 272.174 258.568 272.113 258.568 272.037Z" fill="url(#paint16_linear)"/>
<path d="M273.314 282.497V276.026C273.314 274.787 274.318 273.783 275.557 273.783C276.796 273.783 277.8 274.787 277.8 276.026V284.578C277.8 285.983 276.661 287.122 275.256 287.122H274.829H273.313H265.631V282.636H273.174C273.251 282.635 273.314 282.573 273.314 282.497Z" fill="url(#paint17_linear)"/>
<path d="M266.919 256.846C269.06 256.846 270.796 258.582 270.796 260.724V294.258C270.796 296.4 269.06 298.135 266.919 298.135C264.777 298.135 263.041 296.4 263.041 294.258V260.724C263.041 258.583 264.777 256.846 266.919 256.846Z" fill="url(#paint18_linear)"/>
<path d="M266.919 256.846C269.06 256.846 270.796 258.582 270.796 260.724V294.258C270.796 296.4 269.06 298.135 266.919 298.135C264.777 298.135 263.041 296.4 263.041 294.258V260.724C263.041 258.583 264.777 256.846 266.919 256.846Z" fill="url(#paint19_linear)"/>
<path d="M275.56 306.65H258.73L257.872 291.533H276.417L275.56 306.65Z" fill="#0C0C0D"/>
<path d="M277.965 289.152H256.324V294.365H277.965V289.152Z" fill="#0C0C0D"/>
<path d="M277.965 289.152H256.324V294.365H277.965V289.152Z" fill="#4BAAFC"/>
<path d="M277.965 289.152H256.324V294.365H277.965V289.152Z" fill="#0C0C0D"/>
<path d="M277.965 289.152H256.324V294.365H277.965V289.152Z" fill="#0C0C0D"/>
<path d="M372.927 306.65H48.0423V312.311H372.927V306.65Z" fill="#0C0C0D"/>
<path opacity="0.5" d="M372.927 306.65H48.0423V312.311H372.927V306.65Z" fill="#0C0C0D"/>
<defs>
<linearGradient id="paint0_linear" x1="8.05563" y1="167.132" x2="412.914" y2="167.132" gradientUnits="userSpaceOnUse">
<stop stop-color="#1B1F23"/>
<stop offset="1" stop-color="#FDDA42"/>
</linearGradient>
<linearGradient id="paint1_linear" x1="420.969" y1="160.972" x2="0.000401467" y2="160.972" gradientUnits="userSpaceOnUse">
<stop stop-color="#22272C"/>
<stop offset="1" stop-color="#EDCA30"/>
</linearGradient>
<linearGradient id="paint2_linear" x1="117.525" y1="107.459" x2="152.113" y2="256.231" gradientUnits="userSpaceOnUse">
<stop stop-color="#FDDA42"/>
<stop offset="1" stop-color="#E5A003"/>
</linearGradient>
<linearGradient id="paint3_linear" x1="117.525" y1="107.459" x2="152.113" y2="256.231" gradientUnits="userSpaceOnUse">
<stop stop-color="#FDDA42"/>
<stop offset="1" stop-color="#E5A003"/>
</linearGradient>
<linearGradient id="paint4_linear" x1="113.081" y1="238.746" x2="153.618" y2="144.008" gradientUnits="userSpaceOnUse">
<stop stop-color="#FDDA42"/>
<stop offset="1" stop-color="#E5A003"/>
</linearGradient>
<linearGradient id="paint5_linear" x1="48.1918" y1="154.346" x2="161.75" y2="309.199" gradientUnits="userSpaceOnUse">
<stop stop-color="#FDDA42"/>
<stop offset="1" stop-color="#E5A003"/>
</linearGradient>
<linearGradient id="paint6_linear" x1="105.301" y1="308.187" x2="105.301" y2="178.635" gradientUnits="userSpaceOnUse">
<stop stop-color="#FDDA42"/>
<stop offset="1" stop-color="#E5A003"/>
</linearGradient>
<linearGradient id="paint7_linear" x1="313.995" y1="107.46" x2="279.407" y2="256.231" gradientUnits="userSpaceOnUse">
<stop stop-color="#FDDA42"/>
<stop offset="1" stop-color="#E5A003"/>
</linearGradient>
<linearGradient id="paint8_linear" x1="313.995" y1="107.46" x2="279.407" y2="256.231" gradientUnits="userSpaceOnUse">
<stop stop-color="#FDDA42"/>
<stop offset="1" stop-color="#E5A003"/>
</linearGradient>
<linearGradient id="paint9_linear" x1="318.439" y1="238.745" x2="277.901" y2="144.007" gradientUnits="userSpaceOnUse">
<stop stop-color="#FDDA42"/>
<stop offset="1" stop-color="#E5A003"/>
</linearGradient>
<linearGradient id="paint10_linear" x1="383.327" y1="157.346" x2="269.769" y2="312.198" gradientUnits="userSpaceOnUse">
<stop stop-color="#FDDA42"/>
<stop offset="1" stop-color="#E5A003"/>
</linearGradient>
<linearGradient id="paint11_linear" x1="326.218" y1="311.188" x2="326.218" y2="181.636" gradientUnits="userSpaceOnUse">
<stop stop-color="#FDDA42"/>
<stop offset="1" stop-color="#E5A003"/>
</linearGradient>
<linearGradient id="paint12_linear" x1="251.746" y1="132.75" x2="236.921" y2="132.75" gradientUnits="userSpaceOnUse">
<stop stop-color="#FDDA42"/>
<stop offset="1" stop-color="#E5A003"/>
</linearGradient>
<linearGradient id="paint13_linear" x1="198.807" y1="304.188" x2="198.807" y2="253.054" gradientUnits="userSpaceOnUse">
<stop stop-color="#FDDA42"/>
<stop offset="1" stop-color="#E5A003"/>
</linearGradient>
<linearGradient id="paint14_linear" x1="254.082" y1="269.992" x2="266.25" y2="269.992" gradientUnits="userSpaceOnUse">
<stop stop-color="#FDDA42"/>
<stop offset="1" stop-color="#E5A003"/>
</linearGradient>
<linearGradient id="paint15_linear" x1="277.8" y1="280.453" x2="265.632" y2="280.453" gradientUnits="userSpaceOnUse">
<stop stop-color="#FDDA42"/>
<stop offset="1" stop-color="#E5A003"/>
</linearGradient>
<linearGradient id="paint16_linear" x1="254.082" y1="269.992" x2="266.25" y2="269.992" gradientUnits="userSpaceOnUse">
<stop stop-color="#FDDA42"/>
<stop offset="1" stop-color="#E5A003"/>
</linearGradient>
<linearGradient id="paint17_linear" x1="277.8" y1="280.453" x2="265.632" y2="280.453" gradientUnits="userSpaceOnUse">
<stop stop-color="#FDDA42"/>
<stop offset="1" stop-color="#E5A003"/>
</linearGradient>
<linearGradient id="paint18_linear" x1="266.919" y1="302.546" x2="266.919" y2="249.583" gradientUnits="userSpaceOnUse">
<stop stop-color="#FDDA42"/>
<stop offset="1" stop-color="#E5A003"/>
</linearGradient>
<linearGradient id="paint19_linear" x1="266.919" y1="302.546" x2="266.919" y2="249.583" gradientUnits="userSpaceOnUse">
<stop stop-color="#FDDA42"/>
<stop offset="1" stop-color="#E5A003"/>
</linearGradient>
</defs>
</svg>
