<svg width="1009" height="608" viewBox="0 0 1009 608" fill="none" xmlns="http://www.w3.org/2000/svg">
<g clip-path="url(#clip0)">
<path d="M1008.92 474.03C1008.94 478.098 1007.35 482.009 1004.48 484.9C1001.62 487.792 997.729 489.429 993.661 489.45H322.26C320.246 489.44 318.253 489.032 316.396 488.252C314.539 487.471 312.854 486.333 311.437 484.901C310.02 483.469 308.899 481.772 308.137 479.907C307.376 478.042 306.99 476.045 307 474.03V15.42C306.979 11.3516 308.575 7.44146 311.436 4.54965C314.298 1.65784 318.191 0.0212757 322.26 0H993.66C995.675 0.0104785 997.667 0.417634 999.524 1.19821C1001.38 1.97879 1003.07 3.11751 1004.48 4.54935C1005.9 5.98119 1007.02 7.67812 1007.78 9.54324C1008.54 11.4084 1008.93 13.4052 1008.92 15.4196V15.42V474.03Z" fill="#E6E6E6"/>
<path d="M1001 466.52C1001 470.474 999.429 474.267 996.633 477.063C993.837 479.859 990.045 481.43 986.09 481.43H330.29C326.336 481.43 322.543 479.859 319.747 477.063C316.951 474.267 315.38 470.474 315.38 466.52V23.14C315.38 19.1856 316.951 15.3932 319.747 12.597C322.543 9.80085 326.336 8.22998 330.29 8.22998H986.12C990.069 8.23793 993.854 9.8123 996.644 12.6076C999.433 15.4029 1001 19.1908 1001 23.14V466.52Z" fill="white"/>
<path d="M350.43 27.48H966.65C968.997 27.48 971.248 28.4124 972.908 30.0721C974.568 31.7318 975.5 33.9828 975.5 36.33V451.61C975.5 453.957 974.568 456.208 972.908 457.868C971.248 459.528 968.997 460.46 966.65 460.46H350.43C348.083 460.46 345.832 459.528 344.172 457.868C342.513 456.208 341.58 453.957 341.58 451.61V36.33C341.58 33.9828 342.513 31.7318 344.172 30.0721C345.832 28.4124 348.083 27.48 350.43 27.48V27.48Z" fill="#E6E6E6"/>
<path d="M358.23 37.4399H958.18C960.527 37.4399 962.778 38.3724 964.438 40.032C966.098 41.6917 967.03 43.9428 967.03 46.2899V439.41C967.03 441.757 966.098 444.008 964.438 445.668C962.778 447.328 960.527 448.26 958.18 448.26H358.23C355.883 448.26 353.632 447.328 351.972 445.668C350.313 444.008 349.38 441.757 349.38 439.41V46.2899C349.38 43.9428 350.313 41.6917 351.972 40.032C353.632 38.3724 355.883 37.4399 358.23 37.4399V37.4399Z" fill="white"/>
<path d="M781.836 310.533C779.475 310.531 777.14 310.034 774.983 309.072C774.481 308.85 774.002 308.578 773.554 308.261L729.952 277.569C727.741 276.012 725.937 273.947 724.691 271.547C723.445 269.147 722.794 266.483 722.793 263.778V221.921C722.794 219.217 723.445 216.553 724.691 214.153C725.936 211.753 727.741 209.687 729.952 208.131L773.554 177.439C774.002 177.122 774.481 176.85 774.983 176.627C777.551 175.486 780.364 175.003 783.166 175.225C785.968 175.447 788.67 176.365 791.027 177.897C793.384 179.428 795.321 181.524 796.662 183.994C798.003 186.465 798.705 189.231 798.705 192.042V293.658C798.705 298.132 796.928 302.423 793.764 305.587C790.601 308.75 786.31 310.527 781.836 310.527L781.836 310.533Z" fill="black"/>
<path d="M684.255 318.762H562.647C537.837 318.742 517.731 302.704 517.705 282.915V202.785C517.731 182.996 537.837 166.959 562.647 166.938H684.572C709.206 166.961 729.168 182.884 729.197 202.532V282.915C729.172 302.704 709.065 318.742 684.255 318.762Z" fill="black"/>
<path d="M900.879 422.981C920.854 422.981 937.047 406.788 937.047 386.814C937.047 366.839 920.854 350.646 900.879 350.646C880.905 350.646 864.712 366.839 864.712 386.814C864.712 406.788 880.905 422.981 900.879 422.981Z" fill="#E6E6E6"/>
<path d="M919.665 386.165L890.836 369.521C890.722 369.455 890.593 369.42 890.461 369.42C890.33 369.42 890.201 369.455 890.087 369.521C889.973 369.586 889.879 369.681 889.813 369.795C889.747 369.909 889.713 370.038 889.713 370.169V403.458C889.713 403.59 889.747 403.719 889.813 403.832C889.879 403.946 889.973 404.041 890.087 404.106C890.201 404.172 890.33 404.207 890.461 404.207C890.593 404.207 890.722 404.172 890.836 404.106L919.665 387.462C919.779 387.396 919.873 387.302 919.939 387.188C920.004 387.074 920.039 386.945 920.039 386.814C920.039 386.682 920.004 386.553 919.939 386.439C919.873 386.325 919.779 386.231 919.665 386.165L890.836 369.521C890.722 369.455 890.593 369.42 890.461 369.42C890.33 369.42 890.201 369.455 890.087 369.521C889.973 369.586 889.879 369.681 889.813 369.795C889.747 369.909 889.713 370.038 889.713 370.169V403.458C889.713 403.59 889.747 403.719 889.813 403.832C889.879 403.946 889.973 404.041 890.087 404.106C890.201 404.172 890.33 404.207 890.461 404.207C890.593 404.207 890.722 404.172 890.836 404.106L919.665 387.462C919.779 387.396 919.873 387.302 919.939 387.188C920.004 387.074 920.039 386.945 920.039 386.814C920.039 386.682 920.004 386.553 919.939 386.439C919.873 386.325 919.779 386.231 919.665 386.165V386.165Z" fill="white"/>
<path d="M853.92 529.03C853.941 533.098 852.346 537.009 849.484 539.9C846.622 542.792 842.729 544.429 838.661 544.45H167.26C165.246 544.44 163.253 544.032 161.396 543.252C159.539 542.471 157.854 541.333 156.437 539.901C155.02 538.469 153.899 536.772 153.137 534.907C152.376 533.042 151.99 531.045 152 529.03V70.42C151.979 66.3516 153.575 62.4415 156.436 59.5497C159.298 56.6578 163.191 55.0213 167.26 55H838.66C840.675 55.0105 842.667 55.4176 844.524 56.1982C846.382 56.9788 848.067 58.1175 849.484 59.5493C850.901 60.9812 852.022 62.6781 852.783 64.5432C853.544 66.4084 853.931 68.4052 853.92 70.4196V70.42V529.03Z" fill="#E6E6E6"/>
<path d="M846 521.52C846 525.474 844.429 529.267 841.633 532.063C838.837 534.859 835.045 536.43 831.09 536.43H175.29C171.336 536.43 167.543 534.859 164.747 532.063C161.951 529.267 160.38 525.474 160.38 521.52V78.14C160.38 74.1856 161.951 70.3932 164.747 67.597C167.543 64.8008 171.336 63.23 175.29 63.23H831.12C835.069 63.2379 838.854 64.8123 841.644 67.6076C844.434 70.4029 846 74.1908 846 78.14V521.52Z" fill="white"/>
<path d="M195.43 82.48H811.65C813.997 82.48 816.248 83.4124 817.908 85.0721C819.568 86.7318 820.5 88.9828 820.5 91.33V506.61C820.5 508.957 819.568 511.208 817.908 512.868C816.248 514.528 813.997 515.46 811.65 515.46H195.43C193.083 515.46 190.832 514.528 189.172 512.868C187.513 511.208 186.58 508.957 186.58 506.61V91.33C186.58 88.9828 187.513 86.7318 189.172 85.0721C190.832 83.4124 193.083 82.48 195.43 82.48Z" fill="#E6E6E6"/>
<path d="M203.23 92.4399H803.18C805.527 92.4399 807.778 93.3723 809.438 95.032C811.098 96.6917 812.03 98.9428 812.03 101.29V494.41C812.03 496.757 811.098 499.008 809.438 500.668C807.778 502.328 805.527 503.26 803.18 503.26H203.23C200.883 503.26 198.632 502.328 196.972 500.668C195.313 499.008 194.38 496.757 194.38 494.41V101.29C194.38 98.9428 195.313 96.6917 196.972 95.032C198.632 93.3723 200.883 92.4399 203.23 92.4399V92.4399Z" fill="white"/>
<path d="M626.836 365.533C624.475 365.531 622.14 365.034 619.983 364.072C619.481 363.85 619.002 363.578 618.554 363.261L574.952 332.569C572.741 331.012 570.937 328.947 569.691 326.547C568.445 324.147 567.794 321.483 567.793 318.778V276.921C567.794 274.217 568.445 271.553 569.691 269.153C570.936 266.753 572.741 264.687 574.952 263.131L618.554 232.439C619.002 232.122 619.481 231.85 619.983 231.627C622.551 230.486 625.364 230.003 628.166 230.225C630.968 230.447 633.67 231.365 636.027 232.897C638.384 234.428 640.321 236.524 641.662 238.994C643.003 241.465 643.705 244.231 643.705 247.042V348.658C643.705 353.132 641.928 357.423 638.764 360.587C635.601 363.75 631.31 365.527 626.836 365.527L626.836 365.533Z" fill="black"/>
<path d="M529.255 373.762H407.647C382.837 373.742 362.731 357.704 362.705 337.915V257.785C362.731 237.996 382.837 221.959 407.647 221.938H529.572C554.206 221.961 574.168 237.884 574.197 257.532V337.915C574.172 357.704 554.065 373.742 529.255 373.762Z" fill="black"/>
<path d="M745.879 477.981C765.854 477.981 782.047 461.788 782.047 441.814C782.047 421.839 765.854 405.646 745.879 405.646C725.905 405.646 709.712 421.839 709.712 441.814C709.712 461.788 725.905 477.981 745.879 477.981Z" fill="#E6E6E6"/>
<path d="M764.665 441.165L735.836 424.521C735.722 424.455 735.593 424.42 735.461 424.42C735.33 424.42 735.201 424.455 735.087 424.521C734.973 424.586 734.879 424.681 734.813 424.795C734.747 424.909 734.713 425.038 734.713 425.169V458.458C734.713 458.59 734.747 458.719 734.813 458.832C734.879 458.946 734.973 459.041 735.087 459.106C735.201 459.172 735.33 459.207 735.461 459.207C735.593 459.207 735.722 459.172 735.836 459.106L764.665 442.462C764.779 442.396 764.873 442.302 764.939 442.188C765.004 442.074 765.039 441.945 765.039 441.814C765.039 441.682 765.004 441.553 764.939 441.439C764.873 441.326 764.779 441.231 764.665 441.165L735.836 424.521C735.722 424.455 735.593 424.42 735.461 424.42C735.33 424.42 735.201 424.455 735.087 424.521C734.973 424.586 734.879 424.681 734.813 424.795C734.747 424.909 734.713 425.038 734.713 425.169V458.458C734.713 458.59 734.747 458.719 734.813 458.832C734.879 458.946 734.973 459.041 735.087 459.107C735.201 459.172 735.33 459.207 735.461 459.207C735.593 459.207 735.722 459.172 735.836 459.106L764.665 442.462C764.779 442.396 764.873 442.302 764.939 442.188C765.004 442.074 765.039 441.945 765.039 441.814C765.039 441.682 765.004 441.553 764.939 441.439C764.873 441.325 764.779 441.231 764.665 441.165Z" fill="white"/>
<path d="M701.92 592.03C701.941 596.098 700.346 600.009 697.484 602.9C694.622 605.792 690.729 607.429 686.661 607.45H15.2602C13.2458 607.44 11.2531 607.032 9.39599 606.252C7.53889 605.471 5.85372 604.333 4.4367 602.901C3.01967 601.469 1.89855 599.772 1.13733 597.907C0.376119 596.042 -0.0102731 594.045 0.000209995 592.03V133.42C-0.0210629 129.352 1.57468 125.441 4.43641 122.55C7.29813 119.658 11.1914 118.021 15.2598 118H686.66C688.675 118.01 690.667 118.418 692.524 119.198C694.382 119.979 696.067 121.118 697.484 122.549C698.901 123.981 700.022 125.678 700.783 127.543C701.544 129.408 701.931 131.405 701.92 133.42V133.42V592.03Z" fill="#E6E6E6"/>
<path d="M694 584.52C694 588.474 692.429 592.267 689.633 595.063C686.837 597.859 683.045 599.43 679.09 599.43H23.2903C19.3359 599.43 15.5435 597.859 12.7473 595.063C9.95112 592.267 8.38025 588.474 8.38025 584.52V141.14C8.38025 137.186 9.95112 133.393 12.7473 130.597C15.5435 127.801 19.3359 126.23 23.2903 126.23H679.12C683.069 126.238 686.854 127.812 689.644 130.608C692.434 133.403 694 137.191 694 141.14V584.52Z" fill="white"/>
<path d="M43.4302 145.48H659.65C661.997 145.48 664.248 146.412 665.908 148.072C667.568 149.732 668.5 151.983 668.5 154.33V569.61C668.5 571.957 667.568 574.208 665.908 575.868C664.248 577.528 661.997 578.46 659.65 578.46H43.4302C41.083 578.46 38.832 577.528 37.1723 575.868C35.5126 574.208 34.5802 571.957 34.5802 569.61V154.33C34.5802 151.983 35.5126 149.732 37.1723 148.072C38.832 146.412 41.083 145.48 43.4302 145.48V145.48Z" fill="#E6E6E6"/>
<path d="M51.2302 155.44H651.18C652.342 155.44 653.493 155.669 654.567 156.114C655.641 156.558 656.616 157.21 657.438 158.032C658.26 158.854 658.912 159.829 659.357 160.903C659.801 161.977 660.03 163.128 660.03 164.29V557.41C660.03 558.572 659.801 559.723 659.357 560.797C658.912 561.87 658.26 562.846 657.438 563.668C656.616 564.49 655.641 565.141 654.567 565.586C653.493 566.031 652.342 566.26 651.18 566.26H51.2302C48.8831 566.26 46.6321 565.328 44.9724 563.668C43.3127 562.008 42.3802 559.757 42.3802 557.41V164.29C42.3802 161.943 43.3127 159.692 44.9724 158.032C46.6321 156.372 48.8831 155.44 51.2302 155.44V155.44Z" fill="white"/>
<path d="M474.836 428.533C472.475 428.531 470.14 428.034 467.983 427.072C467.481 426.85 467.002 426.578 466.554 426.261L422.952 395.569C420.741 394.012 418.937 391.947 417.691 389.547C416.445 387.147 415.794 384.483 415.793 381.778V339.921C415.794 337.217 416.445 334.553 417.691 332.153C418.936 329.753 420.741 327.687 422.952 326.131L466.554 295.439C467.002 295.122 467.481 294.85 467.983 294.627C470.551 293.486 473.364 293.003 476.166 293.225C478.968 293.447 481.67 294.365 484.027 295.897C486.384 297.428 488.321 299.524 489.662 301.994C491.003 304.465 491.705 307.231 491.705 310.042V411.658C491.705 416.132 489.928 420.423 486.764 423.587C483.601 426.75 479.31 428.527 474.836 428.527L474.836 428.533Z" fill="#FED706"/>
<path d="M377.255 436.762H255.647C230.837 436.742 210.731 420.704 210.705 400.915V320.785C210.731 300.996 230.837 284.959 255.647 284.938H377.572C402.206 284.961 422.168 300.884 422.197 320.532V400.915C422.172 420.704 402.065 436.742 377.255 436.762Z" fill="#FED706"/>
<path d="M593.879 540.981C613.854 540.981 630.047 524.788 630.047 504.814C630.047 484.839 613.854 468.646 593.879 468.646C573.905 468.646 557.712 484.839 557.712 504.814C557.712 524.788 573.905 540.981 593.879 540.981Z" fill="black"/>
<path d="M612.665 504.165L583.836 487.521C583.722 487.455 583.593 487.42 583.461 487.42C583.33 487.42 583.201 487.455 583.087 487.521C582.973 487.586 582.879 487.681 582.813 487.795C582.747 487.909 582.713 488.038 582.713 488.169V521.458C582.713 521.59 582.747 521.719 582.813 521.832C582.879 521.946 582.973 522.041 583.087 522.106C583.201 522.172 583.33 522.207 583.461 522.207C583.593 522.207 583.722 522.172 583.836 522.106L612.665 505.462C612.779 505.396 612.873 505.302 612.939 505.188C613.004 505.074 613.039 504.945 613.039 504.814C613.039 504.682 613.004 504.553 612.939 504.439C612.873 504.326 612.779 504.231 612.665 504.165L583.836 487.521C583.722 487.455 583.593 487.42 583.461 487.42C583.33 487.42 583.201 487.455 583.087 487.521C582.973 487.586 582.879 487.681 582.813 487.795C582.747 487.909 582.713 488.038 582.713 488.169V521.458C582.713 521.59 582.747 521.719 582.813 521.832C582.879 521.946 582.973 522.041 583.087 522.107C583.201 522.172 583.33 522.207 583.461 522.207C583.593 522.207 583.722 522.172 583.836 522.106L612.665 505.462C612.779 505.396 612.873 505.302 612.939 505.188C613.004 505.074 613.039 504.945 613.039 504.814C613.039 504.682 613.004 504.553 612.939 504.439C612.873 504.325 612.779 504.231 612.665 504.165V504.165Z" fill="white"/>
</g>
<defs>
<clipPath id="clip0">
<rect width="1008.92" height="607.45" fill="white"/>
</clipPath>
</defs>
</svg>
