<svg width="336" height="236" viewBox="0 0 336 236" fill="none" xmlns="http://www.w3.org/2000/svg">
<path opacity="0.3" d="M232.7 117.6C232.7 129.511 230.354 141.305 225.796 152.309C221.238 163.314 214.557 173.312 206.135 181.735C197.712 190.157 187.714 196.838 176.709 201.396C165.705 205.954 153.911 208.3 142 208.3C117.945 208.3 94.875 198.744 77.8654 181.735C60.8559 164.725 51.3 141.655 51.3 117.6C51.3 93.5449 60.8559 70.475 77.8654 53.4654C94.875 36.4559 117.945 26.9 142 26.9C166.055 26.9 189.125 36.4559 206.135 53.4654C223.144 70.475 232.7 93.5449 232.7 117.6Z" fill="#FDFAFC"/>
<path d="M67.6 173.5L55 178.5L68.9 206.2C68.9 206.2 71.8 211.1 79.4 208.5C87 205.9 86.3 200.3 86.3 200.3L80.5 169.8L67.6 173.5Z" fill="black"/>
<path d="M221.1 185.4C221.1 189.537 219.456 193.505 216.531 196.431C213.605 199.356 209.637 201 205.5 201C201.363 201 197.395 199.356 194.469 196.431C191.544 193.505 189.9 189.537 189.9 185.4C189.9 181.263 191.544 177.295 194.469 174.369C197.395 171.444 201.363 169.8 205.5 169.8C209.637 169.8 213.605 171.444 216.531 174.369C219.456 177.295 221.1 181.263 221.1 185.4V185.4Z" fill="black"/>
<g opacity="0.1">
<path opacity="0.1" d="M155.101 150.31C154.591 148.805 152.958 148.015 151.453 148.499L148.596 140.03L147.423 140.438C147.423 140.438 145.433 148.576 132.754 152.249C132.729 152.249 132.678 152.275 132.652 152.275C132.652 152.275 124.132 153.805 126.224 159.979C127.321 163.218 129.948 163.678 132.219 163.371L135.51 169.927C135.51 169.927 136.249 171.177 138.188 170.514C140.127 169.851 139.948 168.422 139.948 168.422L138.622 161.305C149.31 158.116 154.948 162.657 154.948 162.657L155.127 163.218L156.3 162.81L153.29 153.933C154.82 153.448 155.611 151.815 155.101 150.31Z" fill="#070A0C"/>
</g>
<path opacity="0.1" d="M193.2 80C179.4 89.8 165.7 99.6 151.9 109.4C149.8 110.9 151.8 114.4 153.9 112.9C167.7 103.1 181.4 93.3 195.2 83.5C197.4 82 195.4 78.5 193.2 80Z" fill="#070A0C"/>
<path opacity="0.1" d="M224.4 106.5C203.8 112.6 183.3 118.7 162.7 124.7C160.2 125.4 161.3 129.3 163.8 128.6C184.4 122.5 204.9 116.4 225.5 110.4C228 109.7 226.9 105.8 224.4 106.5Z" fill="#070A0C"/>
<path opacity="0.1" d="M210.8 148.5C195.6 147.1 180.3 145.6 165.1 144.2C162.5 144 162.5 148 165.1 148.2C180.3 149.6 195.6 151.1 210.8 152.5C213.4 152.8 213.4 148.7 210.8 148.5Z" fill="#070A0C"/>
<path d="M199.7 173.7L188.5 172.9L191.8 183.5" fill="black"/>
<path d="M166 61.4C166 65.5374 164.356 69.5053 161.431 72.4309C158.505 75.3564 154.537 77 150.4 77C146.263 77 142.295 75.3564 139.369 72.4309C136.444 69.5053 134.8 65.5374 134.8 61.4C134.8 59.3514 135.203 57.3228 135.987 55.4301C136.771 53.5375 137.921 51.8177 139.369 50.3691C140.818 48.9205 142.537 47.7715 144.43 46.9875C146.323 46.2035 148.351 45.8 150.4 45.8C152.449 45.8 154.477 46.2035 156.37 46.9875C158.263 47.7715 159.982 48.9205 161.431 50.3691C162.879 51.8177 164.029 53.5375 164.813 55.4301C165.596 57.3228 166 59.3514 166 61.4V61.4Z" fill="black"/>
<path d="M139.4 68.4L139.9 79.6L150.1 75.1" fill="black"/>
<path d="M317.1 109.7C317.1 113.519 315.583 117.182 312.882 119.882C310.182 122.583 306.519 124.1 302.7 124.1C298.881 124.1 295.218 122.583 292.518 119.882C289.817 117.182 288.3 113.519 288.3 109.7C288.3 105.881 289.817 102.218 292.518 99.5177C295.218 96.8171 298.881 95.3 302.7 95.3C306.519 95.3 310.182 96.8171 312.882 99.5177C315.583 102.218 317.1 105.881 317.1 109.7V109.7Z" fill="#FED706"/>
<path d="M263.3 36.5C263.3 37.6031 263.083 38.6954 262.661 39.7145C262.238 40.7337 261.62 41.6597 260.84 42.4397C260.06 43.2197 259.134 43.8385 258.115 44.2606C257.095 44.6827 256.003 44.9 254.9 44.9C253.797 44.9 252.705 44.6827 251.685 44.2606C250.666 43.8385 249.74 43.2197 248.96 42.4397C248.18 41.6597 247.562 40.7337 247.139 39.7145C246.717 38.6954 246.5 37.6031 246.5 36.5C246.5 35.3969 246.717 34.3046 247.139 33.2855C247.562 32.2663 248.18 31.3403 248.96 30.5603C249.74 29.7803 250.666 29.1616 251.685 28.7394C252.705 28.3173 253.797 28.1 254.9 28.1C256.003 28.1 257.095 28.3173 258.115 28.7394C259.134 29.1616 260.06 29.7803 260.84 30.5603C261.62 31.3403 262.238 32.2663 262.661 33.2855C263.083 34.3046 263.3 35.3969 263.3 36.5Z" fill="#070A0C"/>
<path d="M263.9 180.5C263.9 182.728 263.015 184.864 261.44 186.44C259.864 188.015 257.728 188.9 255.5 188.9C253.272 188.9 251.136 188.015 249.56 186.44C247.985 184.864 247.1 182.728 247.1 180.5C247.1 178.272 247.985 176.136 249.56 174.56C251.136 172.985 253.272 172.1 255.5 172.1C257.728 172.1 259.864 172.985 261.44 174.56C263.015 176.136 263.9 178.272 263.9 180.5Z" fill="#FED706"/>
<path d="M165.9 195.6C165.9 196.608 165.5 197.574 164.787 198.287C164.074 199 163.108 199.4 162.1 199.4C161.092 199.4 160.126 199 159.413 198.287C158.7 197.574 158.3 196.608 158.3 195.6C158.3 195.101 158.398 194.607 158.589 194.146C158.78 193.685 159.06 193.266 159.413 192.913C159.766 192.56 160.185 192.28 160.646 192.089C161.107 191.898 161.601 191.8 162.1 191.8C162.599 191.8 163.093 191.898 163.554 192.089C164.015 192.28 164.434 192.56 164.787 192.913C165.14 193.266 165.42 193.685 165.611 194.146C165.802 194.607 165.9 195.101 165.9 195.6Z" fill="#070A0C"/>
<path d="M209.3 94.7C209.3 95.199 209.202 95.6932 209.011 96.1542C208.82 96.6152 208.54 97.0341 208.187 97.387C207.834 97.7399 207.415 98.0198 206.954 98.2107C206.493 98.4017 205.999 98.5 205.5 98.5C204.492 98.5 203.526 98.0996 202.813 97.387C202.1 96.6744 201.7 95.7078 201.7 94.7C201.7 93.6922 202.1 92.7256 202.813 92.013C203.526 91.3004 204.492 90.9 205.5 90.9C205.999 90.9 206.493 90.9983 206.954 91.1893C207.415 91.3802 207.834 91.6601 208.187 92.013C208.54 92.3659 208.82 92.7848 209.011 93.2458C209.202 93.7068 209.3 94.201 209.3 94.7V94.7Z" fill="#A9A9A9"/>
<path d="M145.8 25.1C145.8 26.1078 145.4 27.0744 144.687 27.787C143.974 28.4996 143.008 28.9 142 28.9C140.992 28.9 140.026 28.4996 139.313 27.787C138.6 27.0744 138.2 26.1078 138.2 25.1C138.2 24.601 138.298 24.1068 138.489 23.6458C138.68 23.1848 138.96 22.7659 139.313 22.413C139.666 22.0601 140.085 21.7802 140.546 21.5893C141.007 21.3983 141.501 21.3 142 21.3C142.499 21.3 142.993 21.3983 143.454 21.5893C143.915 21.7802 144.334 22.0601 144.687 22.413C145.04 22.7659 145.32 23.1848 145.511 23.6458C145.702 24.1068 145.8 24.601 145.8 25.1V25.1Z" fill="#070A0C"/>
<path d="M271.7 25.1C271.7 26.1078 271.3 27.0744 270.587 27.787C269.874 28.4996 268.908 28.9 267.9 28.9C266.892 28.9 265.926 28.4996 265.213 27.787C264.5 27.0744 264.1 26.1078 264.1 25.1C264.1 24.601 264.198 24.1068 264.389 23.6458C264.58 23.1848 264.86 22.7659 265.213 22.413C265.566 22.0601 265.985 21.7802 266.446 21.5893C266.907 21.3983 267.401 21.3 267.9 21.3C268.399 21.3 268.893 21.3983 269.354 21.5893C269.815 21.7802 270.234 22.0601 270.587 22.413C270.94 22.7659 271.22 23.1848 271.411 23.6458C271.602 24.1068 271.7 24.601 271.7 25.1V25.1Z" fill="#070A0C"/>
<path d="M261.3 132.9C261.3 133.908 260.9 134.874 260.187 135.587C259.474 136.3 258.508 136.7 257.5 136.7C256.492 136.7 255.526 136.3 254.813 135.587C254.1 134.874 253.7 133.908 253.7 132.9C253.7 131.892 254.1 130.926 254.813 130.213C255.526 129.5 256.492 129.1 257.5 129.1C258.508 129.1 259.474 129.5 260.187 130.213C260.9 130.926 261.3 131.892 261.3 132.9Z" fill="#070A0C"/>
<path d="M243.5 191.2C243.5 192.208 243.1 193.174 242.387 193.887C241.674 194.6 240.708 195 239.7 195C238.692 195 237.726 194.6 237.013 193.887C236.3 193.174 235.9 192.208 235.9 191.2C235.9 190.192 236.3 189.226 237.013 188.513C237.726 187.8 238.692 187.4 239.7 187.4C240.708 187.4 241.674 187.8 242.387 188.513C243.1 189.226 243.5 190.192 243.5 191.2Z" fill="#070A0C"/>
<path d="M290.6 110L285.7 119.1L295.8 120.4" fill="#FED706"/>
<path d="M150 109.2L191.3 79.8Z" fill="white"/>
<path d="M151.1 110.9C164.9 101.1 178.6 91.3 192.4 81.5C194.5 80 192.5 76.5 190.4 78C176.6 87.8 162.9 97.6 149.1 107.4C146.9 109 148.9 112.5 151.1 110.9Z" fill="black"/>
<path d="M159.3 124.4L221 106.1Z" fill="white"/>
<path d="M159.8 126.3C180.4 120.2 200.9 114.1 221.5 108.1C224 107.4 222.9 103.5 220.4 104.2C199.8 110.3 179.3 116.4 158.7 122.4C156.3 123.1 157.3 127.1 159.8 126.3Z" fill="black"/>
<path d="M162.1 142.4L207.9 146.7Z" fill="white"/>
<path d="M162.1 144.4C177.3 145.9 192.6 147.3 207.8 148.7C210.4 148.9 210.4 144.9 207.8 144.7C192.6 143.2 177.3 141.8 162.1 140.4C159.5 140.1 159.6 144.2 162.1 144.4Z" fill="black"/>
<path d="M243.5 146.5L238.5 141.9C239.1 140.8 239.4 139.5 239.4 138.1C239.4 133.4 235.6 129.7 231 129.7C226.3 129.7 222.6 133.5 222.6 138.1C222.6 142.8 226.4 146.5 231 146.5C232.4 146.5 233.7 146.2 234.8 145.6L239.4 150.6C239.8 151.1 240.6 151.1 241.1 150.6L243.6 148.1C244 147.7 244 147 243.5 146.5ZM230.9 143.2C228.1 143.2 225.7 140.9 225.7 138C225.7 135.2 228 132.9 230.9 132.9C233.7 132.9 236 135.2 236 138C236.1 140.9 233.8 143.2 230.9 143.2Z" fill="#999697"/>
<path d="M150.4 52.5C145.5 52.5 141.5 56.5 141.5 61.4C141.5 66.3 145.5 70.3 150.4 70.3C155.3 70.3 159.3 66.3 159.3 61.4C159.3 56.5 155.3 52.5 150.4 52.5ZM150.4 67.2C147.2 67.2 144.5 64.6 144.5 61.3C144.5 58.1 147.1 55.4 150.4 55.4C153.6 55.4 156.3 58 156.3 61.3C156.2 64.6 153.6 67.2 150.4 67.2Z" fill="white"/>
<path d="M151.7 60.5V57.4C151.7 56.8 151.2 56.4 150.7 56.4H150.2C149.6 56.4 149.2 56.9 149.2 57.4V61.1C149.2 61.5 149.4 61.8 149.7 62C149.7 62 149.7 62.1 149.8 62.1L152.5 64.7C152.9 65.1 153.6 65.1 154 64.7L154.3 64.4C154.7 64 154.7 63.3 154.3 62.9L151.7 60.5Z" fill="white"/>
<path d="M279.3 146.7C279.4 147.9 280.3 148.9 281.3 148.9H282.3C283.3 148.9 284.2 147.9 284.3 146.7L284.6 143.6C284.7 142.4 284.1 141.1 283.3 140.7C282.5 140.3 281.1 140.3 280.3 140.7C279.5 141.1 278.9 142.4 279 143.6L279.3 146.7ZM292.9 151.8L291.1 149.6C290.6 149 289.6 148.4 288.8 148.4H286.6C285.9 148.4 284.8 148.9 284.3 149.6L284 149.9C285.1 150.2 286.2 150.9 286.9 151.7L287.9 152.9H292.4C293.2 152.9 293.4 152.4 292.9 151.8ZM286.3 145.7C286.4 146.6 287 147.3 287.8 147.3H288.5C289.2 147.3 289.9 146.6 290 145.7L290.2 143.4C290.3 142.5 289.9 141.6 289.3 141.3C288.7 141 287.7 141 287.1 141.3C286.5 141.6 286.1 142.6 286.1 143.4L286.3 145.7ZM273.4 145.7C273.5 146.6 274.1 147.3 274.9 147.3H275.6C276.3 147.3 277 146.6 277.1 145.7L277.3 143.4C277.4 142.5 277 141.6 276.4 141.3C275.8 141 274.8 141 274.2 141.3C273.6 141.6 273.2 142.6 273.2 143.4L273.4 145.7ZM275.7 151.7C276.4 150.9 277.5 150.2 278.6 149.9L278.3 149.6C277.8 149 276.8 148.4 276 148.4H273.8C273.1 148.4 272 148.9 271.5 149.6L269.7 151.8C269.2 152.4 269.4 153 270.1 153H274.6L275.7 151.7ZM286 152C285.3 151.1 283.9 150.4 282.9 150.4H279.9C278.9 150.4 277.5 151.1 276.8 152L274.4 155.1C273.7 156 274 156.7 275 156.7H288C289 156.7 289.3 156 288.6 155.1L286 152Z" fill="black"/>
<path d="M301.3 114.8C301.3 115.118 301.174 115.423 300.949 115.649C300.724 115.874 300.418 116 300.1 116C299.782 116 299.477 115.874 299.251 115.649C299.026 115.423 298.9 115.118 298.9 114.8C298.9 114.482 299.026 114.177 299.251 113.951C299.477 113.726 299.782 113.6 300.1 113.6C300.418 113.6 300.724 113.726 300.949 113.951C301.174 114.177 301.3 114.482 301.3 114.8V114.8Z" fill="white"/>
<path d="M307.7 114.8C307.7 115.118 307.574 115.423 307.349 115.649C307.123 115.874 306.818 116 306.5 116C306.182 116 305.877 115.874 305.651 115.649C305.426 115.423 305.3 115.118 305.3 114.8C305.3 114.482 305.426 114.177 305.651 113.951C305.877 113.726 306.182 113.6 306.5 113.6C306.818 113.6 307.123 113.726 307.349 113.951C307.574 114.177 307.7 114.482 307.7 114.8V114.8Z" fill="white"/>
<path d="M310.4 106.3H297L296.1 104.9H294.8H294H293.1C292.7 104.9 292.4 105.2 292.4 105.6V105.8C292.4 106.2 292.7 106.5 293.1 106.5H294H294.2H294.6C294.7 106.5 294.9 106.5 295.1 106.5C295.1 106.6 295.1 106.7 295.1 106.8L298.5 112.5C298.6 112.7 298.9 112.9 299.2 112.9H307.3C307.6 112.9 307.8 112.7 308 112.5L310.7 106.8C310.8 106.4 310.7 106.3 310.4 106.3ZM305.9 107.8C305.9 107.6 306.1 107.3 306.4 107.3H306.6C306.9 107.3 307.1 107.5 307.1 107.8V107.9C307.1 108.2 306.9 108.4 306.6 108.4H306.4C306.1 108.4 305.9 108.2 305.9 107.9V107.8ZM304.2 107.8C304.2 107.6 304.4 107.3 304.7 107.3H304.9C305.2 107.3 305.4 107.5 305.4 107.8V107.9C305.4 108.2 305.2 108.4 304.9 108.4H304.7C304.4 108.4 304.2 108.2 304.2 107.9V107.8ZM302.6 107.8C302.6 107.6 302.8 107.3 303.1 107.3H303.3C303.6 107.3 303.8 107.5 303.8 107.8V107.9C303.8 108.2 303.6 108.4 303.3 108.4H303C302.7 108.4 302.5 108.2 302.5 107.9V107.8H302.6ZM300.9 107.8C300.9 107.6 301.1 107.3 301.4 107.3H301.6C301.8 107.3 302.1 107.5 302.1 107.8V107.9C302.1 108.2 301.9 108.4 301.6 108.4H301.4C301.1 108.4 300.9 108.2 300.9 107.9V107.8ZM299.2 107.8C299.2 107.6 299.4 107.3 299.7 107.3H299.9C300.1 107.3 300.4 107.5 300.4 107.8V107.9C300.4 108.2 300.2 108.4 299.9 108.4H299.7C299.5 108.4 299.2 108.2 299.2 107.9V107.8ZM298 108.4C297.7 108.4 297.5 108.2 297.5 107.9V107.8C297.5 107.6 297.7 107.3 298 107.3H298.2C298.5 107.3 298.7 107.5 298.7 107.8V107.9C298.7 108.2 298.5 108.4 298.2 108.4H298ZM299.1 110H298.9C298.6 110 298.4 109.8 298.4 109.5V109.4C298.4 109.1 298.6 108.9 298.9 108.9H299.1C299.4 108.9 299.6 109.1 299.6 109.4V109.5C299.5 109.8 299.3 110 299.1 110ZM300.3 111.2C300.3 111.5 300.1 111.7 299.8 111.7H299.6C299.4 111.7 299.1 111.5 299.1 111.2V111.1C299.1 110.8 299.3 110.6 299.6 110.6H299.8C300 110.6 300.3 110.8 300.3 111.1V111.2ZM300.5 110C300.2 110 300 109.8 300 109.5V109.4C300 109.1 300.2 108.9 300.5 108.9H300.7C301 108.9 301.2 109.1 301.2 109.4V109.5C301.2 109.8 301 110 300.7 110H300.5ZM302 111.2C302 111.5 301.8 111.7 301.5 111.7H301.3C301 111.7 300.8 111.5 300.8 111.2V111.1C300.8 110.8 301 110.6 301.3 110.6H301.5C301.7 110.6 302 110.8 302 111.1V111.2ZM302.2 110C301.9 110 301.7 109.8 301.7 109.5V109.4C301.7 109.1 301.9 108.9 302.2 108.9H302.4C302.7 108.9 302.9 109.1 302.9 109.4V109.5C302.9 109.8 302.7 110 302.4 110H302.2ZM303.7 111.2C303.7 111.5 303.5 111.7 303.2 111.7H303C302.7 111.7 302.5 111.5 302.5 111.2V111.1C302.5 110.8 302.7 110.6 303 110.6H303.2C303.5 110.6 303.7 110.8 303.7 111.1V111.2ZM303.9 110C303.6 110 303.4 109.8 303.4 109.5V109.4C303.4 109.1 303.6 108.9 303.9 108.9H304.1C304.4 108.9 304.6 109.1 304.6 109.4V109.5C304.6 109.8 304.4 110 304.1 110H303.9ZM305.3 111.2C305.3 111.5 305.1 111.7 304.8 111.7H304.6C304.3 111.7 304.1 111.5 304.1 111.2V111.1C304.1 110.8 304.3 110.6 304.6 110.6H304.8C305.1 110.6 305.3 110.8 305.3 111.1V111.2ZM305.5 110C305.2 110 305 109.8 305 109.5V109.4C305 109.1 305.2 108.9 305.5 108.9H305.7C306 108.9 306.2 109.1 306.2 109.4V109.5C306.2 109.8 306 110 305.7 110H305.5ZM307 111.2C307 111.5 306.8 111.7 306.5 111.7H306.3C306 111.7 305.8 111.5 305.8 111.2V111.1C305.8 110.8 306 110.6 306.3 110.6H306.5C306.8 110.6 307 110.8 307 111.1V111.2ZM307.8 109.5C307.8 109.8 307.6 110 307.3 110H307.1C306.8 110 306.6 109.8 306.6 109.5V109.4C306.6 109.1 306.8 108.9 307.1 108.9H307.3C307.6 108.9 307.8 109.1 307.8 109.4V109.5ZM308.6 107.9C308.6 108.2 308.4 108.4 308.1 108.4H308C307.7 108.4 307.5 108.2 307.5 107.9V107.8C307.5 107.6 307.7 107.3 308 107.3H308.2C308.4 107.3 308.7 107.5 308.7 107.8V107.9H308.6Z" fill="white"/>
<path d="M238.6 46.8C238.6 46.4 238.3 46 237.8 46H227.6C227.2 46 226.8 46.3 226.8 46.8V49V50.1V59.5C226.4 59.4 226 59.3 225.5 59.3C223.8 59.3 222.4 60.2 222.4 61.4C222.4 62.6 223.8 63.5 225.5 63.5C227.1 63.5 228.4 62.7 228.5 61.6V50.9H236.7V58.1C236.3 58 235.9 57.9 235.4 57.9C233.7 57.9 232.3 58.8 232.3 60C232.3 61.1 233.7 62.1 235.4 62.1C237.1 62.1 238.5 61.2 238.5 60V50.2V46.8H238.6Z" fill="#999697"/>
<path d="M252.2 40.3C252.2 41.1 252.7 41.3 253.4 41L259.5 37.3C260.1 36.9 260.1 36.3 259.5 35.9L253.4 32.2C252.8 31.8 252.2 32.1 252.2 32.9V40.3V40.3Z" fill="white"/>
<path d="M260.1 182.8L257.8 180.5L260.1 178.2C260.3 178 260.3 177.6 260.1 177.3L258.8 176C258.6 175.8 258.2 175.8 257.9 176L255.6 178.3L253.3 176C253.1 175.8 252.7 175.8 252.4 176L251.1 177.3C250.9 177.5 250.9 177.9 251.1 178.2L253.4 180.5L251.1 182.8C250.9 183 250.9 183.4 251.1 183.7L252.4 185C252.6 185.2 253 185.2 253.3 185L255.6 182.7L257.9 185C258.1 185.2 258.5 185.2 258.8 185L260.1 183.7C260.3 183.4 260.3 183 260.1 182.8Z" fill="white"/>
<path d="M181.9 22.4L180.2 21C180 20.9 179.7 20.9 179.6 21.1L174.8 27L172.9 25.3C172.7 25.1 172.5 25.2 172.3 25.3L170.8 27C170.6 27.2 170.7 27.4 170.8 27.6L174.8 31.2C175 31.4 175.2 31.3 175.4 31.2L176.8 29.4L182 23C182.1 22.9 182.1 22.6 181.9 22.4Z" fill="white"/>
<path d="M290.5 31.6H295.4V45.2H290.5V31.6Z" fill="#070A0C"/>
<path d="M295.4 29.2H300.3V45.3H295.4V29.2Z" fill="#999697"/>
<path d="M275.7 193.7H282.9V207H275.7V193.7Z" fill="#999697"/>
<path d="M282.9 175.4H290.1V207H282.9V175.4Z" fill="#FED706"/>
<path d="M290 187H297.2V207H290V187Z" fill="#070A0C"/>
<path fill-rule="evenodd" clip-rule="evenodd" d="M258.4 57.2L286.7 71.7C288.1 72.4 288.7 74.2 288 75.7L267 116.6C266.3 118 264.5 118.6 263 117.9L234.7 103.4C233.2 102.7 232.7 100.9 233.4 99.4L254.4 58.5C255.2 57 257 56.4 258.4 57.2Z" fill="black"/>
<path fill-rule="evenodd" clip-rule="evenodd" d="M250.8 107.1C251.5 107.4 251.7 108.2 251.4 108.9C251.1 109.6 250.3 109.8 249.6 109.5C248.9 109.2 248.7 108.4 249 107.7C249.3 107 250.1 106.7 250.8 107.1Z" fill="#E8E9E8"/>
<path fill-rule="evenodd" clip-rule="evenodd" d="M255 61.4L285.3 76.9L266.5 113.6L236.2 98.1L255 61.4Z" fill="#F0F0F1"/>
<path fill-rule="evenodd" clip-rule="evenodd" d="M236.2 98.1L255 61.4L285.3 76.9" fill="white"/>
<g opacity="0.2">
<g opacity="0.2">
<g opacity="0.2">
<path opacity="0.2" d="M244.384 89.5721L263.786 99.5129L262.6 101.827L243.198 91.8861L244.384 89.5721Z" fill="#070A0C"/>
</g>
</g>
</g>
<g opacity="0.2">
<g opacity="0.2">
<path opacity="0.2" d="M242.646 92.8369L266.587 105.103L265.903 106.438L241.962 94.1719L242.646 92.8369Z" fill="#070A0C"/>
</g>
</g>
<g opacity="0.2">
<g opacity="0.2">
<path opacity="0.2" d="M241.384 95.2252L263.364 106.491L262.68 107.826L240.7 96.56L241.384 95.2252Z" fill="#070A0C"/>
</g>
</g>
<g opacity="0.2">
<g opacity="0.2">
<path opacity="0.2" d="M254.951 68.8018L276.932 80.0674L275.746 82.3812L253.766 71.1155L254.951 68.8018Z" fill="#070A0C"/>
</g>
</g>
<g opacity="0.2">
<g opacity="0.2">
<path opacity="0.2" d="M253.218 72.1429L277.156 84.412L276.472 85.7469L252.534 73.4778L253.218 72.1429Z" fill="#070A0C"/>
</g>
</g>
<g opacity="0.2">
<g opacity="0.2">
<path opacity="0.2" d="M252.057 74.5031L271.459 84.4439L270.775 85.7789L251.373 75.8381L252.057 74.5031Z" fill="#070A0C"/>
</g>
</g>
<g opacity="0.2">
<g opacity="0.2">
<path opacity="0.2" d="M256.801 65.391L280.742 77.6601L280.058 78.9951L256.117 66.726L256.801 65.391Z" fill="#070A0C"/>
</g>
</g>
<path opacity="0.2" d="M249.877 78.1766L260.378 83.5585L255.497 93.0805L244.997 87.6985L249.877 78.1766Z" fill="#070A0C"/>
<path opacity="0.2" d="M262.793 84.7666L273.294 90.1486L268.414 99.6705L257.913 94.2885L262.793 84.7666Z" fill="#070A0C"/>
<path opacity="0.1" d="M33.7 49.4H39.3C40.6 49.4 41.8 49.5 42.9 49.8C44 50.1 44.9 50.6 45.7 51.2C46.5 51.8 47.1 52.6 47.6 53.6C48 54.6 48.3 55.8 48.3 57.1C48.3 58.2 48.1 59.2 47.7 60.1C47.3 61 46.8 61.8 46.1 62.4C45.4 63 44.6 63.5 43.7 63.9C42.8 64.2 41.7 64.4 40.6 64.4H33.6V49.4H33.7ZM39.2 60H39.5C40.5 60 41.2 59.8 41.8 59.3C42.4 58.8 42.7 58.1 42.7 57.2C42.7 56.2 42.4 55.4 41.9 54.9C41.3 54.4 40.5 54.2 39.5 54.2H39.2V60Z" fill="#070A0C"/>
<path opacity="0.1" d="M50.3 49.4H55.8V64.6H50.3V49.4Z" fill="#070A0C"/>
<path opacity="0.1" d="M74.4 55.6V55.7C74.4 57.3 74.3 58.5 74.1 59.4C73.9 60.3 73.4 61.2 72.6 62C71.8 62.9 70.8 63.5 69.7 64C68.6 64.5 67.4 64.7 66.2 64.7C65 64.7 63.9 64.5 62.9 64.2C61.9 63.9 61 63.3 60.2 62.7C59.4 62 58.8 61.2 58.4 60.3C58 59.3 57.8 58.3 57.8 57.1C57.8 55.9 58 54.8 58.4 53.8C58.8 52.8 59.4 52 60.2 51.3C61 50.6 61.9 50.1 62.9 49.7C63.9 49.3 65 49.2 66.2 49.2C66.9 49.2 67.6 49.3 68.3 49.5C69.1 49.7 69.8 49.9 70.5 50.2C71.2 50.5 71.8 50.9 72.4 51.4C73 51.9 73.4 52.5 73.7 53.1L68.6 55C68.4 54.6 68.1 54.3 67.7 54.1C67.3 53.9 66.9 53.8 66.5 53.8C65.6 53.8 64.8 54.1 64.3 54.8C63.8 55.5 63.5 56.3 63.5 57.3C63.5 58.2 63.8 58.9 64.3 59.6C64.8 60.2 65.5 60.6 66.4 60.6C66.9 60.6 67.3 60.5 67.8 60.3C68.2 60.1 68.5 59.7 68.6 59.3H66.1V55.7H74.4V55.6Z" fill="#070A0C"/>
<path opacity="0.1" d="M76.3 49.4H81.8V64.6H76.3V49.4Z" fill="#070A0C"/>
<path opacity="0.1" d="M83.3 49.4H94.9V54.3L91.9 54.2V64.6H86.4V54.1L83.4 54.2V49.4H83.3Z" fill="#070A0C"/>
<path opacity="0.1" d="M99.2 64.5H93.4L98.7 49.3H104.8L110.2 64.5H104.4L103.9 62.6H99.7L99.2 64.5ZM102.8 59L102.2 56.3C102.1 55.9 102 55.3 101.9 54.4V54.3H101.7L100.7 58.9H102.8V59Z" fill="#070A0C"/>
<path opacity="0.1" d="M111.3 49.4H116.8V59.7H121.4V64.6H111.3V49.4Z" fill="#070A0C"/>
<path d="M29.1 46.2H34.7C36 46.2 37.2 46.3 38.3 46.6C39.4 46.9 40.3 47.4 41.1 48C41.9 48.6 42.5 49.4 43 50.4C43.4 51.4 43.7 52.6 43.7 53.9C43.7 55 43.5 56 43.1 56.9C42.7 57.8 42.2 58.6 41.5 59.2C40.8 59.8 40 60.3 39.1 60.7C38.2 61 37.1 61.2 36 61.2H29V46.2H29.1ZM34.6 56.8H34.9C35.9 56.8 36.6 56.6 37.2 56.1C37.8 55.6 38.1 54.9 38.1 54C38.1 53 37.8 52.2 37.3 51.7C36.7 51.2 35.9 51 34.9 51H34.6V56.8Z" fill="white"/>
<path d="M45.7 46.2H51.2V61.4H45.7V46.2Z" fill="white"/>
<path d="M69.8 52.5V52.6C69.8 54.2 69.7 55.4 69.5 56.3C69.3 57.2 68.8 58.1 68 58.9C67.2 59.8 66.2 60.4 65.1 60.9C64 61.4 62.8 61.6 61.6 61.6C60.4 61.6 59.3 61.4 58.3 61.1C57.3 60.8 56.4 60.2 55.6 59.6C54.8 58.9 54.2 58.1 53.8 57.2C53.4 56.2 53.2 55.2 53.2 54C53.2 52.8 53.4 51.7 53.8 50.7C54.2 49.7 54.8 48.9 55.6 48.2C56.4 47.5 57.3 47 58.3 46.6C59.3 46.2 60.4 46.1 61.6 46.1C62.3 46.1 63 46.2 63.7 46.4C64.5 46.6 65.2 46.8 65.9 47.1C66.6 47.4 67.2 47.8 67.8 48.3C68.4 48.8 68.8 49.4 69.1 50L64 51.9C63.8 51.5 63.5 51.2 63.1 51C62.7 50.8 62.3 50.7 61.9 50.7C61 50.7 60.2 51 59.7 51.7C59.2 52.4 58.9 53.2 58.9 54.2C58.9 55.1 59.2 55.8 59.7 56.5C60.2 57.1 60.9 57.5 61.8 57.5C62.3 57.5 62.7 57.4 63.2 57.2C63.6 57 63.9 56.6 64 56.2H61.5V52.6H69.8V52.5Z" fill="white"/>
<path d="M71.7 46.2H77.2V61.4H71.7V46.2Z" fill="white"/>
<path d="M78.7 46.2H90.3V51.1L87.3 51V61.4H81.8V51L78.8 51.1V46.2H78.7Z" fill="white"/>
<path d="M94.6 61.4H88.8L94 46.2H100.1L105.5 61.4H99.7L99.2 59.5H95L94.6 61.4ZM98.2 55.9L97.6 53.2C97.5 52.8 97.4 52.2 97.3 51.3V51.2H97L96 55.8H98.2V55.9Z" fill="white"/>
<path d="M106.7 46.2H112.2V56.5H116.8V61.4H106.7V46.2Z" fill="white"/>
<path d="M57.7 137C57.7 137 24.3 143 32.5 167.2C40.7 191.4 70.9 175.9 70.9 175.9C71 175.8 71.2 175.8 71.3 175.7L58.2 136.8C58 136.9 57.9 137 57.7 137Z" fill="black"/>
<path d="M146.4 132.9C146.4 135.897 145.209 138.771 143.09 140.89C140.971 143.009 138.097 144.2 135.1 144.2C132.103 144.2 129.229 143.009 127.11 140.89C124.991 138.771 123.8 135.897 123.8 132.9C123.8 129.903 124.991 127.029 127.11 124.91C129.229 122.791 132.103 121.6 135.1 121.6C138.097 121.6 140.971 122.791 143.09 124.91C145.209 127.029 146.4 129.903 146.4 132.9V132.9Z" fill="black"/>
<path d="M58.2 136.9L71.3 175.8C119.6 157.1 145.1 177.8 145.1 177.8L130.4 134.2L115.7 90.6C115.7 90.6 107.9 122.5 58.2 136.9Z" fill="#FED706"/>
<path d="M115.645 90.5531L120.288 88.9861L150.445 178.335L145.802 179.902L115.645 90.5531Z" fill="black"/>
</svg>
